<svg width="76" height="141" viewBox="0 0 76 141" fill="none" xmlns="http://www.w3.org/2000/svg">
<path d="M45.592 137.272C42.6907 137.272 40.0027 136.248 37.528 134.2C35.0533 132.152 33.3467 129.549 32.408 126.392C32.0667 125.197 31.8107 123.917 31.64 122.552C31.5547 121.272 31.512 119.907 31.512 118.456C31.512 113.848 32.1093 108.6 33.304 102.712C34.584 96.824 36.2053 90.5947 38.168 84.024C40.216 77.368 42.4347 70.712 44.824 64.056C47.2987 57.3147 49.688 50.8293 51.992 44.6C54.3813 38.2853 56.5573 32.4827 58.52 27.192C60.4827 21.816 62.0187 17.2933 63.128 13.624C63.7253 11.7467 64.024 10.2107 64.024 9.016C64.024 7.48 63.512 6.712 62.488 6.712C61.208 6.712 59.2453 7.94933 56.6 10.424C53.9547 12.8987 50.9253 16.2693 47.512 20.536C44.0987 24.8027 40.5573 29.752 36.888 35.384C33.2187 41.016 29.72 46.9893 26.392 53.304C23.064 59.6187 20.1627 66.0187 17.688 72.504C15.2133 78.9893 13.4213 85.2613 12.312 91.32C12.2267 91.9173 12.1413 92.856 12.056 94.136C11.9707 95.416 11.7573 96.568 11.416 97.592C11.16 98.616 10.6053 99.128 9.75199 99.128C7.87466 99.0427 6.55199 98.104 5.78399 96.312C5.10132 94.52 4.63199 92.856 4.37599 91.32C3.69332 86.7973 3.35199 81.5067 3.35199 75.448C3.35199 70.584 3.56532 65.5493 3.99199 60.344C4.41866 55.1387 5.01599 50.1893 5.78399 45.496C6.55199 40.8027 7.44799 36.8347 8.47199 33.592C9.15466 31.544 10.0933 29.7093 11.288 28.088C12.568 26.3813 13.72 25.528 14.744 25.528C15.3413 25.528 15.8107 25.9547 16.152 26.808C16.5787 27.6613 16.7493 29.1973 16.664 31.416C16.664 32.3547 16.2373 34.1467 15.384 36.792C14.616 39.352 13.6773 42.68 12.568 46.776C11.544 50.872 10.648 55.608 9.87999 60.984C9.11199 66.36 8.72799 72.2907 8.72799 78.776C8.72799 81.848 8.85599 85.048 9.11199 88.376C9.87999 85.9867 11.032 82.6587 12.568 78.392C14.1893 74.1253 16.152 69.304 18.456 63.928C20.8453 58.552 23.4907 53.0053 26.392 47.288C29.3787 41.4853 32.5787 35.8533 35.992 30.392C39.4053 24.9307 42.9893 19.9813 46.744 15.544C50.4987 11.1067 54.3387 7.56533 58.264 4.92C60.2267 3.64 62.2747 3 64.408 3C66.712 3 68.6747 3.72533 70.296 5.17599C72.0027 6.62666 72.7707 8.67466 72.6 11.32C72.4293 14.904 71.5333 18.5307 69.912 22.2C68.376 25.784 66.5413 29.2827 64.408 32.696C62.36 36.1093 60.44 39.3947 58.648 42.552C56.1733 47.0747 53.656 52.1093 51.096 57.656C48.6213 63.2027 46.3173 69.0053 44.184 75.064C42.136 81.1227 40.472 87.224 39.192 93.368C37.912 99.512 37.272 105.443 37.272 111.16C37.272 115.939 37.8693 120.589 39.064 125.112C40.0027 128.44 41.1547 130.744 42.52 132.024C43.9707 133.304 45.3787 133.944 46.744 133.944C48.28 133.944 49.688 133.517 50.968 132.664C52.3333 131.811 53.4 130.872 54.168 129.848C55.0213 128.909 55.4053 128.355 55.32 128.184C55.4907 128.099 55.6613 128.056 55.832 128.056C56.4293 128.056 56.5573 128.44 56.216 129.208C55.96 130.061 55.576 130.915 55.064 131.768C54.552 132.707 54.168 133.304 53.912 133.56C52.632 134.84 51.2667 135.779 49.816 136.376C48.4507 136.973 47.0427 137.272 45.592 137.272Z" fill="#B58D8D"/>
<path fill-rule="evenodd" clip-rule="evenodd" d="M11.884 71.9114C13.0331 69.0535 14.3048 65.9982 15.6986 62.7462L15.7064 62.7279L15.7146 62.7096C18.1265 57.2827 20.7942 51.6895 23.7167 45.9304L23.7206 45.9227L23.7246 45.9151C26.7488 40.0394 29.9899 34.3349 33.448 28.802C36.9295 23.2316 40.597 18.1642 44.4538 13.6062C48.3479 9.00414 52.3882 5.26214 56.5874 2.4322L56.6062 2.41954L56.6252 2.40717C59.0255 0.841769 61.6359 0 64.408 0C67.3899 0 70.0678 0.95847 72.2684 2.91532C74.8067 5.08957 75.8068 8.11544 75.5954 11.487C75.4026 15.4676 74.4083 19.4421 72.6632 23.3964C71.0694 27.1129 69.1697 30.7351 66.9665 34.2627C64.9394 37.6416 63.0402 40.8915 61.2686 44.0125C58.8381 48.4557 56.3577 53.4155 53.8279 58.8958C51.3935 64.3536 49.1239 70.0689 47.02 76.0425C45.0126 81.9833 43.3826 87.9622 42.1289 93.9799C40.8868 99.9419 40.272 105.667 40.272 111.16C40.272 115.677 40.8352 120.062 41.9581 124.322C42.8419 127.446 43.7946 129.087 44.5425 129.808C45.6504 130.775 46.3682 130.944 46.744 130.944C47.6867 130.944 48.5159 130.693 49.3039 130.168L49.3406 130.143L49.378 130.12C50.5074 129.414 51.2708 128.711 51.768 128.048L51.8459 127.944L51.2951 126.842L53.9784 125.501C54.5159 125.232 55.143 125.056 55.832 125.056C56.2633 125.056 56.9204 125.119 57.5957 125.477C58.3577 125.88 58.9423 126.556 59.222 127.395C59.4704 128.141 59.4143 128.816 59.3338 129.25C59.2659 129.617 59.1544 129.952 59.0381 130.237C58.7107 131.276 58.2481 132.283 57.6691 133.257C57.1968 134.12 56.6326 135.082 56.0333 135.681C54.5242 137.19 52.8455 138.368 50.9888 139.137C49.2638 139.888 47.4573 140.272 45.592 140.272C41.9165 140.272 38.5664 138.954 35.6153 136.511C32.6702 134.074 30.636 130.959 29.5324 127.247L29.5278 127.232L29.5234 127.216C29.1355 125.859 28.8509 124.426 28.6632 122.924L28.6524 122.838L28.6466 122.752C28.5563 121.397 28.512 119.965 28.512 118.456C28.512 113.598 29.1407 108.144 30.3639 102.115L30.368 102.095L30.3725 102.075C31.6707 96.1029 33.3119 89.7993 35.2935 83.1654L35.297 83.1535L35.3007 83.1417C37.3624 76.441 39.5957 69.7412 42.0004 63.0424L42.004 63.0323L42.0077 63.0222C44.4832 56.2787 46.8734 49.7911 49.1783 43.5593L49.1822 43.5488L49.1861 43.5383C51.5725 37.2316 53.7452 31.4376 55.7045 26.156C57.655 20.8132 59.1697 16.3502 60.2564 12.7558L60.2626 12.7351L60.2692 12.7144C60.5052 11.9728 60.6768 11.3299 60.7962 10.778C60.1883 11.2379 59.4743 11.8432 58.6495 12.6148C56.1478 14.9551 53.2183 18.2055 49.8546 22.4101C46.514 26.5858 43.0293 31.4534 39.4016 37.0216C35.7857 42.5716 32.3335 48.4648 29.046 54.7027C25.7726 60.9137 22.9214 67.2039 20.4909 73.5735C18.082 79.8864 16.3475 85.9606 15.2742 91.7988C15.2076 92.2859 15.1308 93.1137 15.0493 94.3356C14.9526 95.7861 14.7105 97.1617 14.2951 98.4402C14.0709 99.2723 13.6498 100.204 12.8428 100.948C11.9381 101.784 10.8269 102.128 9.75199 102.128H9.68384L9.61577 102.125C8.19528 102.06 6.81732 101.659 5.61575 100.807C4.42063 99.9584 3.58387 98.7942 3.02655 97.4938L3.00238 97.4373L2.98053 97.38C2.24259 95.4429 1.712 93.5844 1.41681 91.8132L1.41303 91.7905L1.40959 91.7678C0.69872 87.0582 0.35199 81.6116 0.35199 75.448C0.35199 70.4965 0.569153 65.3799 1.00202 60.0989C1.43462 54.8211 2.04119 49.7915 2.82337 45.0115C3.60619 40.2276 4.53072 36.1103 5.61124 32.6886L5.61841 32.6659L5.62594 32.6433C6.40073 30.3189 7.479 28.2 8.87282 26.3084L8.88036 26.2982L8.88799 26.288C9.62595 25.304 10.4333 24.4188 11.3263 23.7573C12.2176 23.0971 13.3769 22.528 14.744 22.528C17.1129 22.528 18.3509 24.301 18.8916 25.5824C19.2921 26.4317 19.4829 27.3801 19.5816 28.2687C19.6874 29.2204 19.7074 30.3015 19.6636 31.4823C19.6547 32.2988 19.4826 33.2339 19.2624 34.1589C19.0261 35.1516 18.6841 36.3318 18.2487 37.6832C17.4949 40.1974 16.5696 43.4775 15.4714 47.5318C14.4812 51.498 13.6054 56.1197 12.8498 61.4083C12.3822 64.6818 12.0594 68.1822 11.884 71.9114ZM7.08802 59.341C7.82701 54.3847 8.68196 49.9508 9.65756 46.0484L9.66466 46.02L9.67231 45.9918C10.7851 41.8829 11.7316 38.5262 12.5105 35.93L12.5194 35.9004L12.5289 35.871C12.9422 34.5895 13.237 33.5612 13.4256 32.7691C13.626 31.9272 13.664 31.5227 13.664 31.416V31.3583L13.6662 31.3007C13.6866 30.7703 13.69 30.3047 13.6796 29.8997C12.6992 31.2375 11.9106 32.7701 11.3254 34.5186C10.3609 37.5783 9.49589 41.3893 8.74461 45.9805C8.05215 50.2122 7.49952 54.6653 7.08802 59.341ZM15.0551 28.4774C15.0551 28.4775 15.0529 28.4786 15.0486 28.4803C15.0529 28.4782 15.0551 28.4773 15.0551 28.4774ZM13.3274 27.8358C13.3275 27.8358 13.3292 27.8386 13.3322 27.8446C13.3289 27.8389 13.3273 27.8359 13.3274 27.8358ZM7.05109 88.7155L9.69921 89.0271C9.58044 89.6129 9.46771 90.1971 9.36105 90.7797L9.35046 90.8375L9.34214 90.8957C9.23985 91.6117 9.14872 92.6452 9.06263 93.9364C9.02039 94.5702 8.94218 95.1419 8.8342 95.6567C8.74938 95.5434 8.65663 95.3896 8.56293 95.1795C7.9529 93.5679 7.55371 92.1271 7.33885 90.8488C7.23483 90.158 7.13889 89.4469 7.05109 88.7155ZM8.48926 96.92C8.48919 96.92 8.49014 96.9171 8.49228 96.9117C8.49039 96.9175 8.48932 96.9201 8.48926 96.92ZM37.6897 130.139C37.1016 128.866 36.6052 127.446 36.1766 125.926L36.1699 125.902L36.1635 125.878C35.3757 122.896 34.8344 119.863 34.5389 116.781C34.5209 117.35 34.512 117.908 34.512 118.456C34.512 119.815 34.551 121.084 34.6276 122.265C34.7801 123.454 35.0023 124.549 35.2881 125.552C35.8114 127.306 36.6099 128.826 37.6897 130.139ZM57.4773 38.5569C58.8606 36.1576 60.3134 33.6894 61.8355 31.1525L61.8495 31.1291L61.864 31.106C63.9184 27.8189 65.6811 24.4564 67.1546 21.0182L67.1612 21.0028L67.1679 20.9875C68.6575 17.6164 69.4523 14.3512 69.6034 11.1773L69.6046 11.1521L69.6062 11.1269C69.7285 9.23125 69.1997 8.18151 68.3531 7.46181L68.324 7.43713L68.2956 7.41172C67.7667 6.93846 67.1855 6.58065 66.5289 6.34368C66.9303 7.25817 67.024 8.22201 67.024 9.016C67.024 10.6486 66.6281 12.5136 65.9935 14.5126C64.8625 18.2515 63.3081 22.8247 61.3381 28.2208L61.3354 28.2281L61.3327 28.2354C60.1276 31.4838 58.8425 34.9243 57.4773 38.5569Z" fill="#B58D8D"/>
</svg>
