<svg width="525" height="322" viewBox="0 0 525 322" fill="none" xmlns="http://www.w3.org/2000/svg">
<path d="M134.807 250.823C129.506 250.823 124.594 248.952 120.072 245.21C115.551 241.468 112.432 236.712 110.717 230.943C110.094 228.76 109.626 226.421 109.314 223.927C109.158 221.588 109.08 219.093 109.08 216.443C109.08 208.023 110.171 198.434 112.354 187.675C114.693 176.917 117.656 165.534 121.242 153.529C124.984 141.367 129.038 129.205 133.404 117.043C137.925 104.725 142.291 92.8754 146.501 81.4932C150.867 69.9551 154.843 59.3525 158.429 49.6854C162.015 39.8624 164.822 31.5986 166.849 24.8941C167.94 21.4638 168.486 18.6572 168.486 16.4743C168.486 13.6678 167.55 12.2645 165.679 12.2645C163.34 12.2645 159.754 14.5253 154.921 19.047C150.087 23.5687 144.552 29.7276 138.315 37.5236C132.078 45.3196 125.608 54.363 118.903 64.6538C112.198 74.9446 105.806 85.859 99.7248 97.3971C93.6439 108.935 88.3426 120.629 83.8209 132.479C79.2992 144.329 76.0249 155.789 73.9979 166.86C73.842 167.951 73.686 169.666 73.5301 172.005C73.3742 174.344 72.9844 176.449 72.3607 178.32C71.893 180.191 70.8795 181.127 69.3203 181.127C65.89 180.971 63.4732 179.255 62.07 175.981C60.8226 172.707 59.965 169.666 59.4973 166.86C58.2499 158.596 57.6262 148.929 57.6262 137.859C57.6262 128.971 58.016 119.772 58.7956 110.261C59.5752 100.749 60.6667 91.706 62.07 83.1304C63.4732 74.5548 65.1104 67.3045 66.9815 61.3795C68.2288 57.6374 69.9439 54.2851 72.1268 51.3226C74.4656 48.2042 76.5706 46.645 78.4416 46.645C79.5331 46.645 80.3906 47.4246 81.0143 48.9838C81.7939 50.543 82.1058 53.3496 81.9498 57.4035C81.9498 59.1186 81.1702 62.393 79.611 67.2265C78.2077 71.9041 76.4926 77.985 74.4656 85.4692C72.5946 92.9534 70.9574 101.607 69.5541 111.43C68.1509 121.253 67.4492 132.089 67.4492 143.939C67.4492 149.553 67.6831 155.4 68.1509 161.481C69.5541 157.115 71.6591 151.034 74.4656 143.238C77.4281 135.442 81.0143 126.632 85.2242 116.809C89.5899 106.986 94.4235 96.8514 99.7248 86.4047C105.182 75.8021 111.029 65.5114 117.266 55.5324C123.503 45.5535 130.051 36.5101 136.912 28.4023C143.772 20.2944 150.789 13.8237 157.961 8.99014C161.547 6.65134 165.289 5.48193 169.187 5.48193C173.397 5.48193 176.983 6.80726 179.946 9.4579C183.064 12.1086 184.468 15.8507 184.156 20.6842C183.844 27.2329 182.207 33.8595 179.244 40.5641C176.438 47.1127 173.085 53.5055 169.187 59.7423C165.445 65.9791 161.937 71.9821 158.663 77.7511C154.141 86.0149 149.541 95.2143 144.864 105.349C140.342 115.484 136.132 126.087 132.234 137.157C128.492 148.227 125.452 159.376 123.113 170.602C120.774 181.828 119.605 192.665 119.605 203.111C119.605 211.843 120.696 220.341 122.879 228.604C124.594 234.685 126.699 238.895 129.194 241.234C131.844 243.573 134.417 244.742 136.912 244.742C139.718 244.742 142.291 243.963 144.63 242.403C147.125 240.844 149.074 239.129 150.477 237.258C152.036 235.543 152.738 234.529 152.582 234.217C152.894 234.062 153.206 233.984 153.517 233.984C154.609 233.984 154.843 234.685 154.219 236.089C153.751 237.648 153.05 239.207 152.114 240.766C151.179 242.481 150.477 243.573 150.009 244.04C147.67 246.379 145.176 248.094 142.525 249.186C140.03 250.277 137.458 250.823 134.807 250.823Z" fill="black"/>
<path fill-rule="evenodd" clip-rule="evenodd" d="M73.2158 131.396C75.3154 126.174 77.6391 120.592 80.1857 114.65L80.2001 114.616L80.2149 114.583C84.622 104.667 89.4964 94.4468 94.8365 83.9238L94.8436 83.9098L94.8508 83.8958C100.377 73.1597 106.299 62.7365 112.617 52.6269C118.979 42.4487 125.68 33.1896 132.727 24.8611C139.842 16.4523 147.225 9.61495 154.898 4.4441L154.932 4.42097L154.967 4.39836C159.352 1.53808 164.122 0 169.187 0C174.636 0 179.529 1.75131 183.55 5.32686C188.188 9.29964 190.015 14.8285 189.629 20.9889C189.277 28.2623 187.46 35.5246 184.271 42.7498C181.359 49.5406 177.888 56.1591 173.862 62.6047C170.158 68.7785 166.688 74.7167 163.451 80.4195C159.01 88.5379 154.478 97.6005 149.855 107.614C145.407 117.587 141.26 128.029 137.416 138.945C133.748 149.799 130.77 160.724 128.479 171.72C126.21 182.613 125.086 193.074 125.086 203.111C125.086 211.365 126.115 219.376 128.167 227.16C129.782 232.869 131.523 235.868 132.889 237.184C134.913 238.951 136.225 239.26 136.912 239.26C138.634 239.26 140.149 238.802 141.589 237.842L141.656 237.797L141.725 237.755C143.788 236.465 145.183 235.18 146.092 233.969L146.234 233.779L145.227 231.766L150.13 229.314C151.113 228.823 152.258 228.502 153.517 228.502C154.305 228.502 155.506 228.617 156.74 229.27C158.132 230.007 159.201 231.243 159.712 232.776C160.165 234.138 160.063 235.372 159.916 236.165C159.792 236.836 159.588 237.447 159.375 237.969C158.777 239.868 157.932 241.707 156.874 243.486C156.011 245.063 154.98 246.821 153.885 247.916C151.128 250.674 148.06 252.825 144.668 254.231C141.516 255.602 138.215 256.304 134.807 256.304C128.091 256.304 121.97 253.895 116.577 249.433C111.196 244.979 107.479 239.288 105.463 232.505L105.454 232.477L105.446 232.449C104.738 229.968 104.218 227.351 103.875 224.606L103.855 224.449L103.844 224.291C103.679 221.816 103.598 219.199 103.598 216.442C103.598 207.566 104.747 197.6 106.982 186.585L106.99 186.548L106.998 186.51C109.37 175.599 112.369 164.081 115.989 151.959L115.996 151.938L116.003 151.916C119.77 139.673 123.85 127.431 128.244 115.191L128.251 115.172L128.258 115.154C132.781 102.832 137.148 90.9781 141.36 79.5913L141.367 79.5721L141.374 79.553C145.734 68.0293 149.704 57.4425 153.284 47.7921C156.848 38.0297 159.616 29.8751 161.601 23.3074L161.613 23.2694L161.625 23.2317C162.056 21.8766 162.37 20.7019 162.588 19.6936C161.477 20.5338 160.172 21.6399 158.665 23.0497C154.094 27.3259 148.742 33.265 142.595 40.9476C136.491 48.5775 130.124 57.4716 123.496 67.6458C116.889 77.7866 110.581 88.5547 104.574 99.9525C98.5929 111.301 93.3832 122.795 88.9422 134.433C84.5407 145.968 81.3715 157.067 79.4103 167.734C79.2886 168.624 79.1483 170.137 78.9995 172.369C78.8228 175.02 78.3803 177.533 77.6213 179.869C77.2117 181.39 76.4422 183.091 74.9677 184.452C73.3146 185.978 71.2842 186.608 69.3202 186.608H69.1956L69.0713 186.602C66.4758 186.484 63.9579 185.751 61.7624 184.193C59.5787 182.643 58.0498 180.516 57.0315 178.14L56.9873 178.037L56.9474 177.932C55.599 174.393 54.6295 170.997 54.0902 167.761L54.0833 167.719L54.077 167.678C52.7781 159.072 52.1445 149.12 52.1445 137.858C52.1445 128.811 52.5413 119.462 53.3323 109.812C54.1227 100.169 55.231 90.9788 56.6602 82.2448C58.0906 73.5037 59.7799 65.9805 61.7542 59.7284L61.7673 59.687L61.7811 59.6457C63.1968 55.3986 65.167 51.5269 67.7138 48.0706L67.7275 48.0519L67.7415 48.0333C69.0899 46.2354 70.565 44.618 72.1968 43.4093C73.8253 42.2029 75.9436 41.163 78.4415 41.163C82.77 41.163 85.032 44.4027 86.0201 46.7441C86.7518 48.2959 87.1004 50.0287 87.2809 51.6524C87.4741 53.3913 87.5106 55.3667 87.4306 57.5243C87.4143 59.0161 87.0999 60.7249 86.6976 62.4149C86.2657 64.2287 85.6409 66.3853 84.8453 68.8546C83.468 73.4484 81.7772 79.4418 79.7706 86.8499C77.9613 94.0968 76.361 102.542 74.9805 112.205C74.126 118.186 73.5363 124.582 73.2158 131.396ZM64.4526 108.428C65.8028 99.3714 67.365 91.2698 69.1476 84.1394L69.1606 84.0875L69.1746 84.0359C71.2079 76.5282 72.9374 70.3949 74.3605 65.651L74.3767 65.597L74.3941 65.5433C75.1494 63.2018 75.6879 61.3228 76.0325 59.8756C76.3988 58.3372 76.4682 57.5982 76.4682 57.4031V57.2978L76.4722 57.1925C76.5095 56.2233 76.5157 55.3726 76.4967 54.6325C74.7052 57.077 73.2643 59.8774 72.1951 63.0721C70.4327 68.6629 68.8522 75.6264 67.4795 84.0153C66.2142 91.7475 65.2045 99.8842 64.4526 108.428ZM79.0099 52.0338C79.0099 52.0339 79.006 52.0359 78.9982 52.0391C79.006 52.0352 79.0099 52.0336 79.0099 52.0338ZM75.8532 50.8615C75.8533 50.8614 75.8564 50.8665 75.862 50.8774C75.8559 50.8672 75.853 50.8616 75.8532 50.8615ZM64.3851 162.101L69.2237 162.67C69.0067 163.74 68.8007 164.808 68.6058 165.872L68.5865 165.978L68.5713 166.084C68.3844 167.392 68.2179 169.281 68.0606 171.64C67.9834 172.798 67.8405 173.843 67.6432 174.783C67.4882 174.576 67.3187 174.295 67.1475 173.911C66.0329 170.967 65.3035 168.334 64.9109 165.998C64.7208 164.736 64.5455 163.437 64.3851 162.101ZM67.0129 177.092C67.0128 177.092 67.0145 177.086 67.0184 177.077C67.015 177.087 67.013 177.092 67.0129 177.092ZM120.368 237.789C119.293 235.464 118.386 232.868 117.603 230.092L117.591 230.048L117.579 230.004C116.14 224.555 115.151 219.013 114.611 213.381C114.578 214.421 114.562 215.442 114.562 216.442C114.562 218.925 114.633 221.244 114.773 223.402C115.051 225.575 115.457 227.574 115.98 229.408C116.936 232.612 118.395 235.391 120.368 237.789ZM156.524 70.451C159.051 66.0669 161.706 61.5571 164.487 56.9217L164.513 56.879L164.539 56.8367C168.293 50.8305 171.513 44.6866 174.206 38.4044L174.218 38.3763L174.23 38.3483C176.952 32.1887 178.404 26.2224 178.68 20.4231L178.683 20.377L178.686 20.3309C178.909 16.8673 177.943 14.9492 176.396 13.6342L176.343 13.5891L176.291 13.5427C175.324 12.6779 174.262 12.0241 173.063 11.5911C173.796 13.2621 173.967 15.0232 173.967 16.474C173.967 19.4571 173.244 22.8649 172.084 26.5173C170.018 33.349 167.178 41.7051 163.578 51.5649L163.573 51.5783L163.568 51.5916C161.366 57.527 159.018 63.8135 156.524 70.451Z" fill="black"/>
<path d="M215.861 112.98C214.458 112.98 213.445 112.278 212.821 110.875C212.353 109.315 212.119 108.224 212.119 107.6C212.119 105.106 212.821 102.767 214.224 100.584C215.783 98.2451 217.499 96.9977 219.37 96.8418H220.071C221.942 96.8418 223.19 97.3096 223.813 98.2451C224.593 99.0247 224.983 100.038 224.983 101.286C224.983 103.624 223.969 106.197 221.942 109.004C219.915 111.654 217.888 112.98 215.861 112.98ZM203.934 196.709C198.632 196.709 195.046 194.682 193.175 190.628C191.304 186.574 190.368 181.897 190.368 176.595C190.368 171.294 190.914 165.759 192.006 159.99C193.253 154.065 194.578 148.685 195.982 143.852C197.541 139.018 198.71 135.588 199.49 133.561C201.205 129.975 202.92 126.934 204.635 124.44C206.35 121.789 208.221 120.464 210.248 120.464C211.652 120.464 212.665 121.009 213.289 122.101C214.068 123.036 214.458 124.284 214.458 125.843C214.458 128.961 213.601 132.158 211.885 135.432C210.17 138.551 208.611 141.513 207.208 144.32C204.089 150.712 201.595 156.403 199.724 161.393C198.009 166.382 197.151 172.619 197.151 180.103C197.151 184.937 197.619 188.445 198.554 190.628C199.646 192.811 201.127 193.902 202.998 193.902C205.493 193.902 208.377 192.499 211.652 189.693C214.926 186.73 218.278 182.832 221.708 177.998C225.139 173.165 228.179 167.942 230.83 162.328C232.545 158.742 233.87 156.949 234.806 156.949C235.429 156.949 235.741 157.573 235.741 158.82C235.741 160.535 235.04 163.03 233.636 166.304C232.389 169.423 230.83 172.619 228.959 175.894C227.244 179.168 225.606 181.741 224.047 183.612C221.397 187.042 218.356 190.082 214.926 192.733C211.496 195.384 207.832 196.709 203.934 196.709Z" fill="black"/>
<path fill-rule="evenodd" clip-rule="evenodd" d="M219.141 91.3599H220.071C222.42 91.3599 225.841 91.8881 228.04 94.7387C229.735 96.6236 230.464 98.9476 230.464 101.285C230.464 105.21 228.779 108.899 226.386 112.213L226.342 112.273L226.296 112.333C224.167 115.117 221.214 117.787 217.365 118.352C217.514 118.546 217.657 118.749 217.793 118.961C219.377 121.054 219.939 123.507 219.939 125.843C219.939 129.997 218.791 134.061 216.741 137.975L216.715 138.025L216.688 138.073C215.008 141.128 213.487 144.019 212.122 146.747C209.078 152.989 206.672 158.484 204.883 163.244C203.444 167.467 202.632 173.031 202.632 180.103C202.632 184.608 203.08 187.148 203.533 188.322C203.536 188.328 203.539 188.333 203.542 188.338C204.338 188.135 205.802 187.476 208.029 185.577C210.91 182.961 213.986 179.408 217.238 174.826C220.473 170.267 223.353 165.323 225.873 159.987L225.879 159.975L225.884 159.963C226.795 158.059 227.731 156.348 228.702 155.035C229.182 154.386 229.817 153.631 230.624 152.99C231.379 152.392 232.822 151.467 234.805 151.467C235.921 151.467 237.141 151.762 238.255 152.505C239.336 153.225 240.007 154.159 240.41 154.965C241.139 156.422 241.223 157.916 241.223 158.82C241.223 161.701 240.136 165.043 238.701 168.402C237.364 171.734 235.715 175.109 233.767 178.526C231.991 181.908 230.185 184.792 228.324 187.041C225.402 190.808 222.051 194.154 218.277 197.07C214.001 200.375 209.18 202.19 203.933 202.19C200.602 202.19 197.39 201.554 194.57 199.96C191.692 198.333 189.572 195.903 188.198 192.925C185.938 188.028 184.886 182.543 184.886 176.595C184.886 170.917 185.471 165.04 186.619 158.97L186.63 158.915L186.641 158.86C187.911 152.827 189.269 147.312 190.717 142.323L190.74 142.246L190.764 142.169C192.325 137.332 193.534 133.774 194.373 131.593L194.451 131.391L194.544 131.196C196.334 127.454 198.173 124.171 200.076 121.394C202.013 118.425 204.912 115.57 208.959 115.062C208.483 114.431 208.106 113.764 207.811 113.101L207.67 112.783L207.57 112.449C207.119 110.944 206.637 109.132 206.637 107.6C206.637 104.01 207.665 100.649 209.613 97.6193L209.638 97.5809L209.663 97.5429C211.676 94.5231 214.68 91.7317 218.914 91.3788L219.141 91.3599ZM230.255 158.717C230.256 158.715 230.258 158.737 230.259 158.786C230.255 158.743 230.254 158.719 230.255 158.717ZM202.573 141.333C203.933 138.631 205.427 135.8 207.054 132.842C207.934 131.151 208.48 129.587 208.755 128.133C207.394 130.188 205.982 132.709 204.529 135.728C204.048 136.996 203.398 138.856 202.573 141.333ZM218.927 103.417C218.889 103.471 218.85 103.527 218.811 103.586C218.55 103.995 218.335 104.403 218.162 104.812C218.486 104.296 218.736 103.831 218.927 103.417Z" fill="black"/>
<path d="M451.569 112.98C450.166 112.98 449.153 112.278 448.529 110.875C448.061 109.315 447.827 108.224 447.827 107.6C447.827 105.106 448.529 102.767 449.932 100.584C451.491 98.2451 453.207 96.9977 455.078 96.8418H455.779C457.65 96.8418 458.898 97.3096 459.521 98.2451C460.301 99.0247 460.691 100.038 460.691 101.286C460.691 103.624 459.677 106.197 457.65 109.004C455.623 111.654 453.596 112.98 451.569 112.98ZM439.642 196.709C434.34 196.709 430.754 194.682 428.883 190.628C427.012 186.574 426.076 181.897 426.076 176.595C426.076 171.294 426.622 165.759 427.714 159.99C428.961 154.065 430.286 148.685 431.69 143.852C433.249 139.018 434.418 135.588 435.198 133.561C436.913 129.975 438.628 126.934 440.343 124.44C442.058 121.789 443.929 120.464 445.956 120.464C447.36 120.464 448.373 121.009 448.997 122.101C449.776 123.036 450.166 124.284 450.166 125.843C450.166 128.961 449.309 132.158 447.593 135.432C445.878 138.551 444.319 141.513 442.916 144.32C439.797 150.712 437.303 156.403 435.432 161.393C433.717 166.382 432.859 172.619 432.859 180.103C432.859 184.937 433.327 188.445 434.262 190.628C435.354 192.811 436.835 193.902 438.706 193.902C441.201 193.902 444.085 192.499 447.36 189.693C450.634 186.73 453.986 182.832 457.416 177.998C460.847 173.165 463.887 167.942 466.538 162.328C468.253 158.742 469.578 156.949 470.514 156.949C471.137 156.949 471.449 157.573 471.449 158.82C471.449 160.535 470.748 163.03 469.344 166.304C468.097 169.423 466.538 172.619 464.667 175.894C462.952 179.168 461.314 181.741 459.755 183.612C457.105 187.042 454.064 190.082 450.634 192.733C447.204 195.384 443.54 196.709 439.642 196.709Z" fill="black"/>
<path fill-rule="evenodd" clip-rule="evenodd" d="M454.85 91.3599H455.779C458.128 91.3599 461.549 91.8881 463.748 94.7387C465.443 96.6236 466.172 98.9476 466.172 101.285C466.172 105.21 464.487 108.899 462.094 112.213L462.05 112.273L462.005 112.333C459.875 115.117 456.922 117.787 453.073 118.352C453.222 118.546 453.365 118.749 453.501 118.961C455.085 121.054 455.648 123.507 455.648 125.843C455.648 129.997 454.499 134.061 452.449 137.975L452.423 138.025L452.396 138.073C450.716 141.128 449.195 144.019 447.831 146.747C444.786 152.989 442.38 158.484 440.592 163.244C439.152 167.467 438.34 173.031 438.34 180.103C438.34 184.608 438.788 187.148 439.241 188.322C439.244 188.328 439.247 188.333 439.25 188.338C440.046 188.135 441.51 187.476 443.737 185.577C446.619 182.961 449.694 179.408 452.946 174.826C456.182 170.267 459.061 165.323 461.581 159.987L461.587 159.975L461.593 159.963C462.503 158.059 463.44 156.348 464.41 155.035C464.89 154.386 465.525 153.631 466.333 152.99C467.087 152.392 468.531 151.467 470.514 151.467C471.629 151.467 472.849 151.762 473.964 152.505C475.044 153.225 475.715 154.159 476.118 154.965C476.847 156.422 476.931 157.916 476.931 158.82C476.931 161.701 475.844 165.043 474.409 168.402C473.073 171.734 471.424 175.109 469.476 178.526C467.699 181.908 465.893 184.792 464.033 187.041C461.111 190.808 457.759 194.154 453.986 197.07C449.709 200.375 444.889 202.19 439.641 202.19C436.31 202.19 433.098 201.554 430.279 199.96C427.4 198.333 425.28 195.903 423.906 192.925C421.646 188.028 420.595 182.543 420.595 176.595C420.595 170.917 421.179 165.04 422.327 158.97L422.338 158.915L422.349 158.86C423.62 152.827 424.977 147.312 426.425 142.323L426.448 142.246L426.473 142.169C428.033 137.332 429.242 133.774 430.081 131.593L430.159 131.391L430.253 131.196C432.042 127.454 433.881 124.171 435.784 121.394C437.721 118.425 440.62 115.57 444.667 115.062C444.191 114.431 443.815 113.764 443.52 113.101L443.378 112.783L443.278 112.449C442.827 110.944 442.346 109.132 442.346 107.6C442.346 104.01 443.374 100.649 445.321 97.6193L445.346 97.5809L445.371 97.5429C447.384 94.5231 450.388 91.7317 454.622 91.3788L454.85 91.3599ZM465.963 158.717C465.964 158.715 465.967 158.737 465.967 158.786C465.963 158.743 465.962 158.719 465.963 158.717ZM438.281 141.333C439.641 138.631 441.135 135.8 442.762 132.842C443.643 131.151 444.188 129.587 444.464 128.133C443.102 130.188 441.69 132.709 440.238 135.728C439.756 136.996 439.106 138.856 438.281 141.333ZM454.635 103.417C454.597 103.471 454.558 103.527 454.519 103.586C454.258 103.995 454.043 104.403 453.87 104.812C454.194 104.296 454.444 103.831 454.635 103.417Z" fill="black"/>
<path d="M342.654 221.164C330.648 221.164 319.968 218.123 310.612 212.042C301.257 206.117 293.305 198.166 286.757 188.187C280.364 178.208 275.452 167.137 272.022 154.975C268.748 142.658 267.111 130.262 267.111 117.788C267.111 106.874 268.436 96.3493 271.087 86.2145C273.737 76.0797 277.869 67.0363 283.482 59.0843C289.095 50.9764 296.112 44.5837 304.532 39.9061C313.107 35.2285 323.242 32.8896 334.936 32.8896C346.162 32.8896 355.284 34.9166 362.3 38.9706C369.473 43.0245 374.774 48.2478 378.204 54.6406C381.634 61.0333 383.349 67.7379 383.349 74.7543C383.349 81.7708 381.712 88.6313 378.438 95.3359C375.164 101.885 370.408 107.342 364.171 111.708C358.09 115.917 350.606 118.178 341.719 118.49C340.315 118.49 339.614 118.178 339.614 117.555C339.614 116.307 341.095 115.528 344.057 115.216C350.45 115.06 355.907 113.189 360.429 109.603C364.951 105.86 368.381 101.183 370.72 95.5697C373.059 89.8007 374.228 83.7977 374.228 77.5609C374.228 70.8563 372.747 64.3856 369.784 58.1488C366.978 51.912 362.534 46.7666 356.453 42.7126C350.372 38.6587 342.576 36.6318 333.065 36.6318C323.554 36.6318 315.368 38.7367 308.508 42.9465C301.647 47.1564 295.956 52.9254 291.434 60.2537C287.068 67.4261 283.794 75.6119 281.611 84.8112C279.428 94.0105 278.337 103.678 278.337 113.812C278.337 126.13 279.818 138.37 282.781 150.532C285.899 162.694 290.343 173.842 296.112 183.977C301.881 193.956 308.897 201.908 317.161 207.833C325.425 213.913 334.858 216.954 345.461 216.954C352.633 216.954 359.26 215.317 365.341 212.042C371.422 208.924 376.333 204.09 380.075 197.542C383.973 191.149 385.922 183.119 385.922 173.452C385.922 170.022 385.688 166.436 385.22 162.694C384.753 158.951 383.895 154.975 382.648 150.766C382.492 150.298 382.414 149.752 382.414 149.128C382.414 148.037 382.726 147.491 383.349 147.491C384.129 147.491 384.831 148.271 385.454 149.83C388.417 158.718 389.898 167.059 389.898 174.855C389.898 184.055 387.949 192.085 384.051 198.945C380.153 205.962 374.696 211.419 367.679 215.317C360.663 219.215 352.321 221.164 342.654 221.164Z" fill="black"/>
<path fill-rule="evenodd" clip-rule="evenodd" d="M356.979 105.342C360.761 102.2 363.649 98.2778 365.65 93.4853C367.716 88.3793 368.746 83.0839 368.746 77.5606C368.746 71.6942 367.457 66.0249 364.833 60.5004L364.809 60.4494L364.785 60.3979C362.431 55.1652 358.698 50.7968 353.412 47.2733C348.467 43.9765 341.816 42.113 333.065 42.113C324.38 42.113 317.226 44.0272 311.374 47.6183C305.3 51.3456 300.21 56.4745 296.108 63.1177C292.08 69.7385 289.01 77.3729 286.945 86.0764C284.867 94.8325 283.818 104.073 283.818 113.812C283.818 125.675 285.243 137.469 288.099 149.202C291.103 160.908 295.366 171.582 300.866 181.248C306.296 190.636 312.808 197.966 320.355 203.377L320.383 203.397L320.41 203.417C327.699 208.781 335.985 211.472 345.461 211.472C351.762 211.472 357.491 210.043 362.742 207.216L362.79 207.19L362.839 207.164C367.877 204.581 372.044 200.547 375.316 194.822L375.354 194.754L375.395 194.688C378.637 189.371 380.44 182.4 380.44 173.452C380.44 170.27 380.223 166.912 379.781 163.373C379.358 159.991 378.577 156.333 377.412 152.39C377.055 151.274 376.932 150.159 376.932 149.128C376.932 148.24 377.028 146.687 377.888 145.181C379.011 143.216 381.051 142.009 383.349 142.009C385.778 142.009 387.52 143.282 388.535 144.409C389.498 145.479 390.119 146.731 390.544 147.794L390.604 147.944L390.655 148.096C393.767 157.434 395.38 166.365 395.38 174.855C395.38 184.835 393.261 193.82 388.831 201.628C384.436 209.529 378.245 215.717 370.341 220.108C362.359 224.543 353.063 226.645 342.654 226.645C329.683 226.645 317.958 223.347 307.652 216.656C297.599 210.283 289.11 201.764 282.174 191.194L282.157 191.169L282.141 191.143C275.438 180.681 270.313 169.11 266.746 156.463L266.735 156.423L266.724 156.383C263.331 143.616 261.629 130.747 261.629 117.788C261.629 106.425 263.009 95.4334 265.783 84.8272C268.585 74.1135 272.977 64.4669 278.99 55.9432C285.067 47.1707 292.704 40.2059 301.869 35.114L301.888 35.1036L301.907 35.0935C311.432 29.8978 322.505 27.4077 334.936 27.4077C346.76 27.4077 356.913 29.5337 365.02 34.2108C372.958 38.7025 379.053 44.6294 383.034 52.0484C386.877 59.21 388.831 66.8017 388.831 74.754C388.831 82.6566 386.98 90.3359 383.363 97.741L383.352 97.764L383.341 97.7869C379.642 105.184 374.267 111.331 367.315 116.198L367.303 116.206L367.291 116.214C360.187 121.133 351.633 123.627 341.911 123.968L341.815 123.971H341.719C340.781 123.971 339.327 123.893 337.914 123.265C337.143 122.922 336.157 122.316 335.36 121.252C334.512 120.121 334.132 118.812 334.132 117.554C334.132 114.2 336.342 112.146 338.171 111.183C339.832 110.309 341.764 109.945 343.483 109.764L343.703 109.741L343.924 109.735C349.239 109.606 353.499 108.086 356.979 105.342ZM387.895 149.128C387.895 149.074 387.9 149.086 387.896 149.153C387.895 149.145 387.895 149.137 387.895 149.128ZM284.502 172.821C281.688 166.182 279.345 159.204 277.471 151.893L277.462 151.861L277.455 151.829C274.39 139.249 272.855 126.574 272.855 113.812C272.855 111.85 272.895 109.904 272.973 107.973C272.719 111.204 272.592 114.475 272.592 117.788C272.592 129.762 274.161 141.672 277.309 153.527C279.231 160.332 281.63 166.761 284.502 172.821ZM341.519 113C341.52 112.999 341.539 113 341.574 113.005C341.535 113.003 341.518 113.001 341.519 113Z" fill="black"/>
<path d="M22.541 292.904C21.7206 292.904 20.9941 293.057 20.3613 293.361C19.7519 293.643 19.2011 294.018 18.7089 294.486C18.2167 294.955 17.8066 295.459 17.4785 295.998C17.1503 296.514 16.8574 297.006 16.5995 297.475C16.3652 297.943 16.1777 298.33 16.037 298.635C15.9199 298.939 15.8378 299.092 15.791 299.092C15.1581 299.092 14.7128 298.928 14.455 298.6C14.1972 298.271 14.0331 297.873 13.9628 297.404C13.8925 296.912 13.8808 296.408 13.9277 295.893C13.998 295.354 14.0331 294.885 14.0331 294.486V293.889C14.0331 293.607 14.0331 293.314 14.0331 293.01C14.0566 292.705 14.0683 292.424 14.0683 292.166V291.568C14.1386 291.381 14.2324 291.275 14.3495 291.252C14.4667 291.229 14.5956 291.217 14.7363 291.217C14.9472 291.217 15.123 291.346 15.2636 291.604C15.4042 291.838 15.5331 292.131 15.6503 292.482C15.7675 292.834 15.8613 293.186 15.9316 293.537C16.0019 293.865 16.0605 294.123 16.1074 294.311C16.3886 294.264 16.6464 294.146 16.8808 293.959C17.1152 293.771 17.3495 293.549 17.5839 293.291C17.8417 293.033 18.1113 292.764 18.3925 292.482C18.6738 292.201 19.0019 291.943 19.3769 291.709C19.7519 291.451 20.1855 291.24 20.6777 291.076C21.1933 290.912 21.7792 290.83 22.4355 290.83C23.748 290.83 24.8261 291.123 25.6699 291.709C26.5136 292.271 27.1581 293.021 27.6035 293.959C28.0722 294.873 28.3886 295.916 28.5527 297.088C28.7167 298.236 28.7988 299.408 28.7988 300.604C28.0956 300.604 27.5449 300.498 27.1464 300.287C26.7714 300.053 26.5019 299.76 26.3378 299.408C26.1738 299.033 26.08 298.623 26.0566 298.178C26.0331 297.709 26.0214 297.24 26.0214 296.771C26.0214 296.279 25.9863 295.799 25.916 295.33C25.8691 294.861 25.7285 294.451 25.4941 294.1C25.2831 293.748 24.9433 293.467 24.4745 293.256C24.0292 293.021 23.3847 292.904 22.541 292.904ZM29.7831 296.314C29.7831 295.518 29.9238 294.697 30.205 293.854C30.4863 293.01 30.8847 292.236 31.4003 291.533C31.9394 290.83 32.5722 290.256 33.2988 289.811C34.0253 289.365 34.8574 289.143 35.7949 289.143C37.1074 289.143 38.2089 289.271 39.0995 289.529C39.9902 289.787 40.7167 290.186 41.2792 290.725C41.8417 291.24 42.2402 291.92 42.4745 292.764C42.7324 293.584 42.8613 294.557 42.8613 295.682C42.8613 295.752 42.8495 295.893 42.8261 296.104C42.8261 296.291 42.8261 296.49 42.8261 296.701C42.8261 296.912 42.8144 297.123 42.791 297.334C42.791 297.521 42.791 297.662 42.791 297.756C42.6269 298.342 42.3105 298.822 41.8417 299.197C41.3964 299.549 40.8691 299.818 40.2597 300.006C39.6738 300.193 39.0527 300.322 38.3964 300.393C37.7636 300.463 37.1894 300.498 36.6738 300.498C35.9472 300.498 35.1855 300.451 34.3886 300.357C33.5917 300.264 32.8417 300.076 32.1386 299.795C31.4589 299.49 30.8964 299.068 30.4511 298.529C30.0058 297.967 29.7831 297.229 29.7831 296.314ZM31.541 295.857C31.541 296.467 31.7167 296.971 32.0683 297.369C32.4433 297.744 32.8886 298.037 33.4042 298.248C33.9199 298.459 34.4706 298.6 35.0566 298.67C35.666 298.74 36.1816 298.775 36.6035 298.775C37.0253 298.775 37.3886 298.775 37.6933 298.775C38.0214 298.775 38.3378 298.74 38.6425 298.67C38.9472 298.6 39.2636 298.494 39.5917 298.354C39.9199 298.213 40.3066 298.014 40.7519 297.756C40.9863 297.381 41.1152 297.018 41.1386 296.666C41.162 296.291 41.1738 295.904 41.1738 295.506C41.1738 294.709 41.0214 294.006 40.7167 293.396C40.412 292.787 40.0019 292.295 39.4863 291.92C38.9706 291.545 38.3495 291.299 37.623 291.182C36.9199 291.041 36.1347 291.053 35.2675 291.217C34.916 291.287 34.5175 291.498 34.0722 291.85C33.6269 292.201 33.2167 292.611 32.8417 293.08C32.4667 293.549 32.1503 294.041 31.8925 294.557C31.6581 295.049 31.541 295.482 31.541 295.857ZM48.7675 291.287C48.1113 291.287 47.5019 291.346 46.9394 291.463C46.4003 291.557 45.8027 291.604 45.1464 291.604C44.8886 291.604 44.7245 291.51 44.6542 291.322C44.5839 291.111 44.5488 290.912 44.5488 290.725V290.549C44.5956 290.455 44.666 290.338 44.7597 290.197C44.8769 290.057 44.9941 289.928 45.1113 289.811C45.2285 289.67 45.3222 289.553 45.3925 289.459C45.4863 289.365 45.5449 289.318 45.5683 289.318H48.8027V284.045C48.8027 283.951 48.8378 283.881 48.9081 283.834C48.9785 283.787 49.0605 283.752 49.1542 283.729C49.2714 283.682 49.3769 283.658 49.4706 283.658C49.5644 283.635 49.6347 283.623 49.6816 283.623C50.0566 283.623 50.3261 283.764 50.4902 284.045C50.6777 284.303 50.7949 284.631 50.8417 285.029C50.912 285.428 50.9355 285.861 50.912 286.33C50.912 286.799 50.912 287.232 50.912 287.631C50.912 288.029 50.9355 288.381 50.9824 288.686C51.0527 288.967 51.1933 289.119 51.4042 289.143C51.5917 289.166 51.9433 289.213 52.4589 289.283C52.998 289.33 53.5488 289.4 54.1113 289.494C54.6972 289.564 55.248 289.635 55.7636 289.705C56.2792 289.775 56.6542 289.822 56.8886 289.846C56.9355 289.846 57.0175 289.869 57.1347 289.916C57.2753 289.939 57.416 289.963 57.5566 289.986C57.7206 290.01 57.8613 290.045 57.9785 290.092C58.0956 290.139 58.1777 290.174 58.2245 290.197C58.2714 290.197 58.3417 290.244 58.4355 290.338C58.5292 290.432 58.5761 290.502 58.5761 290.549C58.5761 290.713 58.5292 290.865 58.4355 291.006C58.3417 291.146 58.2245 291.264 58.0839 291.357C57.9433 291.428 57.791 291.486 57.6269 291.533C57.4863 291.557 57.3456 291.568 57.205 291.568C57.1581 291.568 57.0292 291.557 56.8183 291.533C56.6074 291.486 56.3847 291.439 56.1503 291.393C55.9394 291.346 55.7285 291.311 55.5175 291.287C55.33 291.24 55.2128 291.217 55.166 291.217H54.8144C54.6035 291.217 54.3808 291.217 54.1464 291.217C53.912 291.217 53.6777 291.217 53.4433 291.217H52.4941C52.33 291.217 52.166 291.217 52.0019 291.217C51.8378 291.217 51.6972 291.217 51.58 291.217H51.4042L51.0527 291.568C51.0527 291.592 51.0527 291.674 51.0527 291.814C51.0527 291.955 51.041 292.119 51.0175 292.307C50.9941 292.494 50.9706 292.693 50.9472 292.904C50.9472 293.092 50.9472 293.244 50.9472 293.361C50.9472 294.627 51.0761 295.623 51.3339 296.35C51.5917 297.076 51.9902 297.627 52.5292 298.002C53.0917 298.354 53.7949 298.576 54.6386 298.67C55.5058 298.74 56.5605 298.775 57.8027 298.775C57.9433 298.775 58.1308 298.775 58.3652 298.775C58.5995 298.775 58.8339 298.775 59.0683 298.775C59.3027 298.775 59.5019 298.775 59.666 298.775C59.83 298.752 59.9238 298.74 59.9472 298.74C59.9706 298.74 60.0292 298.729 60.123 298.705C60.2167 298.658 60.3222 298.623 60.4394 298.6C60.58 298.553 60.6855 298.506 60.7558 298.459C60.8495 298.412 60.9199 298.389 60.9667 298.389C61.0605 298.389 61.1308 298.436 61.1777 298.529C61.248 298.6 61.2949 298.693 61.3183 298.811C61.3417 298.928 61.3535 299.033 61.3535 299.127V299.373C61.3535 299.748 61.2714 300.018 61.1074 300.182C60.9433 300.346 60.5566 300.439 59.9472 300.463H59.3495C59.0683 300.463 58.7753 300.463 58.4706 300.463C58.1894 300.486 57.8964 300.498 57.5917 300.498H57.0644C55.7285 300.498 54.5917 300.451 53.6542 300.357C52.7167 300.24 51.9433 300.064 51.3339 299.83C50.7245 299.572 50.2441 299.232 49.8925 298.811C49.541 298.389 49.2831 297.838 49.1191 297.158C48.9785 296.479 48.8847 295.658 48.8378 294.697C48.791 293.736 48.7675 292.6 48.7675 291.287ZM73.0253 292.904C72.3222 292.904 71.7128 293.033 71.1972 293.291C70.705 293.549 70.2597 293.865 69.8613 294.24C69.4628 294.615 69.123 295.037 68.8417 295.506C68.5605 295.951 68.2792 296.373 67.998 296.771C67.7167 297.146 67.4238 297.463 67.1191 297.721C66.8144 297.979 66.4628 298.107 66.0644 298.107C65.7831 298.107 65.5605 297.99 65.3964 297.756C65.2558 297.521 65.1503 297.275 65.08 297.018C64.7753 296.01 64.4589 294.932 64.1308 293.783C63.8261 292.611 63.5331 291.428 63.2519 290.232C62.9706 289.037 62.7363 287.842 62.5488 286.646C62.3613 285.428 62.2675 284.268 62.2675 283.166V282.955C62.2675 282.838 62.2675 282.721 62.2675 282.604C62.291 282.463 62.3027 282.346 62.3027 282.252V281.971C62.3495 281.76 62.4667 281.654 62.6542 281.654C62.8417 281.631 63.0175 281.619 63.1816 281.619C63.205 281.619 63.287 281.619 63.4277 281.619C63.5917 281.619 63.6855 281.619 63.7089 281.619C63.7558 281.971 63.8378 282.51 63.955 283.236C64.0722 283.963 64.2128 284.771 64.3769 285.662C64.5644 286.553 64.7519 287.479 64.9394 288.439C65.1503 289.377 65.3613 290.232 65.5722 291.006C65.8066 291.779 66.041 292.412 66.2753 292.904C66.5097 293.396 66.7324 293.643 66.9433 293.643C67.2949 293.643 67.705 293.502 68.1738 293.221C68.6425 292.939 69.1347 292.623 69.6503 292.271C70.1894 291.92 70.7519 291.592 71.3378 291.287C71.9472 290.982 72.58 290.83 73.2363 290.83C73.3769 290.83 73.5644 290.842 73.7988 290.865C74.0331 290.865 74.2675 290.877 74.5019 290.9C74.7597 290.924 74.9941 290.959 75.205 291.006C75.4394 291.053 75.5917 291.123 75.662 291.217L78.791 294.311C78.9785 294.498 79.1425 294.838 79.2831 295.33C79.4238 295.822 79.541 296.35 79.6347 296.912C79.7285 297.475 79.787 298.014 79.8105 298.529C79.8339 299.021 79.8456 299.408 79.8456 299.689C79.8456 300.018 79.7402 300.24 79.5292 300.357C79.3183 300.451 79.0722 300.498 78.791 300.498C78.416 300.498 78.1464 300.311 77.9824 299.936C77.8183 299.561 77.666 299.092 77.5253 298.529C77.4081 297.943 77.2675 297.334 77.1035 296.701C76.9394 296.045 76.705 295.436 76.4003 294.873C76.0956 294.287 75.6738 293.818 75.1347 293.467C74.6191 293.092 73.916 292.904 73.0253 292.904ZM81.8495 300.146C81.6855 299.678 81.5331 299.174 81.3925 298.635C81.2753 298.072 81.1699 297.498 81.0761 296.912C81.0058 296.326 80.9472 295.752 80.9003 295.189C80.8535 294.627 80.83 294.1 80.83 293.607C80.83 293.537 80.8417 293.408 80.8652 293.221C80.8886 293.01 80.912 292.799 80.9355 292.588C80.9824 292.377 81.0292 292.178 81.0761 291.99C81.123 291.779 81.1581 291.639 81.1816 291.568C81.205 291.545 81.3105 291.521 81.498 291.498C81.6855 291.475 81.8027 291.463 81.8495 291.463C82.1542 291.463 82.4003 291.627 82.5878 291.955C82.7753 292.283 82.9394 292.705 83.08 293.221C83.2206 293.736 83.3144 294.311 83.3613 294.943C83.4316 295.553 83.4902 296.15 83.537 296.736C83.5839 297.299 83.6074 297.803 83.6074 298.248C83.6074 298.693 83.6074 298.998 83.6074 299.162C83.6074 299.232 83.6074 299.35 83.6074 299.514C83.6308 299.654 83.6308 299.807 83.6074 299.971C83.5839 300.111 83.5253 300.229 83.4316 300.322C83.3613 300.416 83.2324 300.463 83.0449 300.463H82.9042C82.8574 300.463 82.787 300.451 82.6933 300.428C82.5995 300.381 82.4941 300.346 82.3769 300.322C82.2597 300.275 82.1542 300.24 82.0605 300.217C81.9667 300.193 81.8964 300.17 81.8495 300.146ZM81.4628 284.643C81.4628 284.057 81.8378 283.623 82.5878 283.342C82.7519 283.271 82.8925 283.295 83.0097 283.412C83.1503 283.529 83.2558 283.682 83.3261 283.869C83.4199 284.057 83.4785 284.256 83.5019 284.467C83.5488 284.654 83.5722 284.795 83.5722 284.889C83.5722 285.029 83.537 285.146 83.4667 285.24C83.3964 285.311 83.3027 285.357 83.1855 285.381C83.0917 285.404 82.9863 285.416 82.8691 285.416H82.5878C82.2597 285.416 81.9902 285.381 81.7792 285.311C81.5683 285.24 81.4628 285.018 81.4628 284.643ZM93.416 292.904C92.5956 292.904 91.8691 293.057 91.2363 293.361C90.6269 293.643 90.0761 294.018 89.5839 294.486C89.0917 294.955 88.6816 295.459 88.3535 295.998C88.0253 296.514 87.7324 297.006 87.4745 297.475C87.2402 297.943 87.0527 298.33 86.912 298.635C86.7949 298.939 86.7128 299.092 86.666 299.092C86.0331 299.092 85.5878 298.928 85.33 298.6C85.0722 298.271 84.9081 297.873 84.8378 297.404C84.7675 296.912 84.7558 296.408 84.8027 295.893C84.873 295.354 84.9081 294.885 84.9081 294.486V293.889C84.9081 293.607 84.9081 293.314 84.9081 293.01C84.9316 292.705 84.9433 292.424 84.9433 292.166V291.568C85.0136 291.381 85.1074 291.275 85.2245 291.252C85.3417 291.229 85.4706 291.217 85.6113 291.217C85.8222 291.217 85.998 291.346 86.1386 291.604C86.2792 291.838 86.4081 292.131 86.5253 292.482C86.6425 292.834 86.7363 293.186 86.8066 293.537C86.8769 293.865 86.9355 294.123 86.9824 294.311C87.2636 294.264 87.5214 294.146 87.7558 293.959C87.9902 293.771 88.2245 293.549 88.4589 293.291C88.7167 293.033 88.9863 292.764 89.2675 292.482C89.5488 292.201 89.8769 291.943 90.2519 291.709C90.6269 291.451 91.0605 291.24 91.5527 291.076C92.0683 290.912 92.6542 290.83 93.3105 290.83C94.623 290.83 95.7011 291.123 96.5449 291.709C97.3886 292.271 98.0331 293.021 98.4785 293.959C98.9472 294.873 99.2636 295.916 99.4277 297.088C99.5917 298.236 99.6738 299.408 99.6738 300.604C98.9706 300.604 98.4199 300.498 98.0214 300.287C97.6464 300.053 97.3769 299.76 97.2128 299.408C97.0488 299.033 96.955 298.623 96.9316 298.178C96.9081 297.709 96.8964 297.24 96.8964 296.771C96.8964 296.279 96.8613 295.799 96.791 295.33C96.7441 294.861 96.6035 294.451 96.3691 294.1C96.1581 293.748 95.8183 293.467 95.3495 293.256C94.9042 293.021 94.2597 292.904 93.416 292.904ZM100.588 308.971C100.869 308.971 101.127 309.1 101.361 309.357C101.619 309.639 101.865 309.955 102.1 310.307C102.334 310.658 102.557 311.01 102.768 311.361C102.978 311.736 103.201 311.994 103.435 312.135C103.928 312.533 104.478 312.861 105.088 313.119C105.721 313.377 106.365 313.576 107.021 313.717C107.678 313.881 108.334 313.998 108.99 314.068C109.67 314.162 110.326 314.209 110.959 314.209C111.006 314.209 111.088 314.197 111.205 314.174C111.346 314.174 111.486 314.174 111.627 314.174C111.768 314.174 111.896 314.162 112.014 314.139C112.154 314.139 112.248 314.139 112.295 314.139C112.646 313.975 112.916 313.752 113.103 313.471C113.314 313.213 113.455 312.92 113.525 312.592C113.619 312.287 113.678 311.959 113.701 311.607C113.725 311.256 113.736 310.904 113.736 310.553C113.736 310.295 113.713 309.85 113.666 309.217C113.643 308.607 113.596 307.881 113.525 307.037C113.455 306.217 113.361 305.35 113.244 304.436C113.15 303.521 113.01 302.654 112.822 301.834C112.658 301.014 112.447 300.299 112.189 299.689C111.932 299.08 111.639 298.658 111.31 298.424C111.076 298.682 110.842 298.939 110.607 299.197C110.373 299.432 110.103 299.643 109.799 299.83C109.518 300.018 109.225 300.17 108.92 300.287C108.615 300.404 108.275 300.463 107.9 300.463C107.15 300.463 106.353 300.381 105.51 300.217C104.666 300.053 103.881 299.771 103.154 299.373C102.428 298.975 101.83 298.471 101.361 297.861C100.893 297.229 100.658 296.443 100.658 295.506C100.658 294.639 100.893 293.912 101.361 293.326C101.83 292.717 102.404 292.236 103.084 291.885C103.787 291.51 104.549 291.24 105.369 291.076C106.189 290.912 106.963 290.83 107.689 290.83C107.924 290.83 108.205 290.842 108.533 290.865C108.885 290.865 109.236 290.889 109.588 290.936C109.939 290.982 110.268 291.053 110.572 291.146C110.877 291.24 111.123 291.381 111.31 291.568C111.334 291.615 111.357 291.744 111.381 291.955C111.428 292.143 111.463 292.354 111.486 292.588C111.533 292.822 111.568 293.045 111.592 293.256C111.615 293.467 111.627 293.584 111.627 293.607C111.721 294.029 111.85 294.439 112.014 294.838C112.201 295.213 112.4 295.611 112.611 296.033C112.822 296.432 113.021 296.83 113.209 297.229C113.396 297.627 113.549 298.025 113.666 298.424C114.299 300.439 114.814 302.443 115.213 304.436C115.611 306.428 115.81 308.479 115.81 310.588C115.81 310.682 115.799 310.846 115.775 311.08C115.775 311.338 115.775 311.596 115.775 311.854C115.775 312.135 115.764 312.393 115.74 312.627C115.74 312.885 115.74 313.061 115.74 313.154C115.717 313.764 115.529 314.268 115.178 314.666C114.826 315.088 114.393 315.404 113.877 315.615C113.385 315.85 112.846 316.014 112.26 316.107C111.697 316.225 111.193 316.283 110.748 316.283C109.998 316.283 109.213 316.213 108.393 316.072C107.596 315.955 106.822 315.768 106.072 315.51C105.322 315.252 104.607 314.924 103.928 314.525C103.271 314.15 102.697 313.693 102.205 313.154C101.713 312.615 101.314 312.006 101.01 311.326C100.728 310.646 100.588 309.861 100.588 308.971ZM102.697 295.717C102.697 296.186 102.838 296.596 103.119 296.947C103.4 297.299 103.752 297.592 104.174 297.826C104.596 298.037 105.041 298.201 105.51 298.318C105.978 298.412 106.389 298.459 106.74 298.459C108.076 298.459 109.002 298.131 109.518 297.475C110.033 296.795 110.291 295.811 110.291 294.521C110.291 294.146 110.221 293.854 110.08 293.643C109.939 293.408 109.752 293.244 109.518 293.15C109.283 293.057 109.014 292.998 108.709 292.975C108.404 292.928 108.1 292.904 107.795 292.904C107.373 292.904 106.869 292.951 106.283 293.045C105.697 293.115 105.135 293.256 104.596 293.467C104.08 293.678 103.635 293.971 103.26 294.346C102.885 294.697 102.697 295.154 102.697 295.717ZM126.814 295.049C126.814 294.041 127.084 293.221 127.623 292.588C128.162 291.932 128.818 291.428 129.592 291.076C130.389 290.725 131.244 290.49 132.158 290.373C133.096 290.232 133.963 290.162 134.76 290.162H135.182C135.346 290.162 135.533 290.174 135.744 290.197C135.978 290.197 136.189 290.197 136.377 290.197H136.799C137.268 290.268 137.572 290.408 137.713 290.619C137.853 290.807 137.924 291.053 137.924 291.357C137.924 291.732 137.795 292.037 137.537 292.271C137.303 292.506 136.998 292.623 136.623 292.623C136.389 292.623 136.225 292.588 136.131 292.518C136.06 292.424 135.99 292.33 135.92 292.236C135.873 292.143 135.803 292.061 135.709 291.99C135.615 291.896 135.439 291.85 135.182 291.85C134.83 291.85 134.432 291.873 133.986 291.92C133.541 291.967 133.084 292.037 132.615 292.131C132.146 292.225 131.689 292.354 131.244 292.518C130.799 292.682 130.4 292.893 130.049 293.15C129.697 293.408 129.416 293.725 129.205 294.1C128.994 294.451 128.889 294.885 128.889 295.4C128.889 295.822 129.006 296.209 129.24 296.561C129.498 296.889 129.826 297.182 130.225 297.439C130.623 297.697 131.068 297.92 131.56 298.107C132.076 298.271 132.58 298.4 133.072 298.494C133.564 298.588 134.033 298.658 134.478 298.705C134.947 298.752 135.322 298.775 135.603 298.775C136.26 298.775 136.869 298.682 137.432 298.494C137.994 298.283 138.545 298.061 139.084 297.826C139.646 297.592 140.197 297.381 140.736 297.193C141.275 297.006 141.826 296.912 142.389 296.912C142.389 297.756 142.143 298.424 141.65 298.916C141.182 299.408 140.584 299.771 139.857 300.006C139.131 300.24 138.357 300.381 137.537 300.428C136.717 300.475 135.967 300.498 135.287 300.498C134.725 300.498 134.115 300.475 133.459 300.428C132.826 300.357 132.193 300.252 131.56 300.111C130.928 299.947 130.33 299.736 129.768 299.479C129.205 299.221 128.701 298.893 128.256 298.494C127.834 298.072 127.482 297.58 127.201 297.018C126.943 296.455 126.814 295.799 126.814 295.049ZM153.639 292.904C152.935 292.904 152.326 293.033 151.81 293.291C151.318 293.549 150.873 293.865 150.475 294.24C150.076 294.615 149.736 295.037 149.455 295.506C149.174 295.951 148.893 296.373 148.611 296.771C148.33 297.146 148.037 297.463 147.732 297.721C147.428 297.979 147.076 298.107 146.678 298.107C146.396 298.107 146.174 297.99 146.01 297.756C145.869 297.521 145.764 297.275 145.693 297.018C145.389 296.01 145.072 294.932 144.744 293.783C144.439 292.611 144.146 291.428 143.865 290.232C143.584 289.037 143.35 287.842 143.162 286.646C142.975 285.428 142.881 284.268 142.881 283.166V282.955C142.881 282.838 142.881 282.721 142.881 282.604C142.904 282.463 142.916 282.346 142.916 282.252V281.971C142.963 281.76 143.08 281.654 143.268 281.654C143.455 281.631 143.631 281.619 143.795 281.619C143.818 281.619 143.9 281.619 144.041 281.619C144.205 281.619 144.299 281.619 144.322 281.619C144.369 281.971 144.451 282.51 144.568 283.236C144.685 283.963 144.826 284.771 144.99 285.662C145.178 286.553 145.365 287.479 145.553 288.439C145.764 289.377 145.975 290.232 146.185 291.006C146.42 291.779 146.654 292.412 146.889 292.904C147.123 293.396 147.346 293.643 147.557 293.643C147.908 293.643 148.318 293.502 148.787 293.221C149.256 292.939 149.748 292.623 150.264 292.271C150.803 291.92 151.365 291.592 151.951 291.287C152.56 290.982 153.193 290.83 153.85 290.83C153.99 290.83 154.178 290.842 154.412 290.865C154.646 290.865 154.881 290.877 155.115 290.9C155.373 290.924 155.607 290.959 155.818 291.006C156.053 291.053 156.205 291.123 156.275 291.217L159.404 294.311C159.592 294.498 159.756 294.838 159.896 295.33C160.037 295.822 160.154 296.35 160.248 296.912C160.342 297.475 160.4 298.014 160.424 298.529C160.447 299.021 160.459 299.408 160.459 299.689C160.459 300.018 160.353 300.24 160.143 300.357C159.932 300.451 159.685 300.498 159.404 300.498C159.029 300.498 158.76 300.311 158.596 299.936C158.432 299.561 158.279 299.092 158.139 298.529C158.021 297.943 157.881 297.334 157.717 296.701C157.553 296.045 157.318 295.436 157.014 294.873C156.709 294.287 156.287 293.818 155.748 293.467C155.232 293.092 154.529 292.904 153.639 292.904ZM171.182 298.74C170.807 298.74 170.408 298.799 169.986 298.916C169.588 299.01 169.189 299.127 168.791 299.268C168.393 299.408 167.971 299.537 167.525 299.654C167.103 299.748 166.67 299.795 166.225 299.795C165.545 299.795 164.889 299.689 164.256 299.479C163.623 299.268 163.06 298.951 162.568 298.529C162.1 298.107 161.725 297.604 161.443 297.018C161.162 296.408 161.021 295.729 161.021 294.979C161.021 294.322 161.221 293.713 161.619 293.15C162.041 292.588 162.557 292.119 163.166 291.744C163.775 291.369 164.432 291.076 165.135 290.865C165.838 290.654 166.471 290.549 167.033 290.549C167.291 290.549 167.607 290.572 167.982 290.619C168.381 290.643 168.803 290.701 169.248 290.795C169.717 290.865 170.185 290.971 170.654 291.111C171.123 291.229 171.545 291.393 171.92 291.604C172.318 291.814 172.646 292.061 172.904 292.342C173.185 292.6 173.35 292.904 173.396 293.256C173.396 293.373 173.373 293.584 173.326 293.889C173.279 294.17 173.244 294.475 173.221 294.803C173.197 295.131 173.162 295.447 173.115 295.752C173.092 296.033 173.068 296.244 173.045 296.385V296.596C173.045 297.111 173.162 297.498 173.396 297.756C173.631 298.014 173.912 298.201 174.24 298.318C174.592 298.412 174.955 298.459 175.33 298.459H176.455C176.807 298.459 177.029 298.459 177.123 298.459C177.217 298.436 177.275 298.424 177.299 298.424C177.346 298.424 177.404 298.424 177.475 298.424C177.568 298.4 177.803 298.389 178.178 298.389C178.482 298.389 178.717 298.447 178.881 298.564C179.045 298.682 179.127 298.928 179.127 299.303C179.127 299.701 178.998 299.982 178.74 300.146C178.482 300.311 178.178 300.416 177.826 300.463C177.475 300.533 177.123 300.557 176.771 300.533C176.42 300.51 176.15 300.498 175.963 300.498C175.424 300.498 174.908 300.404 174.416 300.217C173.947 300.029 173.514 299.83 173.115 299.619C172.717 299.385 172.353 299.186 172.025 299.021C171.697 298.834 171.416 298.74 171.182 298.74ZM163.096 295.33C163.096 295.893 163.213 296.35 163.447 296.701C163.705 297.029 164.01 297.275 164.361 297.439C164.736 297.58 165.146 297.674 165.592 297.721C166.037 297.744 166.471 297.756 166.893 297.756C167.057 297.756 167.326 297.744 167.701 297.721C168.1 297.697 168.51 297.65 168.932 297.58C169.353 297.486 169.728 297.369 170.057 297.229C170.408 297.088 170.607 296.912 170.654 296.701L171.357 293.959C171.404 293.771 171.357 293.607 171.217 293.467C171.076 293.326 170.877 293.209 170.619 293.115C170.385 293.021 170.115 292.939 169.81 292.869C169.529 292.799 169.248 292.74 168.967 292.693C168.685 292.646 168.428 292.611 168.193 292.588C167.982 292.564 167.853 292.553 167.807 292.553C167.385 292.553 166.893 292.6 166.33 292.693C165.791 292.764 165.275 292.904 164.783 293.115C164.314 293.303 163.916 293.572 163.588 293.924C163.26 294.275 163.096 294.744 163.096 295.33ZM187.81 292.904C186.99 292.904 186.264 293.057 185.631 293.361C185.021 293.643 184.471 294.018 183.978 294.486C183.486 294.955 183.076 295.459 182.748 295.998C182.42 296.514 182.127 297.006 181.869 297.475C181.635 297.943 181.447 298.33 181.307 298.635C181.189 298.939 181.107 299.092 181.06 299.092C180.428 299.092 179.982 298.928 179.725 298.6C179.467 298.271 179.303 297.873 179.232 297.404C179.162 296.912 179.15 296.408 179.197 295.893C179.268 295.354 179.303 294.885 179.303 294.486V293.889C179.303 293.607 179.303 293.314 179.303 293.01C179.326 292.705 179.338 292.424 179.338 292.166V291.568C179.408 291.381 179.502 291.275 179.619 291.252C179.736 291.229 179.865 291.217 180.006 291.217C180.217 291.217 180.393 291.346 180.533 291.604C180.674 291.838 180.803 292.131 180.92 292.482C181.037 292.834 181.131 293.186 181.201 293.537C181.271 293.865 181.33 294.123 181.377 294.311C181.658 294.264 181.916 294.146 182.15 293.959C182.385 293.771 182.619 293.549 182.853 293.291C183.111 293.033 183.381 292.764 183.662 292.482C183.943 292.201 184.271 291.943 184.646 291.709C185.021 291.451 185.455 291.24 185.947 291.076C186.463 290.912 187.049 290.83 187.705 290.83C189.018 290.83 190.096 291.123 190.939 291.709C191.783 292.271 192.428 293.021 192.873 293.959C193.342 294.873 193.658 295.916 193.822 297.088C193.986 298.236 194.068 299.408 194.068 300.604C193.365 300.604 192.814 300.498 192.416 300.287C192.041 300.053 191.771 299.76 191.607 299.408C191.443 299.033 191.35 298.623 191.326 298.178C191.303 297.709 191.291 297.24 191.291 296.771C191.291 296.279 191.256 295.799 191.185 295.33C191.139 294.861 190.998 294.451 190.764 294.1C190.553 293.748 190.213 293.467 189.744 293.256C189.299 293.021 188.654 292.904 187.81 292.904ZM194.982 308.971C195.264 308.971 195.521 309.1 195.756 309.357C196.014 309.639 196.26 309.955 196.494 310.307C196.728 310.658 196.951 311.01 197.162 311.361C197.373 311.736 197.596 311.994 197.83 312.135C198.322 312.533 198.873 312.861 199.482 313.119C200.115 313.377 200.76 313.576 201.416 313.717C202.072 313.881 202.728 313.998 203.385 314.068C204.064 314.162 204.721 314.209 205.353 314.209C205.4 314.209 205.482 314.197 205.6 314.174C205.74 314.174 205.881 314.174 206.021 314.174C206.162 314.174 206.291 314.162 206.408 314.139C206.549 314.139 206.643 314.139 206.689 314.139C207.041 313.975 207.31 313.752 207.498 313.471C207.709 313.213 207.85 312.92 207.92 312.592C208.014 312.287 208.072 311.959 208.096 311.607C208.119 311.256 208.131 310.904 208.131 310.553C208.131 310.295 208.107 309.85 208.06 309.217C208.037 308.607 207.99 307.881 207.92 307.037C207.85 306.217 207.756 305.35 207.639 304.436C207.545 303.521 207.404 302.654 207.217 301.834C207.053 301.014 206.842 300.299 206.584 299.689C206.326 299.08 206.033 298.658 205.705 298.424C205.471 298.682 205.236 298.939 205.002 299.197C204.768 299.432 204.498 299.643 204.193 299.83C203.912 300.018 203.619 300.17 203.314 300.287C203.01 300.404 202.67 300.463 202.295 300.463C201.545 300.463 200.748 300.381 199.904 300.217C199.06 300.053 198.275 299.771 197.549 299.373C196.822 298.975 196.225 298.471 195.756 297.861C195.287 297.229 195.053 296.443 195.053 295.506C195.053 294.639 195.287 293.912 195.756 293.326C196.225 292.717 196.799 292.236 197.478 291.885C198.182 291.51 198.943 291.24 199.764 291.076C200.584 290.912 201.357 290.83 202.084 290.83C202.318 290.83 202.6 290.842 202.928 290.865C203.279 290.865 203.631 290.889 203.982 290.936C204.334 290.982 204.662 291.053 204.967 291.146C205.271 291.24 205.518 291.381 205.705 291.568C205.728 291.615 205.752 291.744 205.775 291.955C205.822 292.143 205.857 292.354 205.881 292.588C205.928 292.822 205.963 293.045 205.986 293.256C206.01 293.467 206.021 293.584 206.021 293.607C206.115 294.029 206.244 294.439 206.408 294.838C206.596 295.213 206.795 295.611 207.006 296.033C207.217 296.432 207.416 296.83 207.603 297.229C207.791 297.627 207.943 298.025 208.06 298.424C208.693 300.439 209.209 302.443 209.607 304.436C210.006 306.428 210.205 308.479 210.205 310.588C210.205 310.682 210.193 310.846 210.17 311.08C210.17 311.338 210.17 311.596 210.17 311.854C210.17 312.135 210.158 312.393 210.135 312.627C210.135 312.885 210.135 313.061 210.135 313.154C210.111 313.764 209.924 314.268 209.572 314.666C209.221 315.088 208.787 315.404 208.271 315.615C207.779 315.85 207.24 316.014 206.654 316.107C206.092 316.225 205.588 316.283 205.143 316.283C204.393 316.283 203.607 316.213 202.787 316.072C201.99 315.955 201.217 315.768 200.467 315.51C199.717 315.252 199.002 314.924 198.322 314.525C197.666 314.15 197.092 313.693 196.6 313.154C196.107 312.615 195.709 312.006 195.404 311.326C195.123 310.646 194.982 309.861 194.982 308.971ZM197.092 295.717C197.092 296.186 197.232 296.596 197.514 296.947C197.795 297.299 198.146 297.592 198.568 297.826C198.99 298.037 199.435 298.201 199.904 298.318C200.373 298.412 200.783 298.459 201.135 298.459C202.471 298.459 203.396 298.131 203.912 297.475C204.428 296.795 204.685 295.811 204.685 294.521C204.685 294.146 204.615 293.854 204.475 293.643C204.334 293.408 204.146 293.244 203.912 293.15C203.678 293.057 203.408 292.998 203.103 292.975C202.799 292.928 202.494 292.904 202.189 292.904C201.768 292.904 201.264 292.951 200.678 293.045C200.092 293.115 199.529 293.256 198.99 293.467C198.475 293.678 198.029 293.971 197.654 294.346C197.279 294.697 197.092 295.154 197.092 295.717ZM210.135 294.275C210.135 293.479 210.357 292.705 210.803 291.955C211.248 291.205 211.81 290.549 212.49 289.986C213.193 289.424 213.955 288.979 214.775 288.65C215.619 288.322 216.416 288.158 217.166 288.158C217.775 288.158 218.373 288.24 218.959 288.404C219.568 288.545 220.107 288.779 220.576 289.107C221.045 289.436 221.42 289.846 221.701 290.338C222.006 290.807 222.158 291.369 222.158 292.025C222.158 292.33 222.135 292.576 222.088 292.764C222.064 292.928 221.994 293.08 221.877 293.221C221.76 293.338 221.607 293.455 221.42 293.572C221.256 293.666 221.045 293.795 220.787 293.959C220.646 293.982 220.435 294.041 220.154 294.135C219.873 294.205 219.545 294.287 219.17 294.381C218.818 294.475 218.443 294.568 218.045 294.662C217.646 294.756 217.26 294.85 216.885 294.943C216.533 295.037 216.217 295.119 215.935 295.189C215.654 295.26 215.443 295.307 215.303 295.33C215.232 295.354 215.08 295.377 214.846 295.4C214.611 295.424 214.353 295.459 214.072 295.506C213.814 295.529 213.568 295.564 213.334 295.611C213.1 295.635 212.959 295.658 212.912 295.682C212.842 295.705 212.76 295.764 212.666 295.857C212.596 295.928 212.56 295.975 212.56 295.998C212.56 296.467 212.689 296.865 212.947 297.193C213.205 297.498 213.533 297.756 213.932 297.967C214.33 298.178 214.775 298.342 215.268 298.459C215.783 298.553 216.287 298.635 216.779 298.705C217.271 298.752 217.728 298.775 218.15 298.775C218.572 298.775 218.912 298.775 219.17 298.775C220.342 298.775 221.49 298.717 222.615 298.6C223.74 298.459 224.889 298.389 226.06 298.389V298.67C226.06 298.811 226.037 298.963 225.99 299.127C225.967 299.268 225.92 299.408 225.85 299.549C225.779 299.666 225.685 299.736 225.568 299.76C224.678 299.947 223.881 300.1 223.178 300.217C222.498 300.311 221.853 300.381 221.244 300.428C220.635 300.451 220.002 300.463 219.346 300.463C218.689 300.486 217.963 300.498 217.166 300.498H216.568C216.31 300.498 216.029 300.486 215.725 300.463C215.42 300.463 215.127 300.463 214.846 300.463H214.248C213.521 300.275 212.889 299.982 212.35 299.584C211.834 299.162 211.412 298.67 211.084 298.107C210.756 297.545 210.51 296.936 210.346 296.279C210.205 295.623 210.135 294.955 210.135 294.275ZM218.01 290.127C217.705 290.127 217.353 290.162 216.955 290.232C216.58 290.279 216.182 290.373 215.76 290.514C215.361 290.631 214.963 290.795 214.564 291.006C214.166 291.193 213.814 291.428 213.51 291.709C213.205 291.967 212.947 292.26 212.736 292.588C212.549 292.916 212.455 293.279 212.455 293.678H213.896C214.412 293.678 214.939 293.654 215.478 293.607C216.018 293.561 216.545 293.49 217.06 293.396C217.576 293.279 218.021 293.115 218.396 292.904C218.795 292.67 219.111 292.377 219.346 292.025C219.603 291.674 219.732 291.24 219.732 290.725V290.549L219.381 290.197C219.334 290.197 219.24 290.197 219.1 290.197C218.982 290.174 218.853 290.162 218.713 290.162C218.572 290.139 218.432 290.127 218.291 290.127C218.174 290.127 218.08 290.127 218.01 290.127ZM230.314 298.318V297.58C230.314 297.275 230.338 296.982 230.385 296.701C230.432 296.42 230.525 296.174 230.666 295.963C230.807 295.752 231.006 295.646 231.264 295.646V295.682H231.369L232.072 298.389C232.072 298.482 232.119 298.553 232.213 298.6C232.307 298.646 232.4 298.693 232.494 298.74C232.611 298.764 232.717 298.775 232.81 298.775C232.928 298.775 233.021 298.775 233.092 298.775C233.139 298.775 233.197 298.775 233.268 298.775C233.361 298.752 233.42 298.74 233.443 298.74C233.584 298.717 233.853 298.658 234.252 298.564C234.65 298.447 235.06 298.342 235.482 298.248C235.928 298.154 236.338 298.061 236.713 297.967C237.111 297.85 237.393 297.779 237.557 297.756C237.674 297.568 237.85 297.404 238.084 297.264C238.318 297.1 238.553 296.947 238.787 296.807C239.021 296.666 239.221 296.514 239.385 296.35C239.549 296.186 239.631 295.975 239.631 295.717C239.631 295.131 239.478 294.662 239.174 294.311C238.893 293.959 238.518 293.701 238.049 293.537C237.603 293.35 237.123 293.221 236.607 293.15C236.092 293.08 235.6 293.01 235.131 292.939C234.943 292.916 234.639 292.881 234.217 292.834C233.818 292.764 233.361 292.693 232.846 292.623C232.33 292.553 231.791 292.482 231.228 292.412C230.666 292.318 230.115 292.248 229.576 292.201C229.06 292.131 228.592 292.072 228.17 292.025C227.771 291.979 227.478 291.943 227.291 291.92C227.15 291.826 226.998 291.662 226.834 291.428C226.67 291.193 226.588 291.006 226.588 290.865C226.588 290.467 226.799 290.104 227.221 289.775C227.666 289.424 228.217 289.107 228.873 288.826C229.529 288.545 230.268 288.299 231.088 288.088C231.932 287.877 232.752 287.689 233.549 287.525C234.369 287.361 235.119 287.244 235.799 287.174C236.502 287.104 237.041 287.068 237.416 287.068C237.697 287.068 237.955 287.162 238.189 287.35C238.447 287.537 238.576 287.807 238.576 288.158C238.576 288.439 238.494 288.65 238.33 288.791C238.189 288.908 238.002 288.99 237.768 289.037C237.557 289.061 237.334 289.084 237.1 289.107C236.889 289.107 236.689 289.119 236.502 289.143C236.127 289.213 235.646 289.307 235.06 289.424C234.498 289.541 233.935 289.658 233.373 289.775C232.81 289.893 232.342 289.986 231.967 290.057L231.369 290.197V290.584C231.814 290.584 232.377 290.596 233.057 290.619C233.736 290.643 234.463 290.701 235.236 290.795C236.01 290.889 236.771 291.041 237.521 291.252C238.295 291.439 238.986 291.709 239.596 292.061C240.205 292.389 240.697 292.811 241.072 293.326C241.471 293.818 241.67 294.428 241.67 295.154C241.67 296.139 241.4 296.971 240.861 297.65C240.322 298.33 239.643 298.881 238.822 299.303C238.002 299.725 237.111 300.029 236.15 300.217C235.189 300.404 234.299 300.498 233.478 300.498C233.15 300.498 232.799 300.475 232.424 300.428C232.049 300.357 231.697 300.24 231.369 300.076C231.064 299.912 230.807 299.689 230.596 299.408C230.408 299.127 230.314 298.764 230.314 298.318ZM255.838 300.146C255.674 299.678 255.521 299.174 255.381 298.635C255.264 298.072 255.158 297.498 255.064 296.912C254.994 296.326 254.935 295.752 254.889 295.189C254.842 294.627 254.818 294.1 254.818 293.607C254.818 293.537 254.83 293.408 254.853 293.221C254.877 293.01 254.9 292.799 254.924 292.588C254.971 292.377 255.018 292.178 255.064 291.99C255.111 291.779 255.146 291.639 255.17 291.568C255.193 291.545 255.299 291.521 255.486 291.498C255.674 291.475 255.791 291.463 255.838 291.463C256.143 291.463 256.389 291.627 256.576 291.955C256.764 292.283 256.928 292.705 257.068 293.221C257.209 293.736 257.303 294.311 257.35 294.943C257.42 295.553 257.478 296.15 257.525 296.736C257.572 297.299 257.596 297.803 257.596 298.248C257.596 298.693 257.596 298.998 257.596 299.162C257.596 299.232 257.596 299.35 257.596 299.514C257.619 299.654 257.619 299.807 257.596 299.971C257.572 300.111 257.514 300.229 257.42 300.322C257.35 300.416 257.221 300.463 257.033 300.463H256.893C256.846 300.463 256.775 300.451 256.682 300.428C256.588 300.381 256.482 300.346 256.365 300.322C256.248 300.275 256.143 300.24 256.049 300.217C255.955 300.193 255.885 300.17 255.838 300.146ZM255.451 284.643C255.451 284.057 255.826 283.623 256.576 283.342C256.74 283.271 256.881 283.295 256.998 283.412C257.139 283.529 257.244 283.682 257.314 283.869C257.408 284.057 257.467 284.256 257.49 284.467C257.537 284.654 257.56 284.795 257.56 284.889C257.56 285.029 257.525 285.146 257.455 285.24C257.385 285.311 257.291 285.357 257.174 285.381C257.08 285.404 256.975 285.416 256.857 285.416H256.576C256.248 285.416 255.978 285.381 255.768 285.311C255.557 285.24 255.451 285.018 255.451 284.643ZM258.896 289.494C258.896 288.627 258.92 287.76 258.967 286.893C259.014 286.002 259.119 285.146 259.283 284.326C259.447 283.506 259.67 282.744 259.951 282.041C260.256 281.338 260.654 280.729 261.146 280.213C261.662 279.674 262.295 279.252 263.045 278.947C263.795 278.643 264.685 278.49 265.717 278.49C266.373 278.49 266.982 278.572 267.545 278.736C268.131 278.877 268.646 279.111 269.092 279.439C269.537 279.744 269.9 280.154 270.182 280.67C270.463 281.162 270.603 281.76 270.603 282.463C270.603 282.65 270.58 282.873 270.533 283.131C270.486 283.365 270.416 283.611 270.322 283.869C270.228 284.104 270.1 284.314 269.935 284.502C269.795 284.666 269.607 284.748 269.373 284.748C269.326 284.748 269.291 284.748 269.268 284.748C269.244 284.748 269.221 284.736 269.197 284.713L269.021 284.537C268.928 284.443 268.869 284.385 268.846 284.361C268.869 284.268 268.893 284.127 268.916 283.939C268.963 283.752 268.998 283.553 269.021 283.342C269.068 283.131 269.103 282.932 269.127 282.744C269.15 282.533 269.174 282.393 269.197 282.322V281.936C269.197 281.561 269.057 281.268 268.775 281.057C268.518 280.822 268.201 280.646 267.826 280.529C267.475 280.389 267.1 280.295 266.701 280.248C266.326 280.201 266.021 280.178 265.787 280.178C264.92 280.178 264.193 280.33 263.607 280.635C263.045 280.939 262.576 281.35 262.201 281.865C261.85 282.381 261.568 282.979 261.357 283.658C261.146 284.314 260.994 285.006 260.9 285.732C260.807 286.436 260.748 287.15 260.725 287.877C260.701 288.58 260.678 289.236 260.654 289.846C260.725 290.033 260.807 290.221 260.9 290.408C260.994 290.596 261.135 290.748 261.322 290.865C262.564 290.818 263.865 290.818 265.225 290.865C266.607 290.889 267.932 291.006 269.197 291.217C269.314 291.24 269.396 291.311 269.443 291.428C269.514 291.521 269.56 291.639 269.584 291.779C269.631 291.92 269.654 292.061 269.654 292.201C269.678 292.318 269.689 292.4 269.689 292.447C269.549 292.447 269.303 292.459 268.951 292.482C268.623 292.482 268.248 292.494 267.826 292.518C267.404 292.518 266.959 292.529 266.49 292.553C266.045 292.553 265.611 292.553 265.189 292.553C264.768 292.553 264.393 292.564 264.064 292.588C263.736 292.588 263.502 292.588 263.361 292.588H262.904C262.717 292.588 262.494 292.611 262.236 292.658C261.978 292.705 261.721 292.775 261.463 292.869C261.228 292.963 261.064 293.092 260.971 293.256V293.607L262.693 303.557C262.717 303.721 262.693 303.861 262.623 303.979C262.553 304.119 262.447 304.236 262.307 304.33C262.166 304.424 262.025 304.482 261.885 304.506C261.744 304.553 261.615 304.576 261.498 304.576C261.076 304.576 260.725 304.271 260.443 303.662C260.162 303.053 259.928 302.268 259.74 301.307C259.553 300.369 259.4 299.314 259.283 298.143C259.166 296.971 259.072 295.834 259.002 294.732C258.955 293.607 258.92 292.576 258.896 291.639C258.896 290.701 258.896 289.986 258.896 289.494ZM291.521 292.904C290.701 292.904 289.975 293.057 289.342 293.361C288.732 293.643 288.182 294.018 287.689 294.486C287.197 294.955 286.787 295.459 286.459 295.998C286.131 296.514 285.838 297.006 285.58 297.475C285.346 297.943 285.158 298.33 285.018 298.635C284.9 298.939 284.818 299.092 284.771 299.092C284.139 299.092 283.693 298.928 283.435 298.6C283.178 298.271 283.014 297.873 282.943 297.404C282.873 296.912 282.861 296.408 282.908 295.893C282.978 295.354 283.014 294.885 283.014 294.486V293.889C283.014 293.607 283.014 293.314 283.014 293.01C283.037 292.705 283.049 292.424 283.049 292.166V291.568C283.119 291.381 283.213 291.275 283.33 291.252C283.447 291.229 283.576 291.217 283.717 291.217C283.928 291.217 284.103 291.346 284.244 291.604C284.385 291.838 284.514 292.131 284.631 292.482C284.748 292.834 284.842 293.186 284.912 293.537C284.982 293.865 285.041 294.123 285.088 294.311C285.369 294.264 285.627 294.146 285.861 293.959C286.096 293.771 286.33 293.549 286.564 293.291C286.822 293.033 287.092 292.764 287.373 292.482C287.654 292.201 287.982 291.943 288.357 291.709C288.732 291.451 289.166 291.24 289.658 291.076C290.174 290.912 290.76 290.83 291.416 290.83C292.728 290.83 293.807 291.123 294.65 291.709C295.494 292.271 296.139 293.021 296.584 293.959C297.053 294.873 297.369 295.916 297.533 297.088C297.697 298.236 297.779 299.408 297.779 300.604C297.076 300.604 296.525 300.498 296.127 300.287C295.752 300.053 295.482 299.76 295.318 299.408C295.154 299.033 295.06 298.623 295.037 298.178C295.014 297.709 295.002 297.24 295.002 296.771C295.002 296.279 294.967 295.799 294.896 295.33C294.85 294.861 294.709 294.451 294.475 294.1C294.264 293.748 293.924 293.467 293.455 293.256C293.01 293.021 292.365 292.904 291.521 292.904ZM298.764 296.314C298.764 295.518 298.904 294.697 299.185 293.854C299.467 293.01 299.865 292.236 300.381 291.533C300.92 290.83 301.553 290.256 302.279 289.811C303.006 289.365 303.838 289.143 304.775 289.143C306.088 289.143 307.189 289.271 308.08 289.529C308.971 289.787 309.697 290.186 310.26 290.725C310.822 291.24 311.221 291.92 311.455 292.764C311.713 293.584 311.842 294.557 311.842 295.682C311.842 295.752 311.83 295.893 311.807 296.104C311.807 296.291 311.807 296.49 311.807 296.701C311.807 296.912 311.795 297.123 311.771 297.334C311.771 297.521 311.771 297.662 311.771 297.756C311.607 298.342 311.291 298.822 310.822 299.197C310.377 299.549 309.85 299.818 309.24 300.006C308.654 300.193 308.033 300.322 307.377 300.393C306.744 300.463 306.17 300.498 305.654 300.498C304.928 300.498 304.166 300.451 303.369 300.357C302.572 300.264 301.822 300.076 301.119 299.795C300.439 299.49 299.877 299.068 299.432 298.529C298.986 297.967 298.764 297.229 298.764 296.314ZM300.521 295.857C300.521 296.467 300.697 296.971 301.049 297.369C301.424 297.744 301.869 298.037 302.385 298.248C302.9 298.459 303.451 298.6 304.037 298.67C304.646 298.74 305.162 298.775 305.584 298.775C306.006 298.775 306.369 298.775 306.674 298.775C307.002 298.775 307.318 298.74 307.623 298.67C307.928 298.6 308.244 298.494 308.572 298.354C308.9 298.213 309.287 298.014 309.732 297.756C309.967 297.381 310.096 297.018 310.119 296.666C310.143 296.291 310.154 295.904 310.154 295.506C310.154 294.709 310.002 294.006 309.697 293.396C309.393 292.787 308.982 292.295 308.467 291.92C307.951 291.545 307.33 291.299 306.603 291.182C305.9 291.041 305.115 291.053 304.248 291.217C303.896 291.287 303.498 291.498 303.053 291.85C302.607 292.201 302.197 292.611 301.822 293.08C301.447 293.549 301.131 294.041 300.873 294.557C300.639 295.049 300.521 295.482 300.521 295.857ZM317.748 291.287C317.092 291.287 316.482 291.346 315.92 291.463C315.381 291.557 314.783 291.604 314.127 291.604C313.869 291.604 313.705 291.51 313.635 291.322C313.564 291.111 313.529 290.912 313.529 290.725V290.549C313.576 290.455 313.646 290.338 313.74 290.197C313.857 290.057 313.975 289.928 314.092 289.811C314.209 289.67 314.303 289.553 314.373 289.459C314.467 289.365 314.525 289.318 314.549 289.318H317.783V284.045C317.783 283.951 317.818 283.881 317.889 283.834C317.959 283.787 318.041 283.752 318.135 283.729C318.252 283.682 318.357 283.658 318.451 283.658C318.545 283.635 318.615 283.623 318.662 283.623C319.037 283.623 319.307 283.764 319.471 284.045C319.658 284.303 319.775 284.631 319.822 285.029C319.893 285.428 319.916 285.861 319.893 286.33C319.893 286.799 319.893 287.232 319.893 287.631C319.893 288.029 319.916 288.381 319.963 288.686C320.033 288.967 320.174 289.119 320.385 289.143C320.572 289.166 320.924 289.213 321.439 289.283C321.978 289.33 322.529 289.4 323.092 289.494C323.678 289.564 324.228 289.635 324.744 289.705C325.26 289.775 325.635 289.822 325.869 289.846C325.916 289.846 325.998 289.869 326.115 289.916C326.256 289.939 326.396 289.963 326.537 289.986C326.701 290.01 326.842 290.045 326.959 290.092C327.076 290.139 327.158 290.174 327.205 290.197C327.252 290.197 327.322 290.244 327.416 290.338C327.51 290.432 327.557 290.502 327.557 290.549C327.557 290.713 327.51 290.865 327.416 291.006C327.322 291.146 327.205 291.264 327.064 291.357C326.924 291.428 326.771 291.486 326.607 291.533C326.467 291.557 326.326 291.568 326.185 291.568C326.139 291.568 326.01 291.557 325.799 291.533C325.588 291.486 325.365 291.439 325.131 291.393C324.92 291.346 324.709 291.311 324.498 291.287C324.31 291.24 324.193 291.217 324.146 291.217H323.795C323.584 291.217 323.361 291.217 323.127 291.217C322.893 291.217 322.658 291.217 322.424 291.217H321.475C321.31 291.217 321.146 291.217 320.982 291.217C320.818 291.217 320.678 291.217 320.56 291.217H320.385L320.033 291.568C320.033 291.592 320.033 291.674 320.033 291.814C320.033 291.955 320.021 292.119 319.998 292.307C319.975 292.494 319.951 292.693 319.928 292.904C319.928 293.092 319.928 293.244 319.928 293.361C319.928 294.627 320.057 295.623 320.314 296.35C320.572 297.076 320.971 297.627 321.51 298.002C322.072 298.354 322.775 298.576 323.619 298.67C324.486 298.74 325.541 298.775 326.783 298.775C326.924 298.775 327.111 298.775 327.346 298.775C327.58 298.775 327.814 298.775 328.049 298.775C328.283 298.775 328.482 298.775 328.646 298.775C328.81 298.752 328.904 298.74 328.928 298.74C328.951 298.74 329.01 298.729 329.103 298.705C329.197 298.658 329.303 298.623 329.42 298.6C329.56 298.553 329.666 298.506 329.736 298.459C329.83 298.412 329.9 298.389 329.947 298.389C330.041 298.389 330.111 298.436 330.158 298.529C330.228 298.6 330.275 298.693 330.299 298.811C330.322 298.928 330.334 299.033 330.334 299.127V299.373C330.334 299.748 330.252 300.018 330.088 300.182C329.924 300.346 329.537 300.439 328.928 300.463H328.33C328.049 300.463 327.756 300.463 327.451 300.463C327.17 300.486 326.877 300.498 326.572 300.498H326.045C324.709 300.498 323.572 300.451 322.635 300.357C321.697 300.24 320.924 300.064 320.314 299.83C319.705 299.572 319.225 299.232 318.873 298.811C318.521 298.389 318.264 297.838 318.1 297.158C317.959 296.479 317.865 295.658 317.818 294.697C317.771 293.736 317.748 292.6 317.748 291.287ZM342.006 292.904C341.303 292.904 340.693 293.033 340.178 293.291C339.685 293.549 339.24 293.865 338.842 294.24C338.443 294.615 338.103 295.037 337.822 295.506C337.541 295.951 337.26 296.373 336.978 296.771C336.697 297.146 336.404 297.463 336.1 297.721C335.795 297.979 335.443 298.107 335.045 298.107C334.764 298.107 334.541 297.99 334.377 297.756C334.236 297.521 334.131 297.275 334.06 297.018C333.756 296.01 333.439 294.932 333.111 293.783C332.807 292.611 332.514 291.428 332.232 290.232C331.951 289.037 331.717 287.842 331.529 286.646C331.342 285.428 331.248 284.268 331.248 283.166V282.955C331.248 282.838 331.248 282.721 331.248 282.604C331.271 282.463 331.283 282.346 331.283 282.252V281.971C331.33 281.76 331.447 281.654 331.635 281.654C331.822 281.631 331.998 281.619 332.162 281.619C332.185 281.619 332.268 281.619 332.408 281.619C332.572 281.619 332.666 281.619 332.689 281.619C332.736 281.971 332.818 282.51 332.935 283.236C333.053 283.963 333.193 284.771 333.357 285.662C333.545 286.553 333.732 287.479 333.92 288.439C334.131 289.377 334.342 290.232 334.553 291.006C334.787 291.779 335.021 292.412 335.256 292.904C335.49 293.396 335.713 293.643 335.924 293.643C336.275 293.643 336.685 293.502 337.154 293.221C337.623 292.939 338.115 292.623 338.631 292.271C339.17 291.92 339.732 291.592 340.318 291.287C340.928 290.982 341.56 290.83 342.217 290.83C342.357 290.83 342.545 290.842 342.779 290.865C343.014 290.865 343.248 290.877 343.482 290.9C343.74 290.924 343.975 290.959 344.185 291.006C344.42 291.053 344.572 291.123 344.643 291.217L347.771 294.311C347.959 294.498 348.123 294.838 348.264 295.33C348.404 295.822 348.521 296.35 348.615 296.912C348.709 297.475 348.768 298.014 348.791 298.529C348.814 299.021 348.826 299.408 348.826 299.689C348.826 300.018 348.721 300.24 348.51 300.357C348.299 300.451 348.053 300.498 347.771 300.498C347.396 300.498 347.127 300.311 346.963 299.936C346.799 299.561 346.646 299.092 346.506 298.529C346.389 297.943 346.248 297.334 346.084 296.701C345.92 296.045 345.685 295.436 345.381 294.873C345.076 294.287 344.654 293.818 344.115 293.467C343.6 293.092 342.896 292.904 342.006 292.904ZM350.83 300.146C350.666 299.678 350.514 299.174 350.373 298.635C350.256 298.072 350.15 297.498 350.057 296.912C349.986 296.326 349.928 295.752 349.881 295.189C349.834 294.627 349.81 294.1 349.81 293.607C349.81 293.537 349.822 293.408 349.846 293.221C349.869 293.01 349.893 292.799 349.916 292.588C349.963 292.377 350.01 292.178 350.057 291.99C350.103 291.779 350.139 291.639 350.162 291.568C350.185 291.545 350.291 291.521 350.478 291.498C350.666 291.475 350.783 291.463 350.83 291.463C351.135 291.463 351.381 291.627 351.568 291.955C351.756 292.283 351.92 292.705 352.06 293.221C352.201 293.736 352.295 294.311 352.342 294.943C352.412 295.553 352.471 296.15 352.518 296.736C352.564 297.299 352.588 297.803 352.588 298.248C352.588 298.693 352.588 298.998 352.588 299.162C352.588 299.232 352.588 299.35 352.588 299.514C352.611 299.654 352.611 299.807 352.588 299.971C352.564 300.111 352.506 300.229 352.412 300.322C352.342 300.416 352.213 300.463 352.025 300.463H351.885C351.838 300.463 351.768 300.451 351.674 300.428C351.58 300.381 351.475 300.346 351.357 300.322C351.24 300.275 351.135 300.24 351.041 300.217C350.947 300.193 350.877 300.17 350.83 300.146ZM350.443 284.643C350.443 284.057 350.818 283.623 351.568 283.342C351.732 283.271 351.873 283.295 351.99 283.412C352.131 283.529 352.236 283.682 352.307 283.869C352.4 284.057 352.459 284.256 352.482 284.467C352.529 284.654 352.553 284.795 352.553 284.889C352.553 285.029 352.518 285.146 352.447 285.24C352.377 285.311 352.283 285.357 352.166 285.381C352.072 285.404 351.967 285.416 351.85 285.416H351.568C351.24 285.416 350.971 285.381 350.76 285.311C350.549 285.24 350.443 285.018 350.443 284.643ZM362.396 292.904C361.576 292.904 360.85 293.057 360.217 293.361C359.607 293.643 359.057 294.018 358.564 294.486C358.072 294.955 357.662 295.459 357.334 295.998C357.006 296.514 356.713 297.006 356.455 297.475C356.221 297.943 356.033 298.33 355.893 298.635C355.775 298.939 355.693 299.092 355.646 299.092C355.014 299.092 354.568 298.928 354.31 298.6C354.053 298.271 353.889 297.873 353.818 297.404C353.748 296.912 353.736 296.408 353.783 295.893C353.853 295.354 353.889 294.885 353.889 294.486V293.889C353.889 293.607 353.889 293.314 353.889 293.01C353.912 292.705 353.924 292.424 353.924 292.166V291.568C353.994 291.381 354.088 291.275 354.205 291.252C354.322 291.229 354.451 291.217 354.592 291.217C354.803 291.217 354.978 291.346 355.119 291.604C355.26 291.838 355.389 292.131 355.506 292.482C355.623 292.834 355.717 293.186 355.787 293.537C355.857 293.865 355.916 294.123 355.963 294.311C356.244 294.264 356.502 294.146 356.736 293.959C356.971 293.771 357.205 293.549 357.439 293.291C357.697 293.033 357.967 292.764 358.248 292.482C358.529 292.201 358.857 291.943 359.232 291.709C359.607 291.451 360.041 291.24 360.533 291.076C361.049 290.912 361.635 290.83 362.291 290.83C363.603 290.83 364.682 291.123 365.525 291.709C366.369 292.271 367.014 293.021 367.459 293.959C367.928 294.873 368.244 295.916 368.408 297.088C368.572 298.236 368.654 299.408 368.654 300.604C367.951 300.604 367.4 300.498 367.002 300.287C366.627 300.053 366.357 299.76 366.193 299.408C366.029 299.033 365.935 298.623 365.912 298.178C365.889 297.709 365.877 297.24 365.877 296.771C365.877 296.279 365.842 295.799 365.771 295.33C365.725 294.861 365.584 294.451 365.35 294.1C365.139 293.748 364.799 293.467 364.33 293.256C363.885 293.021 363.24 292.904 362.396 292.904ZM369.568 308.971C369.85 308.971 370.107 309.1 370.342 309.357C370.6 309.639 370.846 309.955 371.08 310.307C371.314 310.658 371.537 311.01 371.748 311.361C371.959 311.736 372.182 311.994 372.416 312.135C372.908 312.533 373.459 312.861 374.068 313.119C374.701 313.377 375.346 313.576 376.002 313.717C376.658 313.881 377.314 313.998 377.971 314.068C378.65 314.162 379.307 314.209 379.939 314.209C379.986 314.209 380.068 314.197 380.185 314.174C380.326 314.174 380.467 314.174 380.607 314.174C380.748 314.174 380.877 314.162 380.994 314.139C381.135 314.139 381.228 314.139 381.275 314.139C381.627 313.975 381.896 313.752 382.084 313.471C382.295 313.213 382.435 312.92 382.506 312.592C382.6 312.287 382.658 311.959 382.682 311.607C382.705 311.256 382.717 310.904 382.717 310.553C382.717 310.295 382.693 309.85 382.646 309.217C382.623 308.607 382.576 307.881 382.506 307.037C382.435 306.217 382.342 305.35 382.225 304.436C382.131 303.521 381.99 302.654 381.803 301.834C381.639 301.014 381.428 300.299 381.17 299.689C380.912 299.08 380.619 298.658 380.291 298.424C380.057 298.682 379.822 298.939 379.588 299.197C379.353 299.432 379.084 299.643 378.779 299.83C378.498 300.018 378.205 300.17 377.9 300.287C377.596 300.404 377.256 300.463 376.881 300.463C376.131 300.463 375.334 300.381 374.49 300.217C373.646 300.053 372.861 299.771 372.135 299.373C371.408 298.975 370.81 298.471 370.342 297.861C369.873 297.229 369.639 296.443 369.639 295.506C369.639 294.639 369.873 293.912 370.342 293.326C370.81 292.717 371.385 292.236 372.064 291.885C372.768 291.51 373.529 291.24 374.35 291.076C375.17 290.912 375.943 290.83 376.67 290.83C376.904 290.83 377.185 290.842 377.514 290.865C377.865 290.865 378.217 290.889 378.568 290.936C378.92 290.982 379.248 291.053 379.553 291.146C379.857 291.24 380.103 291.381 380.291 291.568C380.314 291.615 380.338 291.744 380.361 291.955C380.408 292.143 380.443 292.354 380.467 292.588C380.514 292.822 380.549 293.045 380.572 293.256C380.596 293.467 380.607 293.584 380.607 293.607C380.701 294.029 380.83 294.439 380.994 294.838C381.182 295.213 381.381 295.611 381.592 296.033C381.803 296.432 382.002 296.83 382.189 297.229C382.377 297.627 382.529 298.025 382.646 298.424C383.279 300.439 383.795 302.443 384.193 304.436C384.592 306.428 384.791 308.479 384.791 310.588C384.791 310.682 384.779 310.846 384.756 311.08C384.756 311.338 384.756 311.596 384.756 311.854C384.756 312.135 384.744 312.393 384.721 312.627C384.721 312.885 384.721 313.061 384.721 313.154C384.697 313.764 384.51 314.268 384.158 314.666C383.807 315.088 383.373 315.404 382.857 315.615C382.365 315.85 381.826 316.014 381.24 316.107C380.678 316.225 380.174 316.283 379.728 316.283C378.978 316.283 378.193 316.213 377.373 316.072C376.576 315.955 375.803 315.768 375.053 315.51C374.303 315.252 373.588 314.924 372.908 314.525C372.252 314.15 371.678 313.693 371.185 313.154C370.693 312.615 370.295 312.006 369.99 311.326C369.709 310.646 369.568 309.861 369.568 308.971ZM371.678 295.717C371.678 296.186 371.818 296.596 372.1 296.947C372.381 297.299 372.732 297.592 373.154 297.826C373.576 298.037 374.021 298.201 374.49 298.318C374.959 298.412 375.369 298.459 375.721 298.459C377.057 298.459 377.982 298.131 378.498 297.475C379.014 296.795 379.271 295.811 379.271 294.521C379.271 294.146 379.201 293.854 379.06 293.643C378.92 293.408 378.732 293.244 378.498 293.15C378.264 293.057 377.994 292.998 377.689 292.975C377.385 292.928 377.08 292.904 376.775 292.904C376.353 292.904 375.85 292.951 375.264 293.045C374.678 293.115 374.115 293.256 373.576 293.467C373.06 293.678 372.615 293.971 372.24 294.346C371.865 294.697 371.678 295.154 371.678 295.717ZM395.795 295.049C395.795 294.041 396.064 293.221 396.603 292.588C397.143 291.932 397.799 291.428 398.572 291.076C399.369 290.725 400.225 290.49 401.139 290.373C402.076 290.232 402.943 290.162 403.74 290.162H404.162C404.326 290.162 404.514 290.174 404.725 290.197C404.959 290.197 405.17 290.197 405.357 290.197H405.779C406.248 290.268 406.553 290.408 406.693 290.619C406.834 290.807 406.904 291.053 406.904 291.357C406.904 291.732 406.775 292.037 406.518 292.271C406.283 292.506 405.978 292.623 405.603 292.623C405.369 292.623 405.205 292.588 405.111 292.518C405.041 292.424 404.971 292.33 404.9 292.236C404.853 292.143 404.783 292.061 404.689 291.99C404.596 291.896 404.42 291.85 404.162 291.85C403.81 291.85 403.412 291.873 402.967 291.92C402.521 291.967 402.064 292.037 401.596 292.131C401.127 292.225 400.67 292.354 400.225 292.518C399.779 292.682 399.381 292.893 399.029 293.15C398.678 293.408 398.396 293.725 398.185 294.1C397.975 294.451 397.869 294.885 397.869 295.4C397.869 295.822 397.986 296.209 398.221 296.561C398.478 296.889 398.807 297.182 399.205 297.439C399.603 297.697 400.049 297.92 400.541 298.107C401.057 298.271 401.56 298.4 402.053 298.494C402.545 298.588 403.014 298.658 403.459 298.705C403.928 298.752 404.303 298.775 404.584 298.775C405.24 298.775 405.85 298.682 406.412 298.494C406.975 298.283 407.525 298.061 408.064 297.826C408.627 297.592 409.178 297.381 409.717 297.193C410.256 297.006 410.807 296.912 411.369 296.912C411.369 297.756 411.123 298.424 410.631 298.916C410.162 299.408 409.564 299.771 408.838 300.006C408.111 300.24 407.338 300.381 406.518 300.428C405.697 300.475 404.947 300.498 404.268 300.498C403.705 300.498 403.096 300.475 402.439 300.428C401.807 300.357 401.174 300.252 400.541 300.111C399.908 299.947 399.31 299.736 398.748 299.479C398.185 299.221 397.682 298.893 397.236 298.494C396.814 298.072 396.463 297.58 396.182 297.018C395.924 296.455 395.795 295.799 395.795 295.049ZM422.619 292.904C421.916 292.904 421.307 293.033 420.791 293.291C420.299 293.549 419.853 293.865 419.455 294.24C419.057 294.615 418.717 295.037 418.435 295.506C418.154 295.951 417.873 296.373 417.592 296.771C417.31 297.146 417.018 297.463 416.713 297.721C416.408 297.979 416.057 298.107 415.658 298.107C415.377 298.107 415.154 297.99 414.99 297.756C414.85 297.521 414.744 297.275 414.674 297.018C414.369 296.01 414.053 294.932 413.725 293.783C413.42 292.611 413.127 291.428 412.846 290.232C412.564 289.037 412.33 287.842 412.143 286.646C411.955 285.428 411.861 284.268 411.861 283.166V282.955C411.861 282.838 411.861 282.721 411.861 282.604C411.885 282.463 411.896 282.346 411.896 282.252V281.971C411.943 281.76 412.06 281.654 412.248 281.654C412.435 281.631 412.611 281.619 412.775 281.619C412.799 281.619 412.881 281.619 413.021 281.619C413.185 281.619 413.279 281.619 413.303 281.619C413.35 281.971 413.432 282.51 413.549 283.236C413.666 283.963 413.807 284.771 413.971 285.662C414.158 286.553 414.346 287.479 414.533 288.439C414.744 289.377 414.955 290.232 415.166 291.006C415.4 291.779 415.635 292.412 415.869 292.904C416.103 293.396 416.326 293.643 416.537 293.643C416.889 293.643 417.299 293.502 417.768 293.221C418.236 292.939 418.728 292.623 419.244 292.271C419.783 291.92 420.346 291.592 420.932 291.287C421.541 290.982 422.174 290.83 422.83 290.83C422.971 290.83 423.158 290.842 423.393 290.865C423.627 290.865 423.861 290.877 424.096 290.9C424.353 290.924 424.588 290.959 424.799 291.006C425.033 291.053 425.185 291.123 425.256 291.217L428.385 294.311C428.572 294.498 428.736 294.838 428.877 295.33C429.018 295.822 429.135 296.35 429.228 296.912C429.322 297.475 429.381 298.014 429.404 298.529C429.428 299.021 429.439 299.408 429.439 299.689C429.439 300.018 429.334 300.24 429.123 300.357C428.912 300.451 428.666 300.498 428.385 300.498C428.01 300.498 427.74 300.311 427.576 299.936C427.412 299.561 427.26 299.092 427.119 298.529C427.002 297.943 426.861 297.334 426.697 296.701C426.533 296.045 426.299 295.436 425.994 294.873C425.689 294.287 425.268 293.818 424.728 293.467C424.213 293.092 423.51 292.904 422.619 292.904ZM440.162 298.74C439.787 298.74 439.389 298.799 438.967 298.916C438.568 299.01 438.17 299.127 437.771 299.268C437.373 299.408 436.951 299.537 436.506 299.654C436.084 299.748 435.65 299.795 435.205 299.795C434.525 299.795 433.869 299.689 433.236 299.479C432.603 299.268 432.041 298.951 431.549 298.529C431.08 298.107 430.705 297.604 430.424 297.018C430.143 296.408 430.002 295.729 430.002 294.979C430.002 294.322 430.201 293.713 430.6 293.15C431.021 292.588 431.537 292.119 432.146 291.744C432.756 291.369 433.412 291.076 434.115 290.865C434.818 290.654 435.451 290.549 436.014 290.549C436.271 290.549 436.588 290.572 436.963 290.619C437.361 290.643 437.783 290.701 438.228 290.795C438.697 290.865 439.166 290.971 439.635 291.111C440.103 291.229 440.525 291.393 440.9 291.604C441.299 291.814 441.627 292.061 441.885 292.342C442.166 292.6 442.33 292.904 442.377 293.256C442.377 293.373 442.353 293.584 442.307 293.889C442.26 294.17 442.225 294.475 442.201 294.803C442.178 295.131 442.143 295.447 442.096 295.752C442.072 296.033 442.049 296.244 442.025 296.385V296.596C442.025 297.111 442.143 297.498 442.377 297.756C442.611 298.014 442.893 298.201 443.221 298.318C443.572 298.412 443.935 298.459 444.31 298.459H445.435C445.787 298.459 446.01 298.459 446.103 298.459C446.197 298.436 446.256 298.424 446.279 298.424C446.326 298.424 446.385 298.424 446.455 298.424C446.549 298.4 446.783 298.389 447.158 298.389C447.463 298.389 447.697 298.447 447.861 298.564C448.025 298.682 448.107 298.928 448.107 299.303C448.107 299.701 447.978 299.982 447.721 300.146C447.463 300.311 447.158 300.416 446.807 300.463C446.455 300.533 446.103 300.557 445.752 300.533C445.4 300.51 445.131 300.498 444.943 300.498C444.404 300.498 443.889 300.404 443.396 300.217C442.928 300.029 442.494 299.83 442.096 299.619C441.697 299.385 441.334 299.186 441.006 299.021C440.678 298.834 440.396 298.74 440.162 298.74ZM432.076 295.33C432.076 295.893 432.193 296.35 432.428 296.701C432.685 297.029 432.99 297.275 433.342 297.439C433.717 297.58 434.127 297.674 434.572 297.721C435.018 297.744 435.451 297.756 435.873 297.756C436.037 297.756 436.307 297.744 436.682 297.721C437.08 297.697 437.49 297.65 437.912 297.58C438.334 297.486 438.709 297.369 439.037 297.229C439.389 297.088 439.588 296.912 439.635 296.701L440.338 293.959C440.385 293.771 440.338 293.607 440.197 293.467C440.057 293.326 439.857 293.209 439.6 293.115C439.365 293.021 439.096 292.939 438.791 292.869C438.51 292.799 438.228 292.74 437.947 292.693C437.666 292.646 437.408 292.611 437.174 292.588C436.963 292.564 436.834 292.553 436.787 292.553C436.365 292.553 435.873 292.6 435.31 292.693C434.771 292.764 434.256 292.904 433.764 293.115C433.295 293.303 432.896 293.572 432.568 293.924C432.24 294.275 432.076 294.744 432.076 295.33ZM456.791 292.904C455.971 292.904 455.244 293.057 454.611 293.361C454.002 293.643 453.451 294.018 452.959 294.486C452.467 294.955 452.057 295.459 451.728 295.998C451.4 296.514 451.107 297.006 450.85 297.475C450.615 297.943 450.428 298.33 450.287 298.635C450.17 298.939 450.088 299.092 450.041 299.092C449.408 299.092 448.963 298.928 448.705 298.6C448.447 298.271 448.283 297.873 448.213 297.404C448.143 296.912 448.131 296.408 448.178 295.893C448.248 295.354 448.283 294.885 448.283 294.486V293.889C448.283 293.607 448.283 293.314 448.283 293.01C448.307 292.705 448.318 292.424 448.318 292.166V291.568C448.389 291.381 448.482 291.275 448.6 291.252C448.717 291.229 448.846 291.217 448.986 291.217C449.197 291.217 449.373 291.346 449.514 291.604C449.654 291.838 449.783 292.131 449.9 292.482C450.018 292.834 450.111 293.186 450.182 293.537C450.252 293.865 450.31 294.123 450.357 294.311C450.639 294.264 450.896 294.146 451.131 293.959C451.365 293.771 451.6 293.549 451.834 293.291C452.092 293.033 452.361 292.764 452.643 292.482C452.924 292.201 453.252 291.943 453.627 291.709C454.002 291.451 454.435 291.24 454.928 291.076C455.443 290.912 456.029 290.83 456.685 290.83C457.998 290.83 459.076 291.123 459.92 291.709C460.764 292.271 461.408 293.021 461.853 293.959C462.322 294.873 462.639 295.916 462.803 297.088C462.967 298.236 463.049 299.408 463.049 300.604C462.346 300.604 461.795 300.498 461.396 300.287C461.021 300.053 460.752 299.76 460.588 299.408C460.424 299.033 460.33 298.623 460.307 298.178C460.283 297.709 460.271 297.24 460.271 296.771C460.271 296.279 460.236 295.799 460.166 295.33C460.119 294.861 459.978 294.451 459.744 294.1C459.533 293.748 459.193 293.467 458.725 293.256C458.279 293.021 457.635 292.904 456.791 292.904ZM463.963 308.971C464.244 308.971 464.502 309.1 464.736 309.357C464.994 309.639 465.24 309.955 465.475 310.307C465.709 310.658 465.932 311.01 466.143 311.361C466.353 311.736 466.576 311.994 466.81 312.135C467.303 312.533 467.853 312.861 468.463 313.119C469.096 313.377 469.74 313.576 470.396 313.717C471.053 313.881 471.709 313.998 472.365 314.068C473.045 314.162 473.701 314.209 474.334 314.209C474.381 314.209 474.463 314.197 474.58 314.174C474.721 314.174 474.861 314.174 475.002 314.174C475.143 314.174 475.271 314.162 475.389 314.139C475.529 314.139 475.623 314.139 475.67 314.139C476.021 313.975 476.291 313.752 476.478 313.471C476.689 313.213 476.83 312.92 476.9 312.592C476.994 312.287 477.053 311.959 477.076 311.607C477.1 311.256 477.111 310.904 477.111 310.553C477.111 310.295 477.088 309.85 477.041 309.217C477.018 308.607 476.971 307.881 476.9 307.037C476.83 306.217 476.736 305.35 476.619 304.436C476.525 303.521 476.385 302.654 476.197 301.834C476.033 301.014 475.822 300.299 475.564 299.689C475.307 299.08 475.014 298.658 474.685 298.424C474.451 298.682 474.217 298.939 473.982 299.197C473.748 299.432 473.478 299.643 473.174 299.83C472.893 300.018 472.6 300.17 472.295 300.287C471.99 300.404 471.65 300.463 471.275 300.463C470.525 300.463 469.728 300.381 468.885 300.217C468.041 300.053 467.256 299.771 466.529 299.373C465.803 298.975 465.205 298.471 464.736 297.861C464.268 297.229 464.033 296.443 464.033 295.506C464.033 294.639 464.268 293.912 464.736 293.326C465.205 292.717 465.779 292.236 466.459 291.885C467.162 291.51 467.924 291.24 468.744 291.076C469.564 290.912 470.338 290.83 471.064 290.83C471.299 290.83 471.58 290.842 471.908 290.865C472.26 290.865 472.611 290.889 472.963 290.936C473.314 290.982 473.643 291.053 473.947 291.146C474.252 291.24 474.498 291.381 474.685 291.568C474.709 291.615 474.732 291.744 474.756 291.955C474.803 292.143 474.838 292.354 474.861 292.588C474.908 292.822 474.943 293.045 474.967 293.256C474.99 293.467 475.002 293.584 475.002 293.607C475.096 294.029 475.225 294.439 475.389 294.838C475.576 295.213 475.775 295.611 475.986 296.033C476.197 296.432 476.396 296.83 476.584 297.229C476.771 297.627 476.924 298.025 477.041 298.424C477.674 300.439 478.189 302.443 478.588 304.436C478.986 306.428 479.185 308.479 479.185 310.588C479.185 310.682 479.174 310.846 479.15 311.08C479.15 311.338 479.15 311.596 479.15 311.854C479.15 312.135 479.139 312.393 479.115 312.627C479.115 312.885 479.115 313.061 479.115 313.154C479.092 313.764 478.904 314.268 478.553 314.666C478.201 315.088 477.768 315.404 477.252 315.615C476.76 315.85 476.221 316.014 475.635 316.107C475.072 316.225 474.568 316.283 474.123 316.283C473.373 316.283 472.588 316.213 471.768 316.072C470.971 315.955 470.197 315.768 469.447 315.51C468.697 315.252 467.982 314.924 467.303 314.525C466.646 314.15 466.072 313.693 465.58 313.154C465.088 312.615 464.689 312.006 464.385 311.326C464.103 310.646 463.963 309.861 463.963 308.971ZM466.072 295.717C466.072 296.186 466.213 296.596 466.494 296.947C466.775 297.299 467.127 297.592 467.549 297.826C467.971 298.037 468.416 298.201 468.885 298.318C469.353 298.412 469.764 298.459 470.115 298.459C471.451 298.459 472.377 298.131 472.893 297.475C473.408 296.795 473.666 295.811 473.666 294.521C473.666 294.146 473.596 293.854 473.455 293.643C473.314 293.408 473.127 293.244 472.893 293.15C472.658 293.057 472.389 292.998 472.084 292.975C471.779 292.928 471.475 292.904 471.17 292.904C470.748 292.904 470.244 292.951 469.658 293.045C469.072 293.115 468.51 293.256 467.971 293.467C467.455 293.678 467.01 293.971 466.635 294.346C466.26 294.697 466.072 295.154 466.072 295.717ZM479.115 294.275C479.115 293.479 479.338 292.705 479.783 291.955C480.228 291.205 480.791 290.549 481.471 289.986C482.174 289.424 482.935 288.979 483.756 288.65C484.6 288.322 485.396 288.158 486.146 288.158C486.756 288.158 487.353 288.24 487.939 288.404C488.549 288.545 489.088 288.779 489.557 289.107C490.025 289.436 490.4 289.846 490.682 290.338C490.986 290.807 491.139 291.369 491.139 292.025C491.139 292.33 491.115 292.576 491.068 292.764C491.045 292.928 490.975 293.08 490.857 293.221C490.74 293.338 490.588 293.455 490.4 293.572C490.236 293.666 490.025 293.795 489.768 293.959C489.627 293.982 489.416 294.041 489.135 294.135C488.853 294.205 488.525 294.287 488.15 294.381C487.799 294.475 487.424 294.568 487.025 294.662C486.627 294.756 486.24 294.85 485.865 294.943C485.514 295.037 485.197 295.119 484.916 295.189C484.635 295.26 484.424 295.307 484.283 295.33C484.213 295.354 484.06 295.377 483.826 295.4C483.592 295.424 483.334 295.459 483.053 295.506C482.795 295.529 482.549 295.564 482.314 295.611C482.08 295.635 481.939 295.658 481.893 295.682C481.822 295.705 481.74 295.764 481.646 295.857C481.576 295.928 481.541 295.975 481.541 295.998C481.541 296.467 481.67 296.865 481.928 297.193C482.185 297.498 482.514 297.756 482.912 297.967C483.31 298.178 483.756 298.342 484.248 298.459C484.764 298.553 485.268 298.635 485.76 298.705C486.252 298.752 486.709 298.775 487.131 298.775C487.553 298.775 487.893 298.775 488.15 298.775C489.322 298.775 490.471 298.717 491.596 298.6C492.721 298.459 493.869 298.389 495.041 298.389V298.67C495.041 298.811 495.018 298.963 494.971 299.127C494.947 299.268 494.9 299.408 494.83 299.549C494.76 299.666 494.666 299.736 494.549 299.76C493.658 299.947 492.861 300.1 492.158 300.217C491.478 300.311 490.834 300.381 490.225 300.428C489.615 300.451 488.982 300.463 488.326 300.463C487.67 300.486 486.943 300.498 486.146 300.498H485.549C485.291 300.498 485.01 300.486 484.705 300.463C484.4 300.463 484.107 300.463 483.826 300.463H483.228C482.502 300.275 481.869 299.982 481.33 299.584C480.814 299.162 480.393 298.67 480.064 298.107C479.736 297.545 479.49 296.936 479.326 296.279C479.185 295.623 479.115 294.955 479.115 294.275ZM486.99 290.127C486.685 290.127 486.334 290.162 485.935 290.232C485.56 290.279 485.162 290.373 484.74 290.514C484.342 290.631 483.943 290.795 483.545 291.006C483.146 291.193 482.795 291.428 482.49 291.709C482.185 291.967 481.928 292.26 481.717 292.588C481.529 292.916 481.435 293.279 481.435 293.678H482.877C483.393 293.678 483.92 293.654 484.459 293.607C484.998 293.561 485.525 293.49 486.041 293.396C486.557 293.279 487.002 293.115 487.377 292.904C487.775 292.67 488.092 292.377 488.326 292.025C488.584 291.674 488.713 291.24 488.713 290.725V290.549L488.361 290.197C488.314 290.197 488.221 290.197 488.08 290.197C487.963 290.174 487.834 290.162 487.693 290.162C487.553 290.139 487.412 290.127 487.271 290.127C487.154 290.127 487.06 290.127 486.99 290.127ZM499.295 298.318V297.58C499.295 297.275 499.318 296.982 499.365 296.701C499.412 296.42 499.506 296.174 499.646 295.963C499.787 295.752 499.986 295.646 500.244 295.646V295.682H500.35L501.053 298.389C501.053 298.482 501.1 298.553 501.193 298.6C501.287 298.646 501.381 298.693 501.475 298.74C501.592 298.764 501.697 298.775 501.791 298.775C501.908 298.775 502.002 298.775 502.072 298.775C502.119 298.775 502.178 298.775 502.248 298.775C502.342 298.752 502.4 298.74 502.424 298.74C502.564 298.717 502.834 298.658 503.232 298.564C503.631 298.447 504.041 298.342 504.463 298.248C504.908 298.154 505.318 298.061 505.693 297.967C506.092 297.85 506.373 297.779 506.537 297.756C506.654 297.568 506.83 297.404 507.064 297.264C507.299 297.1 507.533 296.947 507.768 296.807C508.002 296.666 508.201 296.514 508.365 296.35C508.529 296.186 508.611 295.975 508.611 295.717C508.611 295.131 508.459 294.662 508.154 294.311C507.873 293.959 507.498 293.701 507.029 293.537C506.584 293.35 506.103 293.221 505.588 293.15C505.072 293.08 504.58 293.01 504.111 292.939C503.924 292.916 503.619 292.881 503.197 292.834C502.799 292.764 502.342 292.693 501.826 292.623C501.31 292.553 500.771 292.482 500.209 292.412C499.646 292.318 499.096 292.248 498.557 292.201C498.041 292.131 497.572 292.072 497.15 292.025C496.752 291.979 496.459 291.943 496.271 291.92C496.131 291.826 495.978 291.662 495.814 291.428C495.65 291.193 495.568 291.006 495.568 290.865C495.568 290.467 495.779 290.104 496.201 289.775C496.646 289.424 497.197 289.107 497.853 288.826C498.51 288.545 499.248 288.299 500.068 288.088C500.912 287.877 501.732 287.689 502.529 287.525C503.35 287.361 504.1 287.244 504.779 287.174C505.482 287.104 506.021 287.068 506.396 287.068C506.678 287.068 506.935 287.162 507.17 287.35C507.428 287.537 507.557 287.807 507.557 288.158C507.557 288.439 507.475 288.65 507.31 288.791C507.17 288.908 506.982 288.99 506.748 289.037C506.537 289.061 506.314 289.084 506.08 289.107C505.869 289.107 505.67 289.119 505.482 289.143C505.107 289.213 504.627 289.307 504.041 289.424C503.478 289.541 502.916 289.658 502.353 289.775C501.791 289.893 501.322 289.986 500.947 290.057L500.35 290.197V290.584C500.795 290.584 501.357 290.596 502.037 290.619C502.717 290.643 503.443 290.701 504.217 290.795C504.99 290.889 505.752 291.041 506.502 291.252C507.275 291.439 507.967 291.709 508.576 292.061C509.185 292.389 509.678 292.811 510.053 293.326C510.451 293.818 510.65 294.428 510.65 295.154C510.65 296.139 510.381 296.971 509.842 297.65C509.303 298.33 508.623 298.881 507.803 299.303C506.982 299.725 506.092 300.029 505.131 300.217C504.17 300.404 503.279 300.498 502.459 300.498C502.131 300.498 501.779 300.475 501.404 300.428C501.029 300.357 500.678 300.24 500.35 300.076C500.045 299.912 499.787 299.689 499.576 299.408C499.389 299.127 499.295 298.764 499.295 298.318Z" fill="black"/>
</svg>
