<svg width="425" height="257" viewBox="0 0 425 257" fill="none" xmlns="http://www.w3.org/2000/svg">
<path d="M82.6622 250.823C77.3608 250.823 72.4494 248.952 67.9277 245.21C63.406 241.468 60.2875 236.712 58.5724 230.943C57.9487 228.76 57.481 226.421 57.1691 223.927C57.0132 221.588 56.9352 219.093 56.9352 216.443C56.9352 208.023 58.0267 198.434 60.2096 187.675C62.5484 176.917 65.5109 165.534 69.0971 153.529C72.8392 141.367 76.8931 129.205 81.2589 117.043C85.7806 104.725 90.1463 92.8754 94.3562 81.4932C98.722 69.9551 102.698 59.3525 106.284 49.6854C109.87 39.8624 112.677 31.5986 114.704 24.8941C115.795 21.4638 116.341 18.6572 116.341 16.4743C116.341 13.6678 115.405 12.2645 113.534 12.2645C111.196 12.2645 107.609 14.5253 102.776 19.047C97.9424 23.5687 92.4072 29.7276 86.1704 37.5236C79.9335 45.3196 73.4628 54.363 66.7582 64.6538C60.0537 74.9446 53.6609 85.859 47.58 97.3971C41.4991 108.935 36.1978 120.629 31.6761 132.479C27.1544 144.329 23.8801 155.789 21.8531 166.86C21.6972 167.951 21.5413 169.666 21.3853 172.005C21.2294 174.344 20.8396 176.449 20.2159 178.32C19.7482 180.191 18.7347 181.127 17.1755 181.127C13.7452 180.971 11.3285 179.255 9.92518 175.981C8.67782 172.707 7.82025 169.666 7.35249 166.86C6.10513 158.596 5.48145 148.929 5.48145 137.859C5.48145 128.971 5.87125 119.772 6.65085 110.261C7.43045 100.749 8.5219 91.706 9.92518 83.1304C11.3285 74.5548 12.9656 67.3045 14.8367 61.3795C16.084 57.6374 17.7992 54.2851 19.9821 51.3226C22.3209 48.2042 24.4258 46.645 26.2968 46.645C27.3883 46.645 28.2459 47.4246 28.8695 48.9838C29.6491 50.543 29.961 53.3496 29.8051 57.4035C29.8051 59.1186 29.0255 62.393 27.4663 67.2265C26.063 71.9041 24.3478 77.985 22.3209 85.4692C20.4498 92.9534 18.8127 101.607 17.4094 111.43C16.0061 121.253 15.3044 132.089 15.3044 143.939C15.3044 149.553 15.5383 155.4 16.0061 161.481C17.4094 157.115 19.5143 151.034 22.3209 143.238C25.2834 135.442 28.8695 126.632 33.0794 116.809C37.4452 106.986 42.2787 96.8514 47.58 86.4047C53.0372 75.8021 58.8843 65.5114 65.1211 55.5324C71.3579 45.5535 77.9066 36.5101 84.7671 28.4023C91.6276 20.2944 98.644 13.8237 105.816 8.99014C109.403 6.65134 113.145 5.48193 117.043 5.48193C121.253 5.48193 124.839 6.80726 127.801 9.4579C130.92 12.1086 132.323 15.8507 132.011 20.6842C131.699 27.2329 130.062 33.8595 127.1 40.5641C124.293 47.1127 120.941 53.5055 117.043 59.7423C113.301 65.9791 109.792 71.9821 106.518 77.7511C101.996 86.0149 97.3966 95.2143 92.719 105.349C88.1973 115.484 83.9875 126.087 80.0895 137.157C76.3474 148.227 73.3069 159.376 70.9681 170.602C68.6293 181.828 67.4599 192.665 67.4599 203.111C67.4599 211.843 68.5513 220.341 70.7342 228.604C72.4493 234.685 74.5543 238.895 77.049 241.234C79.6997 243.573 82.2724 244.742 84.7671 244.742C87.5737 244.742 90.1463 243.963 92.4851 242.403C94.9799 240.844 96.9289 239.129 98.3322 237.258C99.8914 235.543 100.593 234.529 100.437 234.217C100.749 234.062 101.061 233.984 101.373 233.984C102.464 233.984 102.698 234.685 102.074 236.089C101.607 237.648 100.905 239.207 99.9693 240.766C99.0338 242.481 98.3322 243.573 97.8644 244.04C95.5256 246.379 93.0309 248.094 90.3802 249.186C87.8855 250.277 85.3128 250.823 82.6622 250.823Z" fill="white"/>
<path fill-rule="evenodd" clip-rule="evenodd" d="M21.0712 131.396C23.1709 126.174 25.4946 120.592 28.0412 114.65L28.0556 114.616L28.0704 114.583C32.4775 104.667 37.3519 94.4468 42.692 83.9238L42.6991 83.9098L42.7063 83.8958C48.2322 73.1597 54.1543 62.7365 60.4728 52.6269C66.8342 42.4487 73.5355 33.1896 80.5827 24.8611C87.6978 16.4523 95.0802 9.61495 102.753 4.4441L102.787 4.42097L102.822 4.39836C107.208 1.53808 111.978 0 117.043 0C122.491 0 127.384 1.75131 131.405 5.32686C136.043 9.29964 137.871 14.8285 137.484 20.9889C137.132 28.2623 135.315 35.5246 132.127 42.7498C129.215 49.5406 125.743 56.1591 121.718 62.6047C118.014 68.7785 114.544 74.7167 111.306 80.4195C106.866 88.5379 102.333 97.6005 97.7109 107.614C93.2627 117.587 89.1158 128.029 85.2715 138.945C81.6037 149.799 78.6253 160.724 76.3346 171.72C74.0651 182.613 72.9416 193.074 72.9416 203.111C72.9416 211.365 73.9706 219.376 76.0224 227.16C77.6373 232.869 79.3781 235.868 80.7446 237.184C82.7689 238.951 84.0806 239.26 84.7672 239.26C86.4898 239.26 88.0048 238.802 89.4447 237.842L89.5117 237.797L89.5801 237.755C91.6438 236.465 93.0387 235.18 93.947 233.969L94.0895 233.779L93.083 231.766L97.9858 229.314C98.968 228.823 100.114 228.502 101.373 228.502C102.161 228.502 103.361 228.617 104.595 229.27C105.988 230.007 107.056 231.243 107.567 232.776C108.021 234.138 107.918 235.372 107.771 236.165C107.647 236.836 107.444 237.447 107.231 237.969C106.633 239.868 105.788 241.707 104.729 243.486C103.867 245.063 102.836 246.821 101.741 247.916C98.9832 250.674 95.9159 252.825 92.5232 254.231C89.3714 255.602 86.0706 256.304 82.6623 256.304C75.9464 256.304 69.8252 253.895 64.4329 249.433C59.0516 244.979 55.3347 239.288 53.3183 232.505L53.3099 232.477L53.3019 232.449C52.5932 229.968 52.0731 227.351 51.73 224.606L51.7104 224.449L51.6998 224.291C51.5349 221.816 51.4538 219.199 51.4538 216.442C51.4538 207.566 52.6025 197.6 54.8376 186.585L54.8452 186.548L54.8533 186.51C57.2253 175.599 60.2242 164.081 63.8449 151.959L63.8514 151.938L63.858 151.916C67.6253 139.673 71.7059 127.431 76.0998 115.191L76.1064 115.172L76.1132 115.154C80.6363 102.832 85.0036 90.9781 89.2152 79.5913L89.2222 79.5721L89.2295 79.553C93.5898 68.0293 97.5599 57.4425 101.14 47.7921C104.704 38.0297 107.471 29.8751 109.457 23.3074L109.468 23.2694L109.48 23.2317C109.912 21.8766 110.225 20.7019 110.443 19.6936C109.333 20.5338 108.028 21.6399 106.521 23.0497C101.95 27.3259 96.597 33.265 90.4509 40.9476C84.347 48.5775 77.9798 57.4716 71.3512 67.6458C64.7443 77.7866 58.4365 88.5547 52.4295 99.9525C46.4484 111.301 41.2387 122.795 36.7977 134.433C32.3962 145.968 29.227 157.067 27.2658 167.734C27.1441 168.624 27.0038 170.137 26.8549 172.369C26.6782 175.02 26.2358 177.533 25.4768 179.869C25.0672 181.39 24.2977 183.091 22.8232 184.452C21.1701 185.978 19.1397 186.608 17.1756 186.608H17.0511L16.9267 186.602C14.3312 186.484 11.8134 185.751 9.61791 184.193C7.43419 182.643 5.90527 180.516 4.88695 178.14L4.84277 178.037L4.80285 177.932C3.4545 174.393 2.48501 170.997 1.94563 167.761L1.93872 167.719L1.93245 167.678C0.633543 159.072 0 149.12 0 137.858C0 128.811 0.396799 119.462 1.18773 109.812C1.97818 100.169 3.0865 90.9788 4.51569 82.2448C5.94606 73.5037 7.63535 65.9805 9.60968 59.7284L9.62278 59.687L9.63653 59.6457C11.0522 55.3986 13.0224 51.5269 15.5692 48.0706L15.583 48.0519L15.5969 48.0333C16.9453 46.2354 18.4204 44.618 20.0522 43.4093C21.6808 42.2029 23.799 41.163 26.297 41.163C30.6255 41.163 32.8875 44.4027 33.8756 46.7441C34.6073 48.2959 34.9559 50.0287 35.1363 51.6524C35.3295 53.3913 35.3661 55.3667 35.2861 57.5243C35.2698 59.0161 34.9554 60.7249 34.553 62.4149C34.1211 64.2287 33.4963 66.3853 32.7008 68.8546C31.3235 73.4484 29.6327 79.4418 27.6261 86.8499C25.8167 94.0968 24.2165 102.542 22.836 112.205C21.9815 118.186 21.3917 124.582 21.0712 131.396ZM12.308 108.428C13.6583 99.3714 15.2205 91.2698 17.0031 84.1394L17.0161 84.0875L17.03 84.0359C19.0634 76.5282 20.7928 70.3949 22.216 65.651L22.2322 65.597L22.2495 65.5433C23.0048 63.2018 23.5434 61.3228 23.888 59.8756C24.2543 58.3372 24.3236 57.5982 24.3236 57.4031V57.2978L24.3277 57.1925C24.3649 56.2233 24.3711 55.3726 24.3521 54.6325C22.5607 57.077 21.1198 59.8774 20.0506 63.0721C18.2882 68.6629 16.7077 75.6264 15.335 84.0153C14.0697 91.7475 13.0599 99.8842 12.308 108.428ZM26.8654 52.0338C26.8654 52.0339 26.8614 52.0359 26.8537 52.0391C26.8615 52.0352 26.8654 52.0336 26.8654 52.0338ZM23.7086 50.8615C23.7088 50.8614 23.7118 50.8665 23.7174 50.8774C23.7113 50.8672 23.7085 50.8616 23.7086 50.8615ZM12.2406 162.101L17.0792 162.67C16.8622 163.74 16.6562 164.808 16.4613 165.872L16.442 165.978L16.4268 166.084C16.2399 167.392 16.0733 169.281 15.916 171.64C15.8388 172.798 15.6959 173.843 15.4987 174.783C15.3437 174.576 15.1742 174.295 15.003 173.911C13.8883 170.967 13.1589 168.334 12.7664 165.998C12.5763 164.736 12.401 163.437 12.2406 162.101ZM14.8684 177.092C14.8683 177.092 14.87 177.086 14.8739 177.077C14.8704 177.087 14.8685 177.092 14.8684 177.092ZM68.2234 237.789C67.1486 235.464 66.2416 232.868 65.4586 230.092L65.4462 230.048L65.4346 230.004C63.9951 224.555 63.0062 219.013 62.4661 213.381C62.4333 214.421 62.417 215.442 62.417 216.442C62.417 218.925 62.4883 221.244 62.6282 223.402C62.9069 225.575 63.3128 227.574 63.8351 229.408C64.7912 232.612 66.2503 235.391 68.2234 237.789ZM104.379 70.451C106.907 66.0669 109.561 61.5571 112.342 56.9217L112.368 56.879L112.394 56.8367C116.148 50.8305 119.369 44.6866 122.061 38.4044L122.073 38.3763L122.086 38.3483C124.807 32.1887 126.26 26.2224 126.536 20.4231L126.538 20.377L126.541 20.3309C126.764 16.8673 125.798 14.9492 124.251 13.6342L124.198 13.5891L124.146 13.5427C123.18 12.6779 122.118 12.0241 120.918 11.5911C121.652 13.2621 121.823 15.0232 121.823 16.474C121.823 19.4571 121.099 22.8649 119.94 26.5173C117.873 33.349 115.033 41.7051 111.433 51.5649L111.429 51.5783L111.424 51.5916C109.222 57.527 106.874 63.8135 104.379 70.451Z" fill="white"/>
<path d="M163.717 112.98C162.314 112.98 161.3 112.278 160.677 110.875C160.209 109.315 159.975 108.224 159.975 107.6C159.975 105.106 160.677 102.767 162.08 100.584C163.639 98.2451 165.354 96.9977 167.225 96.8418H167.927C169.798 96.8418 171.045 97.3096 171.669 98.2451C172.449 99.0247 172.839 100.038 172.839 101.286C172.839 103.624 171.825 106.197 169.798 109.004C167.771 111.654 165.744 112.98 163.717 112.98ZM151.789 196.709C146.488 196.709 142.902 194.682 141.031 190.628C139.16 186.574 138.224 181.897 138.224 176.595C138.224 171.294 138.77 165.759 139.861 159.99C141.109 154.065 142.434 148.685 143.837 143.852C145.396 139.018 146.566 135.588 147.345 133.561C149.061 129.975 150.776 126.934 152.491 124.44C154.206 121.789 156.077 120.464 158.104 120.464C159.507 120.464 160.521 121.009 161.144 122.101C161.924 123.036 162.314 124.284 162.314 125.843C162.314 128.961 161.456 132.158 159.741 135.432C158.026 138.551 156.467 141.513 155.064 144.32C151.945 150.712 149.45 156.403 147.579 161.393C145.864 166.382 145.007 172.619 145.007 180.103C145.007 184.937 145.474 188.445 146.41 190.628C147.501 192.811 148.983 193.902 150.854 193.902C153.348 193.902 156.233 192.499 159.507 189.693C162.782 186.73 166.134 182.832 169.564 177.998C172.994 173.165 176.035 167.942 178.686 162.328C180.401 158.742 181.726 156.949 182.662 156.949C183.285 156.949 183.597 157.573 183.597 158.82C183.597 160.535 182.895 163.03 181.492 166.304C180.245 169.423 178.686 172.619 176.814 175.894C175.099 179.168 173.462 181.741 171.903 183.612C169.252 187.042 166.212 190.082 162.782 192.733C159.351 195.384 155.687 196.709 151.789 196.709Z" fill="white"/>
<path fill-rule="evenodd" clip-rule="evenodd" d="M166.997 91.3599H167.927C170.276 91.3599 173.697 91.8881 175.896 94.7387C177.591 96.6236 178.32 98.9476 178.32 101.285C178.32 105.21 176.635 108.899 174.242 112.213L174.198 112.273L174.152 112.333C172.023 115.117 169.07 117.787 165.221 118.352C165.37 118.546 165.512 118.749 165.649 118.961C167.232 121.054 167.795 123.507 167.795 125.843C167.795 129.997 166.647 134.061 164.597 137.975L164.571 138.025L164.544 138.073C162.864 141.128 161.342 144.019 159.978 146.747C156.934 152.989 154.528 158.484 152.739 163.244C151.3 167.467 150.488 173.031 150.488 180.103C150.488 184.608 150.935 187.148 151.389 188.322C151.392 188.328 151.395 188.333 151.397 188.338C152.193 188.135 153.658 187.476 155.884 185.577C158.766 182.961 161.842 179.408 165.094 174.826C168.329 170.267 171.209 165.323 173.728 159.987L173.734 159.975L173.74 159.963C174.651 158.059 175.587 156.348 176.557 155.035C177.038 154.386 177.673 153.631 178.48 152.99C179.235 152.392 180.678 151.467 182.661 151.467C183.776 151.467 184.997 151.762 186.111 152.505C187.191 153.225 187.863 154.159 188.266 154.965C188.994 156.422 189.078 157.916 189.078 158.82C189.078 161.701 187.992 165.043 186.557 168.402C185.22 171.734 183.571 175.109 181.623 178.526C179.846 181.908 178.04 184.792 176.18 187.041C173.258 190.808 169.907 194.154 166.133 197.07C161.856 200.375 157.036 202.19 151.789 202.19C148.458 202.19 145.245 201.554 142.426 199.96C139.547 198.333 137.428 195.903 136.053 192.925C133.793 188.028 132.742 182.543 132.742 176.595C132.742 170.917 133.327 165.04 134.475 158.97L134.485 158.915L134.497 158.86C135.767 152.827 137.124 147.312 138.573 142.323L138.595 142.246L138.62 142.169C140.18 137.332 141.39 133.774 142.229 131.593L142.307 131.391L142.4 131.196C144.19 127.454 146.029 124.171 147.932 121.394C149.869 118.425 152.768 115.57 156.815 115.062C156.338 114.431 155.962 113.764 155.667 113.101L155.526 112.783L155.426 112.449C154.974 110.944 154.493 109.132 154.493 107.6C154.493 104.01 155.521 100.649 157.469 97.6193L157.493 97.5809L157.519 97.5429C159.532 94.5231 162.535 91.7317 166.77 91.3788L166.997 91.3599ZM178.111 158.717C178.112 158.715 178.114 158.737 178.115 158.786C178.11 158.743 178.11 158.719 178.111 158.717ZM150.428 141.333C151.789 138.631 153.283 135.8 154.909 132.842C155.79 131.151 156.335 129.587 156.611 128.133C155.25 130.188 153.838 132.709 152.385 135.728C151.904 136.996 151.253 138.856 150.428 141.333ZM166.782 103.417C166.744 103.471 166.706 103.527 166.666 103.586C166.406 103.995 166.191 104.403 166.018 104.812C166.342 104.296 166.591 103.831 166.782 103.417Z" fill="white"/>
<path d="M399.425 112.98C398.021 112.98 397.008 112.278 396.384 110.875C395.916 109.315 395.683 108.224 395.683 107.6C395.683 105.106 396.384 102.767 397.787 100.584C399.347 98.2451 401.062 96.9977 402.933 96.8418H403.635C405.506 96.8418 406.753 97.3096 407.377 98.2451C408.156 99.0247 408.546 100.038 408.546 101.286C408.546 103.624 407.533 106.197 405.506 109.004C403.479 111.654 401.452 112.98 399.425 112.98ZM387.497 196.709C382.195 196.709 378.609 194.682 376.738 190.628C374.867 186.574 373.932 181.897 373.932 176.595C373.932 171.294 374.477 165.759 375.569 159.99C376.816 154.065 378.141 148.685 379.545 143.852C381.104 139.018 382.273 135.588 383.053 133.561C384.768 129.975 386.483 126.934 388.198 124.44C389.914 121.789 391.785 120.464 393.812 120.464C395.215 120.464 396.228 121.009 396.852 122.101C397.632 123.036 398.021 124.284 398.021 125.843C398.021 128.961 397.164 132.158 395.449 135.432C393.734 138.551 392.174 141.513 390.771 144.32C387.653 150.712 385.158 156.403 383.287 161.393C381.572 166.382 380.714 172.619 380.714 180.103C380.714 184.937 381.182 188.445 382.117 190.628C383.209 192.811 384.69 193.902 386.561 193.902C389.056 193.902 391.94 192.499 395.215 189.693C398.489 186.73 401.841 182.832 405.272 177.998C408.702 173.165 411.742 167.942 414.393 162.328C416.108 158.742 417.433 156.949 418.369 156.949C418.993 156.949 419.305 157.573 419.305 158.82C419.305 160.535 418.603 163.03 417.2 166.304C415.952 169.423 414.393 172.619 412.522 175.894C410.807 179.168 409.17 181.741 407.61 183.612C404.96 187.042 401.919 190.082 398.489 192.733C395.059 195.384 391.395 196.709 387.497 196.709Z" fill="white"/>
<path fill-rule="evenodd" clip-rule="evenodd" d="M402.705 91.3599H403.635C405.984 91.3599 409.405 91.8881 411.604 94.7387C413.299 96.6236 414.028 98.9476 414.028 101.285C414.028 105.21 412.343 108.899 409.95 112.213L409.906 112.273L409.86 112.333C407.731 115.117 404.778 117.787 400.929 118.352C401.078 118.546 401.22 118.749 401.357 118.961C402.94 121.054 403.503 123.507 403.503 125.843C403.503 129.997 402.355 134.061 400.305 137.975L400.279 138.025L400.252 138.073C398.572 141.128 397.05 144.019 395.686 146.747C392.642 152.989 390.236 158.484 388.447 163.244C387.008 167.467 386.196 173.031 386.196 180.103C386.196 184.608 386.643 187.148 387.097 188.322C387.1 188.328 387.103 188.333 387.105 188.338C387.901 188.135 389.366 187.476 391.592 185.577C394.474 182.961 397.55 179.408 400.802 174.826C404.037 170.267 406.917 165.323 409.436 159.987L409.442 159.975L409.448 159.963C410.359 158.059 411.295 156.348 412.265 155.035C412.746 154.386 413.381 153.631 414.188 152.99C414.943 152.392 416.386 151.467 418.369 151.467C419.484 151.467 420.705 151.762 421.819 152.505C422.899 153.225 423.571 154.159 423.974 154.965C424.702 156.422 424.786 157.916 424.786 158.82C424.786 161.701 423.7 165.043 422.265 168.402C420.928 171.734 419.279 175.109 417.331 178.526C415.554 181.908 413.748 184.792 411.888 187.041C408.966 190.808 405.615 194.154 401.841 197.07C397.565 200.375 392.744 202.19 387.497 202.19C384.166 202.19 380.953 201.554 378.134 199.96C375.255 198.333 373.136 195.903 371.761 192.925C369.501 188.028 368.45 182.543 368.45 176.595C368.45 170.917 369.035 165.04 370.183 158.97L370.193 158.915L370.205 158.86C371.475 152.827 372.832 147.312 374.281 142.323L374.303 142.246L374.328 142.169C375.888 137.332 377.098 133.774 377.937 131.593L378.015 131.391L378.108 131.196C379.898 127.454 381.737 124.171 383.64 121.394C385.577 118.425 388.476 115.57 392.523 115.062C392.046 114.431 391.67 113.764 391.375 113.101L391.234 112.783L391.134 112.449C390.682 110.944 390.201 109.132 390.201 107.6C390.201 104.01 391.229 100.649 393.177 97.6193L393.201 97.5809L393.227 97.5429C395.24 94.5231 398.243 91.7317 402.478 91.3788L402.705 91.3599ZM413.819 158.717C413.82 158.715 413.822 158.737 413.823 158.786C413.818 158.743 413.818 158.719 413.819 158.717ZM386.136 141.333C387.497 138.631 388.991 135.8 390.617 132.842C391.498 131.151 392.043 129.587 392.319 128.133C390.958 130.188 389.546 132.709 388.093 135.728C387.612 136.996 386.961 138.856 386.136 141.333ZM402.49 103.417C402.452 103.471 402.414 103.527 402.374 103.586C402.114 103.995 401.899 104.403 401.726 104.812C402.05 104.296 402.299 103.831 402.49 103.417Z" fill="white"/>
<path d="M290.509 221.164C278.503 221.164 267.823 218.123 258.468 212.042C249.112 206.117 241.16 198.166 234.612 188.187C228.219 178.208 223.308 167.137 219.877 154.975C216.603 142.658 214.966 130.262 214.966 117.788C214.966 106.874 216.291 96.3493 218.942 86.2145C221.592 76.0797 225.724 67.0363 231.337 59.0843C236.951 50.9764 243.967 44.5837 252.387 39.9061C260.962 35.2285 271.097 32.8896 282.791 32.8896C294.018 32.8896 303.139 34.9166 310.155 38.9706C317.328 43.0245 322.629 48.2478 326.059 54.6406C329.49 61.0333 331.205 67.7379 331.205 74.7543C331.205 81.7708 329.567 88.6313 326.293 95.3359C323.019 101.885 318.263 107.342 312.026 111.708C305.946 115.917 298.461 118.178 289.574 118.49C288.171 118.49 287.469 118.178 287.469 117.555C287.469 116.307 288.95 115.528 291.913 115.216C298.305 115.06 303.763 113.189 308.284 109.603C312.806 105.86 316.236 101.183 318.575 95.5697C320.914 89.8007 322.083 83.7977 322.083 77.5609C322.083 70.8563 320.602 64.3856 317.64 58.1488C314.833 51.912 310.389 46.7666 304.308 42.7126C298.227 38.6587 290.431 36.6318 280.92 36.6318C271.409 36.6318 263.223 38.7367 256.363 42.9465C249.502 47.1564 243.811 52.9254 239.289 60.2537C234.924 67.4261 231.649 75.6119 229.466 84.8112C227.284 94.0105 226.192 103.678 226.192 113.812C226.192 126.13 227.673 138.37 230.636 150.532C233.754 162.694 238.198 173.842 243.967 183.977C249.736 193.956 256.753 201.908 265.016 207.833C273.28 213.913 282.713 216.954 293.316 216.954C300.488 216.954 307.115 215.317 313.196 212.042C319.277 208.924 324.188 204.09 327.93 197.542C331.828 191.149 333.777 183.119 333.777 173.452C333.777 170.022 333.543 166.436 333.076 162.694C332.608 158.951 331.75 154.975 330.503 150.766C330.347 150.298 330.269 149.752 330.269 149.128C330.269 148.037 330.581 147.491 331.205 147.491C331.984 147.491 332.686 148.271 333.31 149.83C336.272 158.718 337.753 167.059 337.753 174.855C337.753 184.055 335.804 192.085 331.906 198.945C328.008 205.962 322.551 211.419 315.535 215.317C308.518 219.215 300.176 221.164 290.509 221.164Z" fill="white"/>
<path fill-rule="evenodd" clip-rule="evenodd" d="M304.834 105.342C308.617 102.2 311.504 98.2778 313.505 93.4853C315.572 88.3793 316.602 83.0839 316.602 77.5606C316.602 71.6942 315.312 66.0249 312.688 60.5004L312.664 60.4494L312.641 60.3979C310.286 55.1652 306.553 50.7968 301.268 47.2733C296.323 43.9765 289.672 42.113 280.92 42.113C272.235 42.113 265.082 44.0272 259.23 47.6183C253.156 51.3456 248.065 56.4745 243.963 63.1177C239.936 69.7385 236.865 77.3729 234.8 86.0764C232.722 94.8325 231.674 104.073 231.674 113.812C231.674 125.675 233.099 137.469 235.954 149.202C238.958 160.908 243.221 171.582 248.722 181.248C254.151 190.636 260.663 197.966 268.211 203.377L268.238 203.397L268.265 203.417C275.554 208.781 283.841 211.472 293.316 211.472C299.618 211.472 305.346 210.043 310.597 207.216L310.646 207.19L310.695 207.164C315.733 204.581 319.9 200.547 323.171 194.822L323.21 194.754L323.25 194.688C326.492 189.371 328.296 182.4 328.296 173.452C328.296 170.27 328.079 166.912 327.637 163.373C327.214 159.991 326.432 156.333 325.267 152.39C324.911 151.274 324.788 150.159 324.788 149.128C324.788 148.24 324.883 146.687 325.744 145.181C326.866 143.216 328.907 142.009 331.205 142.009C333.634 142.009 335.376 143.282 336.39 144.409C337.353 145.479 337.974 146.731 338.399 147.794L338.459 147.944L338.51 148.096C341.622 157.434 343.235 166.365 343.235 174.855C343.235 184.835 341.116 193.82 336.686 201.628C332.292 209.529 326.101 215.717 318.197 220.108C310.215 224.543 300.918 226.645 290.509 226.645C277.539 226.645 265.814 223.347 255.508 216.656C245.455 210.283 236.966 201.764 230.029 191.194L230.013 191.169L229.996 191.143C223.294 180.681 218.169 169.11 214.602 156.463L214.59 156.423L214.58 156.383C211.186 143.616 209.484 130.747 209.484 117.788C209.484 106.425 210.865 95.4334 213.639 84.8272C216.441 74.1135 220.832 64.4669 226.845 55.9432C232.923 47.1707 240.559 40.2059 249.725 35.114L249.743 35.1036L249.762 35.0935C259.288 29.8978 270.36 27.4077 282.791 27.4077C294.616 27.4077 304.768 29.5337 312.875 34.2108C320.814 38.7025 326.909 44.6294 330.89 52.0484C334.732 59.21 336.686 66.8017 336.686 74.754C336.686 82.6566 334.835 90.3359 331.219 97.741L331.208 97.764L331.196 97.7869C327.498 105.184 322.123 111.331 315.17 116.198L315.158 116.206L315.147 116.214C308.042 121.133 299.488 123.627 289.766 123.968L289.67 123.971H289.574C288.636 123.971 287.182 123.893 285.769 123.265C284.998 122.922 284.013 122.316 283.215 121.252C282.367 120.121 281.987 118.812 281.987 117.554C281.987 114.2 284.197 112.146 286.027 111.183C287.688 110.309 289.62 109.945 291.339 109.764L291.558 109.741L291.779 109.735C297.094 109.606 301.355 108.086 304.834 105.342ZM335.751 149.128C335.751 149.074 335.755 149.086 335.751 149.153C335.751 149.145 335.751 149.137 335.751 149.128ZM232.357 172.821C229.543 166.182 227.201 159.204 225.326 151.893L225.318 151.861L225.31 151.829C222.246 139.249 220.711 126.574 220.711 113.812C220.711 111.85 220.75 109.904 220.829 107.973C220.575 111.204 220.448 114.475 220.448 117.788C220.448 129.762 222.017 141.672 225.164 153.527C227.086 160.332 229.485 166.761 232.357 172.821ZM289.374 113C289.375 112.999 289.394 113 289.429 113.005C289.391 113.003 289.373 113.001 289.374 113Z" fill="white"/>
</svg>
