<svg width="24" height="24" viewBox="0 0 24 24" fill="none" xmlns="http://www.w3.org/2000/svg">
<path fill-rule="evenodd" clip-rule="evenodd" d="M11.7889 4.22427C12.1029 3.92524 12.5963 3.92524 12.9103 4.22427L19.4144 10.4186L21.4469 12.3544C21.772 12.664 21.7846 13.1786 21.4749 13.5038C21.1653 13.8289 20.6507 13.8415 20.3254 13.5318L19.6667 12.9044V19.0406C19.6667 19.9387 18.9387 20.6667 18.0406 20.6667H13.9756H10.7236H6.65854C5.76051 20.6667 5.03252 19.9387 5.03252 19.0406V12.9044L4.37371 13.5318C4.04855 13.8415 3.53394 13.8289 3.22428 13.5038C2.91462 13.1786 2.92717 12.664 3.25231 12.3544L5.28483 10.4186L11.7889 4.22427ZM6.65854 11.3558V19.0406H9.91057V14.9756C9.91057 13.6285 11.0025 12.5366 12.3496 12.5366C13.6967 12.5366 14.7886 13.6285 14.7886 14.9756V19.0406H18.0406V11.3558L12.3496 5.93573L6.65854 11.3558ZM13.1626 19.0406V14.9756C13.1626 14.5266 12.7986 14.1626 12.3496 14.1626C11.9006 14.1626 11.5366 14.5266 11.5366 14.9756V19.0406H13.1626Z" fill="black"/>
</svg>
