<svg width="24" height="24" viewBox="0 0 24 24" fill="none" xmlns="http://www.w3.org/2000/svg">
<path fill-rule="evenodd" clip-rule="evenodd" d="M12 5.82234C12.872 4.70627 14.208 4 15.6 4C18.064 4 20 6.11008 20 8.79563C20 12.0888 17.2845 14.7727 13.1702 18.839L13.16 18.849L12 20L10.84 18.8578L10.8084 18.8265C6.7061 14.7633 4 12.0831 4 8.79563C4 6.11008 5.936 4 8.4 4C9.792 4 11.128 4.70627 12 5.82234ZM12 17.6458L12.08 17.5586C15.888 13.8006 18.4 11.3156 18.4 8.79563C18.4 7.05176 17.2 5.74386 15.6 5.74386C14.368 5.74386 13.168 6.60708 12.752 7.80162H11.256C10.832 6.60708 9.632 5.74386 8.4 5.74386C6.8 5.74386 5.6 7.05176 5.6 8.79563C5.6 11.3156 8.112 13.8006 11.92 17.5586L12 17.6458Z" fill="black"/>
</svg>
