<svg width="24" height="24" viewBox="0 0 24 24" fill="none" xmlns="http://www.w3.org/2000/svg">
<path fill-rule="evenodd" clip-rule="evenodd" d="M19.11 17.4981C19.11 17.9678 18.6688 18.3429 18.1747 18.3429H15.4897C14.9966 18.3429 14.635 17.9678 14.635 17.4981V14.941C14.635 14.4713 14.9966 14.081 15.4897 14.081H18.1747C18.6688 14.081 19.11 14.4713 19.11 14.941V17.4981ZM18.1747 12.3762H15.4897C14.0067 12.3762 12.845 13.5286 12.845 14.941V17.4981C12.845 18.9105 14.0067 20.0476 15.4897 20.0476H18.1747C19.6577 20.0476 20.9 18.9105 20.9 17.4981V14.941C20.9 13.5286 19.6577 12.3762 18.1747 12.3762ZM9.265 17.4981C9.265 17.9678 8.82376 18.3429 8.32972 18.3429H5.64473C5.15158 18.3429 4.79 17.9678 4.79 17.4981V14.941C4.79 14.4713 5.15158 14.081 5.64473 14.081H8.32972C8.82376 14.081 9.265 14.4713 9.265 14.941V17.4981ZM8.32972 12.3762H5.64473C4.16171 12.3762 3 13.5286 3 14.941V17.4981C3 18.9105 4.16171 20.0476 5.64473 20.0476H8.32972C9.81274 20.0476 11.055 18.9105 11.055 17.4981V14.941C11.055 13.5286 9.81274 12.3762 8.32972 12.3762ZM19.11 8.12196C19.11 8.59162 18.6688 8.96667 18.1747 8.96667H15.4897C14.9966 8.96667 14.635 8.59162 14.635 8.12196V5.56481C14.635 5.09515 14.9966 4.70476 15.4897 4.70476H18.1747C18.6688 4.70476 19.11 5.09515 19.11 5.56481V8.12196ZM18.1747 3H15.4897C14.0067 3 12.845 4.15242 12.845 5.56481V8.12196C12.845 9.53435 14.0067 10.6714 15.4897 10.6714H18.1747C19.6577 10.6714 20.9 9.53435 20.9 8.12196V5.56481C20.9 4.15242 19.6577 3 18.1747 3ZM9.265 8.12196C9.265 8.59162 8.82376 8.96667 8.32972 8.96667H5.64473C5.15158 8.96667 4.79 8.59162 4.79 8.12196V5.56481C4.79 5.09515 5.15158 4.70476 5.64473 4.70476H8.32972C8.82376 4.70476 9.265 5.09515 9.265 5.56481V8.12196ZM8.32972 3H5.64473C4.16171 3 3 4.15242 3 5.56481V8.12196C3 9.53435 4.16171 10.6714 5.64473 10.6714H8.32972C9.81274 10.6714 11.055 9.53435 11.055 8.12196V5.56481C11.055 4.15242 9.81274 3 8.32972 3Z" fill="black"/>
</svg>
