<svg width="24" height="24" viewBox="0 0 24 24" fill="none" xmlns="http://www.w3.org/2000/svg">
<path d="M15.4653 13.9632H14.6776L14.3983 13.6941C15.5949 12.2988 16.2132 10.3954 15.8742 8.37226C15.4055 5.60173 13.0921 3.38929 10.3 3.05045C6.0819 2.53223 2.53194 6.08009 3.05048 10.2957C3.38952 13.0862 5.60325 15.3982 8.37541 15.8667C10.3997 16.2055 12.3043 15.5876 13.7003 14.3916L13.9696 14.6708V15.458L18.2076 19.6936C18.6164 20.1021 19.2846 20.1021 19.6933 19.6936C20.1022 19.285 20.1022 18.6173 19.6933 18.2086L15.4653 13.9632ZM9.48228 13.9632C6.9993 13.9632 4.99498 11.96 4.99498 9.47848C4.99498 6.99696 6.9993 4.99381 9.48228 4.99381C11.9652 4.99381 13.9696 6.99696 13.9696 9.47848C13.9696 11.96 11.9652 13.9632 9.48228 13.9632Z" fill="black"/>
</svg>
