<svg width="64" height="64" viewBox="0 0 64 64" fill="none" xmlns="http://www.w3.org/2000/svg">
<path d="M25.3251 52.2255C24.8173 52.2256 24.3157 52.114 23.8558 51.8986C23.3959 51.6832 22.9891 51.3693 22.664 50.9792L10.9419 36.9059C10.6178 36.5612 10.3676 36.1538 10.2067 35.7088C10.0458 35.2638 9.97765 34.7906 10.0064 34.3183C10.0352 33.846 10.1603 33.3845 10.374 32.9623C10.5876 32.5401 10.8854 32.1661 11.249 31.8633C11.6126 31.5605 12.0343 31.3352 12.4882 31.2014C12.9421 31.0675 13.4185 31.028 13.8882 31.0851C14.358 31.1422 14.811 31.2948 15.2196 31.5335C15.6282 31.7722 15.9836 32.0919 16.264 32.4731L24.803 42.7232L43.272 10.7333C43.7321 9.93684 44.4897 9.35579 45.3782 9.11796C46.2667 8.88012 47.2133 9.00498 48.0097 9.46506C48.8062 9.92514 49.3872 10.6828 49.625 11.5712C49.8629 12.4597 49.738 13.4063 49.2779 14.2027L28.323 50.4874C28.0438 50.9707 27.6522 51.3795 27.1813 51.6792C26.7104 51.9788 26.1742 52.1605 25.6181 52.2086C25.5196 52.218 25.4207 52.2225 25.3217 52.2221L25.3251 52.2255Z" fill="black" stroke="black" stroke-width="3.36842"/>
</svg>
