<svg width="24" height="24" viewBox="0 0 24 24" fill="none" xmlns="http://www.w3.org/2000/svg">
<path d="M20.9577 8.59596C20.9385 8.55265 20.9152 8.51154 20.8881 8.47326C20.8676 8.36714 20.8401 8.26267 20.8059 8.16061C20.8017 8.14878 20.7976 8.13696 20.792 8.12513L18.8753 3.44348C18.8211 3.31161 18.7318 3.19941 18.6184 3.12063C18.505 3.04185 18.3724 2.99993 18.2368 3H5.7047C5.56918 2.99993 5.43658 3.04185 5.32317 3.12063C5.20976 3.19941 5.12047 3.31161 5.06626 3.44348L3.13771 8.15987C2.9541 8.65456 2.9541 9.20478 3.13771 9.69948C3.31509 10.13 3.57208 10.5183 3.89342 10.8414C4.21477 11.1645 4.59394 11.4159 5.00848 11.5806V19.2609C5.00848 19.4569 5.08183 19.6449 5.2124 19.7835C5.34296 19.9221 5.52005 20 5.7047 20H18.2368C18.4215 20 18.5986 19.9221 18.7291 19.7835C18.8597 19.6449 18.9331 19.4569 18.9331 19.2609V11.5806C19.3475 11.4161 19.7266 11.165 20.0479 10.8421C20.3693 10.5192 20.6263 10.1312 20.8038 9.70096C20.8612 9.54546 20.8994 9.38273 20.9173 9.21683C20.9638 9.1218 20.9913 9.01765 20.9983 8.91084C21.0052 8.80404 20.9914 8.69686 20.9577 8.59596ZM9.88208 18.5217V14.087H11.2745V18.5217H9.88208ZM12.667 18.5217V14.087H14.0595V18.5217H12.667ZM17.5406 18.5217H15.4519V13.3478C15.4519 13.1518 15.3786 12.9638 15.248 12.8252C15.1174 12.6866 14.9403 12.6087 14.7557 12.6087H9.18585C9.0012 12.6087 8.82411 12.6866 8.69354 12.8252C8.56297 12.9638 8.48962 13.1518 8.48962 13.3478V18.5217H6.40093V11.8696C6.9284 11.8766 7.45095 11.7612 7.932 11.5313C8.41305 11.3015 8.84098 10.9629 9.18585 10.5391C9.53465 10.958 9.96331 11.2934 10.4434 11.5231C10.9235 11.7528 11.4441 11.8716 11.9708 11.8716C12.4974 11.8716 13.018 11.7528 13.4981 11.5231C13.9782 11.2934 14.4069 10.958 14.7557 10.5391C15.1006 10.9629 15.5285 11.3015 16.0095 11.5313C16.4906 11.7612 17.0131 11.8766 17.5406 11.8696V18.5217ZM19.5158 9.13478C19.3377 9.52577 19.0559 9.853 18.705 10.0762C18.3541 10.2995 17.9494 10.409 17.5406 10.3913C17.0339 10.4351 16.5312 10.266 16.1406 9.92046C15.75 9.57493 15.5028 9.08051 15.4519 8.54348C15.4519 8.34745 15.3786 8.15945 15.248 8.02083C15.1174 7.88222 14.9403 7.80435 14.7557 7.80435C14.571 7.80435 14.3939 7.88222 14.2634 8.02083C14.1328 8.15945 14.0595 8.34745 14.0595 8.54348C14.0086 9.08051 13.7613 9.57493 13.3708 9.92046C12.9802 10.266 12.4775 10.4351 11.9708 10.3913C11.464 10.4351 10.9614 10.266 10.5708 9.92046C10.1802 9.57493 9.93293 9.08051 9.88208 8.54348C9.88208 8.34745 9.80873 8.15945 9.67816 8.02083C9.54759 7.88222 9.3705 7.80435 9.18585 7.80435C9.0012 7.80435 8.82411 7.88222 8.69354 8.02083C8.56297 8.15945 8.48962 8.34745 8.48962 8.54348C8.43878 9.08051 8.19149 9.57493 7.80092 9.92046C7.41035 10.266 6.90767 10.4351 6.40093 10.3913C5.99208 10.409 5.58726 10.2995 5.23622 10.0763C4.88519 9.85308 4.60324 9.52583 4.42504 9.13478C4.37838 8.99846 4.37838 8.84906 4.42504 8.71274L6.16143 4.47826H17.7801L19.5047 8.6913C19.5586 8.83289 19.5625 8.99035 19.5158 9.13478Z" fill="black"/>
</svg>
