<svg width="31" height="61" viewBox="0 0 31 61" fill="none" xmlns="http://www.w3.org/2000/svg">
<path d="M16.952 11.832C16.184 11.832 15.6293 11.448 15.288 10.68C15.032 9.82666 14.904 9.22934 14.904 8.888C14.904 7.52267 15.288 6.24267 16.056 5.048C16.9093 3.768 17.848 3.08533 18.872 3H19.256C20.28 3 20.9627 3.256 21.304 3.768C21.7307 4.19467 21.944 4.74934 21.944 5.432C21.944 6.712 21.3893 8.12 20.28 9.656C19.1707 11.1067 18.0613 11.832 16.952 11.832ZM10.424 57.656C7.52267 57.656 5.56 56.5467 4.536 54.328C3.512 52.1093 3 49.5493 3 46.648C3 43.7467 3.29867 40.7173 3.896 37.56C4.57867 34.3173 5.304 31.3733 6.072 28.728C6.92533 26.0827 7.56533 24.2053 7.992 23.096C8.93067 21.1333 9.86933 19.4693 10.808 18.104C11.7467 16.6533 12.7707 15.928 13.88 15.928C14.648 15.928 15.2027 16.2267 15.544 16.824C15.9707 17.336 16.184 18.0187 16.184 18.872C16.184 20.5787 15.7147 22.328 14.776 24.12C13.8373 25.8267 12.984 27.448 12.216 28.984C10.5093 32.4827 9.144 35.5973 8.12 38.328C7.18133 41.0587 6.712 44.472 6.712 48.568C6.712 51.2133 6.968 53.1333 7.48 54.328C8.07733 55.5227 8.888 56.12 9.912 56.12C11.2773 56.12 12.856 55.352 14.648 53.816C16.44 52.1947 18.2747 50.0613 20.152 47.416C22.0293 44.7707 23.6933 41.912 25.144 38.84C26.0827 36.8773 26.808 35.896 27.32 35.896C27.6613 35.896 27.832 36.2373 27.832 36.92C27.832 37.8587 27.448 39.224 26.68 41.016C25.9973 42.7227 25.144 44.472 24.12 46.264C23.1813 48.056 22.2853 49.464 21.432 50.488C19.9813 52.3653 18.3173 54.0293 16.44 55.48C14.5627 56.9307 12.5573 57.656 10.424 57.656Z" fill="#B58D8D"/>
<path fill-rule="evenodd" clip-rule="evenodd" d="M18.7472 0H19.256C20.5416 0 22.414 0.289116 23.6174 1.84921C24.5451 2.8808 24.944 4.15266 24.944 5.432C24.944 7.57992 24.0219 9.59879 22.712 11.4125L22.688 11.4458L22.6631 11.4784C21.4978 13.0022 19.8815 14.4633 17.7751 14.7723C17.8566 14.8786 17.9347 14.9897 18.0093 15.1057C18.876 16.251 19.184 17.5937 19.184 18.872C19.184 21.1458 18.5556 23.3699 17.4335 25.512L17.4193 25.539L17.4046 25.5658C16.4851 27.2376 15.6525 28.8197 14.9059 30.3124C13.2397 33.729 11.923 36.7359 10.944 39.3413C10.1562 41.6522 9.712 44.6978 9.712 48.568C9.712 51.0333 9.95687 52.4233 10.205 53.0664C10.2066 53.0693 10.2082 53.0723 10.2098 53.0751C10.6454 52.9636 11.4467 52.6033 12.6654 51.5641C14.2425 50.1319 15.9259 48.1874 17.7055 45.6798C19.4762 43.1847 21.0523 40.4792 22.4313 37.559L22.4344 37.5523L22.4376 37.5456C22.936 36.5034 23.4484 35.5673 23.9795 34.8488C24.2424 34.4931 24.59 34.0799 25.0318 33.7295C25.4447 33.4021 26.2346 32.896 27.32 32.896C27.9303 32.896 28.5981 33.0572 29.2081 33.4639C29.7993 33.858 30.1667 34.3691 30.3873 34.8104C30.7861 35.6079 30.832 36.4254 30.832 36.92C30.832 38.4968 30.2374 40.3259 29.4519 42.1639C28.7205 43.9875 27.8181 45.8346 26.7519 47.7048C25.7795 49.5558 24.7911 51.1339 23.773 52.3648C22.1739 54.4269 20.3396 56.258 18.2743 57.8539C15.9339 59.6624 13.2958 60.656 10.424 60.656C8.60101 60.656 6.84283 60.3078 5.29983 59.4357C3.72434 58.5452 2.56441 57.2151 1.81212 55.5852C0.575314 52.9054 0 49.9031 0 46.648C0 43.5408 0.319837 40.3241 0.948289 37.0023L0.95401 36.9721L0.960351 36.942C1.6555 33.64 2.39835 30.6217 3.19096 27.8916L3.20329 27.8491L3.21687 27.807C4.07083 25.1597 4.73281 23.2129 5.19196 22.0191L5.23449 21.9085L5.2856 21.8016C6.26499 19.7538 7.2716 17.9573 8.31315 16.4375C9.37313 14.8125 10.9597 13.2497 13.1745 12.9717C12.9138 12.6267 12.7079 12.2614 12.5466 11.8984L12.4692 11.7244L12.4145 11.542C12.1674 10.7183 11.904 9.72656 11.904 8.888C11.904 6.92352 12.4666 5.08379 13.5325 3.42573L13.546 3.4047L13.5599 3.3839C14.6616 1.7312 16.3054 0.203487 18.6229 0.0103645L18.7472 0ZM24.8296 36.8636C24.8301 36.8627 24.8314 36.8746 24.8319 36.9013C24.8294 36.8777 24.8291 36.8646 24.8296 36.8636ZM9.67946 27.3499C10.424 25.8709 11.2417 24.3216 12.1319 22.7024C12.6138 21.7772 12.9123 20.921 13.0631 20.1253C12.3181 21.2504 11.5453 22.6298 10.7503 24.2822C10.487 24.9758 10.131 25.9937 9.67946 27.3499ZM18.6297 6.59881C18.609 6.62827 18.5878 6.659 18.5662 6.69105C18.4236 6.91524 18.3058 7.13845 18.2112 7.36232C18.3886 7.07963 18.5252 6.82554 18.6297 6.59881Z" fill="#B58D8D"/>
</svg>
