<svg width="742" height="742" viewBox="0 0 742 742" fill="none" xmlns="http://www.w3.org/2000/svg">
<rect width="742" height="742" rx="371" fill="black"/>
<path d="M243.807 460.823C238.506 460.823 233.594 458.952 229.072 455.21C224.551 451.468 221.432 446.712 219.717 440.943C219.093 438.76 218.626 436.421 218.314 433.927C218.158 431.588 218.08 429.093 218.08 426.443C218.08 418.023 219.171 408.434 221.354 397.675C223.693 386.917 226.656 375.534 230.242 363.529C233.984 351.367 238.038 339.205 242.404 327.043C246.925 314.725 251.291 302.875 255.501 291.493C259.867 279.955 263.843 269.353 267.429 259.685C271.015 249.862 273.822 241.599 275.848 234.894C276.94 231.464 277.486 228.657 277.486 226.474C277.486 223.668 276.55 222.264 274.679 222.264C272.34 222.264 268.754 224.525 263.921 229.047C259.087 233.569 253.552 239.728 247.315 247.524C241.078 255.32 234.607 264.363 227.903 274.654C221.198 284.945 214.806 295.859 208.725 307.397C202.644 318.935 197.342 330.629 192.821 342.479C188.299 354.329 185.025 365.789 182.998 376.86C182.842 377.951 182.686 379.666 182.53 382.005C182.374 384.344 181.984 386.449 181.361 388.32C180.893 390.191 179.879 391.127 178.32 391.127C174.89 390.971 172.473 389.255 171.07 385.981C169.822 382.707 168.965 379.666 168.497 376.86C167.25 368.596 166.626 358.929 166.626 347.859C166.626 338.971 167.016 329.772 167.796 320.261C168.575 310.749 169.667 301.706 171.07 293.13C172.473 284.555 174.11 277.304 175.981 271.379C177.229 267.637 178.944 264.285 181.127 261.323C183.466 258.204 185.57 256.645 187.442 256.645C188.533 256.645 189.391 257.425 190.014 258.984C190.794 260.543 191.106 263.35 190.95 267.403C190.95 269.119 190.17 272.393 188.611 277.226C187.208 281.904 185.492 287.985 183.466 295.469C181.594 302.953 179.957 311.607 178.554 321.43C177.151 331.253 176.449 342.089 176.449 353.939C176.449 359.553 176.683 365.4 177.151 371.48C178.554 367.115 180.659 361.034 183.466 353.238C186.428 345.442 190.014 336.632 194.224 326.809C198.59 316.986 203.423 306.851 208.725 296.405C214.182 285.802 220.029 275.511 226.266 265.532C232.503 255.554 239.051 246.51 245.912 238.402C252.772 230.294 259.789 223.824 266.961 218.99C270.547 216.651 274.289 215.482 278.187 215.482C282.397 215.482 285.983 216.807 288.946 219.458C292.064 222.109 293.468 225.851 293.156 230.684C292.844 237.233 291.207 243.859 288.244 250.564C285.438 257.113 282.085 263.505 278.187 269.742C274.445 275.979 270.937 281.982 267.663 287.751C263.141 296.015 258.541 305.214 253.864 315.349C249.342 325.484 245.132 336.087 241.234 347.157C237.492 358.227 234.452 369.376 232.113 380.602C229.774 391.828 228.605 402.665 228.605 413.111C228.605 421.843 229.696 430.341 231.879 438.604C233.594 444.685 235.699 448.895 238.194 451.234C240.844 453.573 243.417 454.742 245.912 454.742C248.718 454.742 251.291 453.963 253.63 452.403C256.125 450.844 258.074 449.129 259.477 447.258C261.036 445.543 261.738 444.529 261.582 444.217C261.894 444.062 262.205 443.984 262.517 443.984C263.609 443.984 263.843 444.685 263.219 446.089C262.751 447.648 262.05 449.207 261.114 450.766C260.178 452.481 259.477 453.573 259.009 454.04C256.67 456.379 254.176 458.094 251.525 459.186C249.03 460.277 246.457 460.823 243.807 460.823Z" fill="white"/>
<path fill-rule="evenodd" clip-rule="evenodd" d="M182.216 341.396C184.315 336.174 186.639 330.592 189.186 324.65L189.2 324.616L189.215 324.583C193.622 314.667 198.496 304.447 203.836 293.924L203.843 293.91L203.851 293.896C209.377 283.16 215.299 272.737 221.617 262.627C227.979 252.449 234.68 243.19 241.727 234.861C248.842 226.452 256.225 219.615 263.898 214.444L263.932 214.421L263.967 214.398C268.352 211.538 273.122 210 278.187 210C283.636 210 288.529 211.751 292.55 215.327C297.188 219.3 299.015 224.828 298.629 230.989C298.277 238.262 296.46 245.525 293.271 252.75C290.359 259.541 286.888 266.159 282.862 272.605C279.158 278.779 275.688 284.717 272.451 290.419C268.01 298.538 263.478 307.601 258.855 317.614C254.407 327.587 250.26 338.029 246.416 348.945C242.748 359.799 239.77 370.724 237.479 381.72C235.209 392.613 234.086 403.074 234.086 413.111C234.086 421.365 235.115 429.376 237.167 437.16C238.782 442.869 240.523 445.868 241.889 447.184C243.913 448.951 245.225 449.26 245.912 449.26C247.634 449.26 249.149 448.802 250.589 447.842L250.656 447.797L250.724 447.755C252.788 446.465 254.183 445.18 255.091 443.969L255.234 443.779L254.227 441.766L259.13 439.314C260.112 438.823 261.258 438.502 262.517 438.502C263.305 438.502 264.506 438.617 265.74 439.27C267.132 440.007 268.2 441.243 268.711 442.776C269.165 444.138 269.063 445.372 268.916 446.165C268.792 446.836 268.588 447.447 268.375 447.969C267.777 449.868 266.932 451.707 265.874 453.486C265.011 455.063 263.98 456.821 262.885 457.916C260.128 460.674 257.06 462.825 253.668 464.231C250.516 465.602 247.215 466.304 243.807 466.304C237.091 466.304 230.97 463.895 225.577 459.433C220.196 454.979 216.479 449.288 214.463 442.505L214.454 442.477L214.446 442.449C213.738 439.968 213.218 437.351 212.874 434.606L212.855 434.449L212.844 434.291C212.679 431.816 212.598 429.199 212.598 426.442C212.598 417.566 213.747 407.6 215.982 396.585L215.99 396.548L215.998 396.51C218.37 385.599 221.369 374.081 224.989 361.959L224.996 361.938L225.002 361.916C228.77 349.673 232.85 337.431 237.244 325.191L237.251 325.172L237.258 325.154C241.781 312.832 246.148 300.978 250.36 289.591L250.367 289.572L250.374 289.553C254.734 278.029 258.704 267.443 262.284 257.792C265.848 248.03 268.616 239.875 270.601 233.307L270.613 233.269L270.625 233.232C271.056 231.877 271.37 230.702 271.588 229.694C270.477 230.534 269.172 231.64 267.665 233.05C263.094 237.326 257.741 243.265 251.595 250.948C245.491 258.578 239.124 267.472 232.496 277.646C225.889 287.787 219.581 298.555 213.574 309.953C207.593 321.301 202.383 332.795 197.942 344.433C193.541 355.968 190.371 367.067 188.41 377.734C188.288 378.624 188.148 380.137 187.999 382.369C187.823 385.02 187.38 387.533 186.621 389.869C186.212 391.39 185.442 393.091 183.968 394.452C182.314 395.978 180.284 396.608 178.32 396.608H178.196L178.071 396.602C175.476 396.484 172.958 395.751 170.762 394.193C168.579 392.643 167.05 390.516 166.031 388.14L165.987 388.037L165.947 387.932C164.599 384.393 163.629 380.997 163.09 377.761L163.083 377.719L163.077 377.678C161.778 369.072 161.144 359.12 161.144 347.858C161.144 338.811 161.541 329.462 162.332 319.812C163.123 310.169 164.231 300.979 165.66 292.245C167.09 283.504 168.78 275.98 170.754 269.728L170.767 269.687L170.781 269.646C172.197 265.399 174.167 261.527 176.714 258.071L176.727 258.052L176.741 258.033C178.09 256.235 179.565 254.618 181.197 253.409C182.825 252.203 184.943 251.163 187.441 251.163C191.77 251.163 194.032 254.403 195.02 256.744C195.752 258.296 196.1 260.029 196.281 261.652C196.474 263.391 196.51 265.367 196.431 267.524C196.414 269.016 196.1 270.725 195.697 272.415C195.266 274.229 194.641 276.385 193.845 278.855C192.468 283.448 190.777 289.442 188.77 296.85C186.961 304.097 185.361 312.542 183.98 322.205C183.126 328.186 182.536 334.582 182.216 341.396ZM173.452 318.428C174.803 309.371 176.365 301.27 178.148 294.139L178.16 294.088L178.174 294.036C180.208 286.528 181.937 280.395 183.36 275.651L183.377 275.597L183.394 275.543C184.149 273.202 184.688 271.323 185.032 269.876C185.399 268.337 185.468 267.598 185.468 267.403V267.298L185.472 267.192C185.509 266.223 185.516 265.373 185.497 264.633C183.705 267.077 182.264 269.877 181.195 273.072C179.433 278.663 177.852 285.626 176.479 294.015C175.214 301.747 174.204 309.884 173.452 318.428ZM188.01 262.034C188.01 262.034 188.006 262.036 187.998 262.039C188.006 262.035 188.01 262.034 188.01 262.034ZM184.853 260.861C184.853 260.861 184.856 260.866 184.862 260.877C184.856 260.867 184.853 260.862 184.853 260.861ZM173.385 372.101L178.224 372.67C178.007 373.74 177.801 374.808 177.606 375.872L177.586 375.978L177.571 376.084C177.384 377.393 177.218 379.281 177.06 381.64C176.983 382.798 176.84 383.843 176.643 384.783C176.488 384.576 176.319 384.295 176.147 383.911C175.033 380.967 174.303 378.334 173.911 375.998C173.721 374.736 173.545 373.437 173.385 372.101ZM176.013 387.092C176.013 387.092 176.014 387.086 176.018 387.077C176.015 387.087 176.013 387.092 176.013 387.092ZM229.368 447.789C228.293 445.464 227.386 442.868 226.603 440.092L226.591 440.048L226.579 440.004C225.14 434.555 224.151 429.013 223.61 423.381C223.578 424.421 223.561 425.442 223.561 426.442C223.561 428.925 223.633 431.244 223.773 433.402C224.051 435.575 224.457 437.574 224.979 439.408C225.936 442.612 227.395 445.391 229.368 447.789ZM265.524 280.451C268.051 276.067 270.706 271.557 273.487 266.922L273.512 266.879L273.539 266.837C277.293 260.831 280.513 254.687 283.206 248.404L283.218 248.376L283.23 248.348C285.952 242.189 287.404 236.222 287.68 230.423L287.682 230.377L287.685 230.331C287.909 226.867 286.943 224.949 285.396 223.634L285.343 223.589L285.291 223.543C284.324 222.678 283.262 222.024 282.063 221.591C282.796 223.262 282.967 225.023 282.967 226.474C282.967 229.457 282.244 232.865 281.084 236.517C279.018 243.349 276.177 251.705 272.578 261.565L272.573 261.578L272.568 261.592C270.366 267.527 268.018 273.814 265.524 280.451Z" fill="white"/>
<path d="M324.861 322.98C323.458 322.98 322.445 322.278 321.821 320.875C321.353 319.315 321.119 318.224 321.119 317.6C321.119 315.106 321.821 312.767 323.224 310.584C324.783 308.245 326.499 306.998 328.37 306.842H329.071C330.942 306.842 332.19 307.31 332.813 308.245C333.593 309.025 333.983 310.038 333.983 311.286C333.983 313.624 332.969 316.197 330.942 319.004C328.915 321.654 326.888 322.98 324.861 322.98ZM312.934 406.709C307.632 406.709 304.046 404.682 302.175 400.628C300.304 396.574 299.368 391.897 299.368 386.595C299.368 381.294 299.914 375.759 301.006 369.99C302.253 364.065 303.578 358.685 304.982 353.852C306.541 349.018 307.71 345.588 308.49 343.561C310.205 339.975 311.92 336.934 313.635 334.44C315.35 331.789 317.221 330.464 319.248 330.464C320.652 330.464 321.665 331.009 322.289 332.101C323.068 333.036 323.458 334.284 323.458 335.843C323.458 338.961 322.601 342.158 320.885 345.432C319.17 348.551 317.611 351.513 316.208 354.32C313.089 360.712 310.595 366.403 308.724 371.393C307.009 376.382 306.151 382.619 306.151 390.103C306.151 394.937 306.619 398.445 307.554 400.628C308.646 402.811 310.127 403.902 311.998 403.902C314.493 403.902 317.377 402.499 320.652 399.693C323.926 396.73 327.278 392.832 330.708 387.998C334.139 383.165 337.179 377.942 339.83 372.328C341.545 368.742 342.87 366.949 343.806 366.949C344.429 366.949 344.741 367.573 344.741 368.82C344.741 370.535 344.04 373.03 342.636 376.304C341.389 379.423 339.83 382.619 337.959 385.894C336.244 389.168 334.606 391.741 333.047 393.612C330.397 397.042 327.356 400.082 323.926 402.733C320.496 405.384 316.832 406.709 312.934 406.709Z" fill="white"/>
<path fill-rule="evenodd" clip-rule="evenodd" d="M328.141 301.36H329.071C331.42 301.36 334.841 301.888 337.04 304.739C338.735 306.624 339.464 308.948 339.464 311.285C339.464 315.21 337.779 318.899 335.386 322.213L335.342 322.273L335.296 322.333C333.167 325.117 330.214 327.787 326.365 328.352C326.514 328.546 326.657 328.749 326.793 328.961C328.377 331.054 328.939 333.507 328.939 335.843C328.939 339.997 327.791 344.061 325.741 347.975L325.715 348.025L325.688 348.073C324.008 351.128 322.487 354.019 321.122 356.747C318.078 362.989 315.672 368.484 313.883 373.244C312.444 377.467 311.632 383.031 311.632 390.103C311.632 394.608 312.08 397.148 312.533 398.322C312.536 398.328 312.539 398.333 312.542 398.338C313.338 398.135 314.802 397.476 317.029 395.577C319.91 392.961 322.986 389.408 326.238 384.826C329.473 380.267 332.353 375.323 334.873 369.987L334.879 369.975L334.884 369.963C335.795 368.059 336.731 366.348 337.702 365.035C338.182 364.386 338.817 363.631 339.624 362.99C340.379 362.392 341.822 361.467 343.805 361.467C344.921 361.467 346.141 361.762 347.255 362.505C348.336 363.225 349.007 364.159 349.41 364.965C350.139 366.422 350.223 367.916 350.223 368.82C350.223 371.701 349.136 375.043 347.701 378.402C346.364 381.734 344.715 385.109 342.767 388.526C340.991 391.908 339.185 394.792 337.324 397.041C334.402 400.808 331.051 404.154 327.277 407.07C323.001 410.375 318.18 412.19 312.933 412.19C309.602 412.19 306.39 411.554 303.57 409.96C300.692 408.333 298.572 405.903 297.198 402.925C294.938 398.028 293.886 392.543 293.886 386.595C293.886 380.917 294.471 375.04 295.619 368.97L295.63 368.915L295.641 368.86C296.911 362.827 298.269 357.312 299.717 352.323L299.74 352.246L299.764 352.169C301.325 347.332 302.534 343.774 303.373 341.593L303.451 341.391L303.544 341.196C305.334 337.454 307.173 334.171 309.076 331.394C311.013 328.425 313.912 325.57 317.959 325.062C317.483 324.431 317.106 323.764 316.811 323.101L316.67 322.783L316.57 322.449C316.119 320.944 315.637 319.132 315.637 317.6C315.637 314.01 316.665 310.649 318.613 307.619L318.638 307.581L318.663 307.543C320.676 304.523 323.68 301.732 327.914 301.379L328.141 301.36ZM339.255 368.717C339.256 368.715 339.258 368.737 339.259 368.786C339.255 368.743 339.254 368.719 339.255 368.717ZM311.573 351.333C312.933 348.631 314.427 345.8 316.054 342.842C316.934 341.151 317.48 339.587 317.755 338.133C316.394 340.188 314.982 342.709 313.529 345.728C313.048 346.996 312.398 348.856 311.573 351.333ZM327.927 313.417C327.889 313.471 327.85 313.527 327.811 313.586C327.55 313.995 327.335 314.403 327.162 314.812C327.486 314.296 327.736 313.831 327.927 313.417Z" fill="white"/>
<path d="M560.569 322.98C559.166 322.98 558.153 322.278 557.529 320.875C557.061 319.315 556.827 318.224 556.827 317.6C556.827 315.106 557.529 312.767 558.932 310.584C560.491 308.245 562.207 306.998 564.078 306.842H564.779C566.65 306.842 567.898 307.31 568.521 308.245C569.301 309.025 569.691 310.038 569.691 311.286C569.691 313.624 568.677 316.197 566.65 319.004C564.623 321.654 562.596 322.98 560.569 322.98ZM548.642 406.709C543.34 406.709 539.754 404.682 537.883 400.628C536.012 396.574 535.076 391.897 535.076 386.595C535.076 381.294 535.622 375.759 536.714 369.99C537.961 364.065 539.286 358.685 540.69 353.852C542.249 349.018 543.418 345.588 544.198 343.561C545.913 339.975 547.628 336.934 549.343 334.44C551.058 331.789 552.929 330.464 554.956 330.464C556.36 330.464 557.373 331.009 557.997 332.101C558.776 333.036 559.166 334.284 559.166 335.843C559.166 338.961 558.309 342.158 556.593 345.432C554.878 348.551 553.319 351.513 551.916 354.32C548.797 360.712 546.303 366.403 544.432 371.393C542.717 376.382 541.859 382.619 541.859 390.103C541.859 394.937 542.327 398.445 543.262 400.628C544.354 402.811 545.835 403.902 547.706 403.902C550.201 403.902 553.085 402.499 556.36 399.693C559.634 396.73 562.986 392.832 566.416 387.998C569.847 383.165 572.887 377.942 575.538 372.328C577.253 368.742 578.578 366.949 579.514 366.949C580.137 366.949 580.449 367.573 580.449 368.82C580.449 370.535 579.748 373.03 578.344 376.304C577.097 379.423 575.538 382.619 573.667 385.894C571.952 389.168 570.314 391.741 568.755 393.612C566.105 397.042 563.064 400.082 559.634 402.733C556.204 405.384 552.54 406.709 548.642 406.709Z" fill="white"/>
<path fill-rule="evenodd" clip-rule="evenodd" d="M563.85 301.36H564.779C567.128 301.36 570.549 301.888 572.748 304.739C574.443 306.624 575.172 308.948 575.172 311.285C575.172 315.21 573.487 318.899 571.094 322.213L571.05 322.273L571.005 322.333C568.875 325.117 565.922 327.787 562.073 328.352C562.222 328.546 562.365 328.749 562.501 328.961C564.085 331.054 564.648 333.507 564.648 335.843C564.648 339.997 563.499 344.061 561.449 347.975L561.423 348.025L561.396 348.073C559.716 351.128 558.195 354.019 556.831 356.747C553.786 362.989 551.38 368.484 549.592 373.244C548.152 377.467 547.34 383.031 547.34 390.103C547.34 394.608 547.788 397.148 548.241 398.322C548.244 398.328 548.247 398.333 548.25 398.338C549.046 398.135 550.51 397.476 552.737 395.577C555.619 392.961 558.694 389.408 561.946 384.826C565.182 380.267 568.061 375.323 570.581 369.987L570.587 369.975L570.593 369.963C571.503 368.059 572.44 366.348 573.41 365.035C573.89 364.386 574.525 363.631 575.333 362.99C576.087 362.392 577.531 361.467 579.514 361.467C580.629 361.467 581.849 361.762 582.964 362.505C584.044 363.225 584.715 364.159 585.118 364.965C585.847 366.422 585.931 367.916 585.931 368.82C585.931 371.701 584.844 375.043 583.409 378.402C582.073 381.734 580.424 385.109 578.476 388.526C576.699 391.908 574.893 394.792 573.033 397.041C570.111 400.808 566.759 404.154 562.986 407.07C558.709 410.375 553.889 412.19 548.641 412.19C545.31 412.19 542.098 411.554 539.279 409.96C536.4 408.333 534.28 405.903 532.906 402.925C530.646 398.028 529.595 392.543 529.595 386.595C529.595 380.917 530.179 375.04 531.327 368.97L531.338 368.915L531.349 368.86C532.62 362.827 533.977 357.312 535.425 352.323L535.448 352.246L535.473 352.169C537.033 347.332 538.242 343.774 539.081 341.593L539.159 341.391L539.253 341.196C541.042 337.454 542.881 334.171 544.784 331.394C546.721 328.425 549.62 325.57 553.667 325.062C553.191 324.431 552.815 323.764 552.52 323.101L552.378 322.783L552.278 322.449C551.827 320.944 551.346 319.132 551.346 317.6C551.346 314.01 552.374 310.649 554.321 307.619L554.346 307.581L554.371 307.543C556.384 304.523 559.388 301.732 563.622 301.379L563.85 301.36ZM574.963 368.717C574.964 368.715 574.967 368.737 574.967 368.786C574.963 368.743 574.962 368.719 574.963 368.717ZM547.281 351.333C548.641 348.631 550.135 345.8 551.762 342.842C552.643 341.151 553.188 339.587 553.464 338.133C552.102 340.188 550.69 342.709 549.238 345.728C548.756 346.996 548.106 348.856 547.281 351.333ZM563.635 313.417C563.597 313.471 563.558 313.527 563.519 313.586C563.258 313.995 563.043 314.403 562.87 314.812C563.194 314.296 563.444 313.831 563.635 313.417Z" fill="white"/>
<path d="M451.654 431.164C439.648 431.164 428.968 428.123 419.612 422.042C410.257 416.117 402.305 408.166 395.757 398.187C389.364 388.208 384.452 377.137 381.022 364.975C377.748 352.658 376.111 340.262 376.111 327.788C376.111 316.874 377.436 306.349 380.087 296.215C382.737 286.08 386.869 277.036 392.482 269.084C398.095 260.976 405.112 254.584 413.532 249.906C422.107 245.228 432.242 242.89 443.936 242.89C455.162 242.89 464.284 244.917 471.3 248.971C478.473 253.024 483.774 258.248 487.204 264.641C490.634 271.033 492.349 277.738 492.349 284.754C492.349 291.771 490.712 298.631 487.438 305.336C484.164 311.885 479.408 317.342 473.171 321.708C467.09 325.917 459.606 328.178 450.719 328.49C449.315 328.49 448.614 328.178 448.614 327.555C448.614 326.307 450.095 325.528 453.057 325.216C459.45 325.06 464.907 323.189 469.429 319.603C473.951 315.86 477.381 311.183 479.72 305.57C482.059 299.801 483.228 293.798 483.228 287.561C483.228 280.856 481.747 274.386 478.784 268.149C475.978 261.912 471.534 256.767 465.453 252.713C459.372 248.659 451.576 246.632 442.065 246.632C432.554 246.632 424.368 248.737 417.508 252.947C410.647 257.156 404.956 262.925 400.434 270.254C396.068 277.426 392.794 285.612 390.611 294.811C388.428 304.011 387.337 313.678 387.337 323.812C387.337 336.13 388.818 348.37 391.781 360.532C394.899 372.694 399.343 383.842 405.112 393.977C410.881 403.956 417.897 411.908 426.161 417.833C434.425 423.913 443.858 426.954 454.461 426.954C461.633 426.954 468.26 425.317 474.341 422.042C480.422 418.924 485.333 414.09 489.075 407.542C492.973 401.149 494.922 393.119 494.922 383.452C494.922 380.022 494.688 376.436 494.22 372.694C493.753 368.951 492.895 364.975 491.648 360.766C491.492 360.298 491.414 359.752 491.414 359.128C491.414 358.037 491.726 357.491 492.349 357.491C493.129 357.491 493.831 358.271 494.454 359.83C497.417 368.718 498.898 377.059 498.898 384.855C498.898 394.055 496.949 402.085 493.051 408.945C489.153 415.962 483.696 421.419 476.679 425.317C469.663 429.215 461.321 431.164 451.654 431.164Z" fill="white"/>
<path fill-rule="evenodd" clip-rule="evenodd" d="M465.979 315.342C469.761 312.2 472.649 308.278 474.65 303.485C476.716 298.379 477.746 293.084 477.746 287.561C477.746 281.694 476.457 276.025 473.833 270.5L473.809 270.449L473.785 270.398C471.431 265.165 467.698 260.797 462.412 257.273C457.467 253.976 450.816 252.113 442.065 252.113C433.38 252.113 426.226 254.027 420.374 257.618C414.3 261.346 409.21 266.474 405.108 273.118C401.08 279.738 398.01 287.373 395.945 296.076C393.867 304.833 392.818 314.073 392.818 323.812C392.818 335.675 394.243 347.469 397.099 359.202C400.103 370.908 404.366 381.582 409.866 391.248C415.296 400.636 421.808 407.966 429.355 413.377L429.383 413.397L429.41 413.417C436.699 418.781 444.985 421.472 454.461 421.472C460.762 421.472 466.491 420.043 471.742 417.216L471.79 417.19L471.839 417.164C476.877 414.581 481.044 410.547 484.316 404.822L484.354 404.754L484.395 404.688C487.637 399.371 489.44 392.4 489.44 383.452C489.44 380.27 489.223 376.912 488.781 373.373C488.358 369.991 487.577 366.333 486.412 362.39C486.055 361.274 485.932 360.159 485.932 359.128C485.932 358.24 486.028 356.687 486.888 355.181C488.011 353.216 490.051 352.009 492.349 352.009C494.778 352.009 496.52 353.282 497.535 354.409C498.498 355.479 499.119 356.731 499.544 357.794L499.604 357.944L499.655 358.096C502.767 367.434 504.38 376.365 504.38 384.855C504.38 394.835 502.261 403.82 497.831 411.628C493.436 419.529 487.245 425.717 479.341 430.108C471.359 434.543 462.063 436.645 451.654 436.645C438.683 436.645 426.958 433.347 416.652 426.656C406.599 420.283 398.11 411.764 391.174 401.194L391.157 401.169L391.141 401.143C384.438 390.681 379.313 379.11 375.746 366.463L375.735 366.423L375.724 366.383C372.331 353.616 370.629 340.747 370.629 327.788C370.629 316.425 372.009 305.433 374.783 294.827C377.585 284.114 381.977 274.467 387.99 265.943C394.067 257.171 401.704 250.206 410.869 245.114L410.888 245.104L410.907 245.093C420.432 239.898 431.505 237.408 443.936 237.408C455.76 237.408 465.913 239.534 474.02 244.211C481.958 248.703 488.053 254.629 492.034 262.048C495.877 269.21 497.831 276.802 497.831 284.754C497.831 292.657 495.98 300.336 492.363 307.741L492.352 307.764L492.341 307.787C488.642 315.184 483.267 321.331 476.315 326.198L476.303 326.206L476.291 326.214C469.187 331.133 460.633 333.627 450.911 333.968L450.815 333.971H450.718C449.781 333.971 448.327 333.893 446.914 333.265C446.143 332.922 445.157 332.316 444.36 331.252C443.512 330.121 443.132 328.812 443.132 327.554C443.132 324.2 445.342 322.146 447.171 321.183C448.832 320.309 450.764 319.945 452.483 319.764L452.703 319.741L452.924 319.735C458.239 319.606 462.499 318.086 465.979 315.342ZM496.895 359.128C496.895 359.074 496.9 359.086 496.896 359.153C496.895 359.145 496.895 359.137 496.895 359.128ZM393.502 382.821C390.688 376.182 388.345 369.204 386.471 361.893L386.462 361.861L386.455 361.829C383.39 349.249 381.855 336.574 381.855 323.812C381.855 321.85 381.895 319.904 381.973 317.973C381.719 321.204 381.592 324.475 381.592 327.788C381.592 339.762 383.161 351.672 386.309 363.527C388.231 370.332 390.63 376.761 393.502 382.821ZM450.519 323C450.52 322.999 450.539 323 450.574 323.005C450.535 323.003 450.518 323.001 450.519 323Z" fill="white"/>
<path d="M131.541 502.904C130.721 502.904 129.994 503.057 129.361 503.361C128.752 503.643 128.201 504.018 127.709 504.486C127.217 504.955 126.807 505.459 126.478 505.998C126.15 506.514 125.857 507.006 125.6 507.475C125.365 507.943 125.178 508.33 125.037 508.635C124.92 508.939 124.838 509.092 124.791 509.092C124.158 509.092 123.713 508.928 123.455 508.6C123.197 508.271 123.033 507.873 122.963 507.404C122.893 506.912 122.881 506.408 122.928 505.893C122.998 505.354 123.033 504.885 123.033 504.486V503.889C123.033 503.607 123.033 503.314 123.033 503.01C123.057 502.705 123.068 502.424 123.068 502.166V501.568C123.139 501.381 123.232 501.275 123.35 501.252C123.467 501.229 123.596 501.217 123.736 501.217C123.947 501.217 124.123 501.346 124.264 501.604C124.404 501.838 124.533 502.131 124.65 502.482C124.768 502.834 124.861 503.186 124.932 503.537C125.002 503.865 125.06 504.123 125.107 504.311C125.389 504.264 125.646 504.146 125.881 503.959C126.115 503.771 126.35 503.549 126.584 503.291C126.842 503.033 127.111 502.764 127.393 502.482C127.674 502.201 128.002 501.943 128.377 501.709C128.752 501.451 129.185 501.24 129.678 501.076C130.193 500.912 130.779 500.83 131.435 500.83C132.748 500.83 133.826 501.123 134.67 501.709C135.514 502.271 136.158 503.021 136.603 503.959C137.072 504.873 137.389 505.916 137.553 507.088C137.717 508.236 137.799 509.408 137.799 510.604C137.096 510.604 136.545 510.498 136.146 510.287C135.771 510.053 135.502 509.76 135.338 509.408C135.174 509.033 135.08 508.623 135.057 508.178C135.033 507.709 135.021 507.24 135.021 506.771C135.021 506.279 134.986 505.799 134.916 505.33C134.869 504.861 134.728 504.451 134.494 504.1C134.283 503.748 133.943 503.467 133.475 503.256C133.029 503.021 132.385 502.904 131.541 502.904ZM138.783 506.314C138.783 505.518 138.924 504.697 139.205 503.854C139.486 503.01 139.885 502.236 140.4 501.533C140.939 500.83 141.572 500.256 142.299 499.811C143.025 499.365 143.857 499.143 144.795 499.143C146.107 499.143 147.209 499.271 148.1 499.529C148.99 499.787 149.717 500.186 150.279 500.725C150.842 501.24 151.24 501.92 151.475 502.764C151.732 503.584 151.861 504.557 151.861 505.682C151.861 505.752 151.85 505.893 151.826 506.104C151.826 506.291 151.826 506.49 151.826 506.701C151.826 506.912 151.814 507.123 151.791 507.334C151.791 507.521 151.791 507.662 151.791 507.756C151.627 508.342 151.31 508.822 150.842 509.197C150.396 509.549 149.869 509.818 149.26 510.006C148.674 510.193 148.053 510.322 147.396 510.393C146.764 510.463 146.189 510.498 145.674 510.498C144.947 510.498 144.185 510.451 143.389 510.357C142.592 510.264 141.842 510.076 141.139 509.795C140.459 509.49 139.896 509.068 139.451 508.529C139.006 507.967 138.783 507.229 138.783 506.314ZM140.541 505.857C140.541 506.467 140.717 506.971 141.068 507.369C141.443 507.744 141.889 508.037 142.404 508.248C142.92 508.459 143.471 508.6 144.057 508.67C144.666 508.74 145.182 508.775 145.603 508.775C146.025 508.775 146.389 508.775 146.693 508.775C147.021 508.775 147.338 508.74 147.643 508.67C147.947 508.6 148.264 508.494 148.592 508.354C148.92 508.213 149.307 508.014 149.752 507.756C149.986 507.381 150.115 507.018 150.139 506.666C150.162 506.291 150.174 505.904 150.174 505.506C150.174 504.709 150.021 504.006 149.717 503.396C149.412 502.787 149.002 502.295 148.486 501.92C147.971 501.545 147.35 501.299 146.623 501.182C145.92 501.041 145.135 501.053 144.268 501.217C143.916 501.287 143.518 501.498 143.072 501.85C142.627 502.201 142.217 502.611 141.842 503.08C141.467 503.549 141.15 504.041 140.893 504.557C140.658 505.049 140.541 505.482 140.541 505.857ZM157.768 501.287C157.111 501.287 156.502 501.346 155.939 501.463C155.4 501.557 154.803 501.604 154.146 501.604C153.889 501.604 153.725 501.51 153.654 501.322C153.584 501.111 153.549 500.912 153.549 500.725V500.549C153.596 500.455 153.666 500.338 153.76 500.197C153.877 500.057 153.994 499.928 154.111 499.811C154.228 499.67 154.322 499.553 154.393 499.459C154.486 499.365 154.545 499.318 154.568 499.318H157.803V494.045C157.803 493.951 157.838 493.881 157.908 493.834C157.978 493.787 158.06 493.752 158.154 493.729C158.271 493.682 158.377 493.658 158.471 493.658C158.564 493.635 158.635 493.623 158.682 493.623C159.057 493.623 159.326 493.764 159.49 494.045C159.678 494.303 159.795 494.631 159.842 495.029C159.912 495.428 159.935 495.861 159.912 496.33C159.912 496.799 159.912 497.232 159.912 497.631C159.912 498.029 159.935 498.381 159.982 498.686C160.053 498.967 160.193 499.119 160.404 499.143C160.592 499.166 160.943 499.213 161.459 499.283C161.998 499.33 162.549 499.4 163.111 499.494C163.697 499.564 164.248 499.635 164.764 499.705C165.279 499.775 165.654 499.822 165.889 499.846C165.935 499.846 166.018 499.869 166.135 499.916C166.275 499.939 166.416 499.963 166.557 499.986C166.721 500.01 166.861 500.045 166.978 500.092C167.096 500.139 167.178 500.174 167.225 500.197C167.271 500.197 167.342 500.244 167.435 500.338C167.529 500.432 167.576 500.502 167.576 500.549C167.576 500.713 167.529 500.865 167.435 501.006C167.342 501.146 167.225 501.264 167.084 501.357C166.943 501.428 166.791 501.486 166.627 501.533C166.486 501.557 166.346 501.568 166.205 501.568C166.158 501.568 166.029 501.557 165.818 501.533C165.607 501.486 165.385 501.439 165.15 501.393C164.939 501.346 164.728 501.311 164.518 501.287C164.33 501.24 164.213 501.217 164.166 501.217H163.814C163.603 501.217 163.381 501.217 163.146 501.217C162.912 501.217 162.678 501.217 162.443 501.217H161.494C161.33 501.217 161.166 501.217 161.002 501.217C160.838 501.217 160.697 501.217 160.58 501.217H160.404L160.053 501.568C160.053 501.592 160.053 501.674 160.053 501.814C160.053 501.955 160.041 502.119 160.018 502.307C159.994 502.494 159.971 502.693 159.947 502.904C159.947 503.092 159.947 503.244 159.947 503.361C159.947 504.627 160.076 505.623 160.334 506.35C160.592 507.076 160.99 507.627 161.529 508.002C162.092 508.354 162.795 508.576 163.639 508.67C164.506 508.74 165.56 508.775 166.803 508.775C166.943 508.775 167.131 508.775 167.365 508.775C167.6 508.775 167.834 508.775 168.068 508.775C168.303 508.775 168.502 508.775 168.666 508.775C168.83 508.752 168.924 508.74 168.947 508.74C168.971 508.74 169.029 508.729 169.123 508.705C169.217 508.658 169.322 508.623 169.439 508.6C169.58 508.553 169.685 508.506 169.756 508.459C169.85 508.412 169.92 508.389 169.967 508.389C170.06 508.389 170.131 508.436 170.178 508.529C170.248 508.6 170.295 508.693 170.318 508.811C170.342 508.928 170.353 509.033 170.353 509.127V509.373C170.353 509.748 170.271 510.018 170.107 510.182C169.943 510.346 169.557 510.439 168.947 510.463H168.35C168.068 510.463 167.775 510.463 167.471 510.463C167.189 510.486 166.896 510.498 166.592 510.498H166.064C164.728 510.498 163.592 510.451 162.654 510.357C161.717 510.24 160.943 510.064 160.334 509.83C159.725 509.572 159.244 509.232 158.893 508.811C158.541 508.389 158.283 507.838 158.119 507.158C157.978 506.479 157.885 505.658 157.838 504.697C157.791 503.736 157.768 502.6 157.768 501.287ZM182.025 502.904C181.322 502.904 180.713 503.033 180.197 503.291C179.705 503.549 179.26 503.865 178.861 504.24C178.463 504.615 178.123 505.037 177.842 505.506C177.56 505.951 177.279 506.373 176.998 506.771C176.717 507.146 176.424 507.463 176.119 507.721C175.814 507.979 175.463 508.107 175.064 508.107C174.783 508.107 174.56 507.99 174.396 507.756C174.256 507.521 174.15 507.275 174.08 507.018C173.775 506.01 173.459 504.932 173.131 503.783C172.826 502.611 172.533 501.428 172.252 500.232C171.971 499.037 171.736 497.842 171.549 496.646C171.361 495.428 171.268 494.268 171.268 493.166V492.955C171.268 492.838 171.268 492.721 171.268 492.604C171.291 492.463 171.303 492.346 171.303 492.252V491.971C171.35 491.76 171.467 491.654 171.654 491.654C171.842 491.631 172.018 491.619 172.182 491.619C172.205 491.619 172.287 491.619 172.428 491.619C172.592 491.619 172.685 491.619 172.709 491.619C172.756 491.971 172.838 492.51 172.955 493.236C173.072 493.963 173.213 494.771 173.377 495.662C173.564 496.553 173.752 497.479 173.939 498.439C174.15 499.377 174.361 500.232 174.572 501.006C174.807 501.779 175.041 502.412 175.275 502.904C175.51 503.396 175.732 503.643 175.943 503.643C176.295 503.643 176.705 503.502 177.174 503.221C177.643 502.939 178.135 502.623 178.65 502.271C179.189 501.92 179.752 501.592 180.338 501.287C180.947 500.982 181.58 500.83 182.236 500.83C182.377 500.83 182.564 500.842 182.799 500.865C183.033 500.865 183.268 500.877 183.502 500.9C183.76 500.924 183.994 500.959 184.205 501.006C184.439 501.053 184.592 501.123 184.662 501.217L187.791 504.311C187.978 504.498 188.143 504.838 188.283 505.33C188.424 505.822 188.541 506.35 188.635 506.912C188.728 507.475 188.787 508.014 188.81 508.529C188.834 509.021 188.846 509.408 188.846 509.689C188.846 510.018 188.74 510.24 188.529 510.357C188.318 510.451 188.072 510.498 187.791 510.498C187.416 510.498 187.146 510.311 186.982 509.936C186.818 509.561 186.666 509.092 186.525 508.529C186.408 507.943 186.268 507.334 186.103 506.701C185.939 506.045 185.705 505.436 185.4 504.873C185.096 504.287 184.674 503.818 184.135 503.467C183.619 503.092 182.916 502.904 182.025 502.904ZM190.85 510.146C190.685 509.678 190.533 509.174 190.393 508.635C190.275 508.072 190.17 507.498 190.076 506.912C190.006 506.326 189.947 505.752 189.9 505.189C189.853 504.627 189.83 504.1 189.83 503.607C189.83 503.537 189.842 503.408 189.865 503.221C189.889 503.01 189.912 502.799 189.935 502.588C189.982 502.377 190.029 502.178 190.076 501.99C190.123 501.779 190.158 501.639 190.182 501.568C190.205 501.545 190.31 501.521 190.498 501.498C190.685 501.475 190.803 501.463 190.85 501.463C191.154 501.463 191.4 501.627 191.588 501.955C191.775 502.283 191.939 502.705 192.08 503.221C192.221 503.736 192.314 504.311 192.361 504.943C192.432 505.553 192.49 506.15 192.537 506.736C192.584 507.299 192.607 507.803 192.607 508.248C192.607 508.693 192.607 508.998 192.607 509.162C192.607 509.232 192.607 509.35 192.607 509.514C192.631 509.654 192.631 509.807 192.607 509.971C192.584 510.111 192.525 510.229 192.432 510.322C192.361 510.416 192.232 510.463 192.045 510.463H191.904C191.857 510.463 191.787 510.451 191.693 510.428C191.6 510.381 191.494 510.346 191.377 510.322C191.26 510.275 191.154 510.24 191.06 510.217C190.967 510.193 190.896 510.17 190.85 510.146ZM190.463 494.643C190.463 494.057 190.838 493.623 191.588 493.342C191.752 493.271 191.893 493.295 192.01 493.412C192.15 493.529 192.256 493.682 192.326 493.869C192.42 494.057 192.478 494.256 192.502 494.467C192.549 494.654 192.572 494.795 192.572 494.889C192.572 495.029 192.537 495.146 192.467 495.24C192.396 495.311 192.303 495.357 192.185 495.381C192.092 495.404 191.986 495.416 191.869 495.416H191.588C191.26 495.416 190.99 495.381 190.779 495.311C190.568 495.24 190.463 495.018 190.463 494.643ZM202.416 502.904C201.596 502.904 200.869 503.057 200.236 503.361C199.627 503.643 199.076 504.018 198.584 504.486C198.092 504.955 197.682 505.459 197.353 505.998C197.025 506.514 196.732 507.006 196.475 507.475C196.24 507.943 196.053 508.33 195.912 508.635C195.795 508.939 195.713 509.092 195.666 509.092C195.033 509.092 194.588 508.928 194.33 508.6C194.072 508.271 193.908 507.873 193.838 507.404C193.768 506.912 193.756 506.408 193.803 505.893C193.873 505.354 193.908 504.885 193.908 504.486V503.889C193.908 503.607 193.908 503.314 193.908 503.01C193.932 502.705 193.943 502.424 193.943 502.166V501.568C194.014 501.381 194.107 501.275 194.225 501.252C194.342 501.229 194.471 501.217 194.611 501.217C194.822 501.217 194.998 501.346 195.139 501.604C195.279 501.838 195.408 502.131 195.525 502.482C195.643 502.834 195.736 503.186 195.807 503.537C195.877 503.865 195.935 504.123 195.982 504.311C196.264 504.264 196.521 504.146 196.756 503.959C196.99 503.771 197.225 503.549 197.459 503.291C197.717 503.033 197.986 502.764 198.268 502.482C198.549 502.201 198.877 501.943 199.252 501.709C199.627 501.451 200.06 501.24 200.553 501.076C201.068 500.912 201.654 500.83 202.31 500.83C203.623 500.83 204.701 501.123 205.545 501.709C206.389 502.271 207.033 503.021 207.478 503.959C207.947 504.873 208.264 505.916 208.428 507.088C208.592 508.236 208.674 509.408 208.674 510.604C207.971 510.604 207.42 510.498 207.021 510.287C206.646 510.053 206.377 509.76 206.213 509.408C206.049 509.033 205.955 508.623 205.932 508.178C205.908 507.709 205.896 507.24 205.896 506.771C205.896 506.279 205.861 505.799 205.791 505.33C205.744 504.861 205.603 504.451 205.369 504.1C205.158 503.748 204.818 503.467 204.35 503.256C203.904 503.021 203.26 502.904 202.416 502.904ZM209.588 518.971C209.869 518.971 210.127 519.1 210.361 519.357C210.619 519.639 210.865 519.955 211.1 520.307C211.334 520.658 211.557 521.01 211.768 521.361C211.978 521.736 212.201 521.994 212.435 522.135C212.928 522.533 213.478 522.861 214.088 523.119C214.721 523.377 215.365 523.576 216.021 523.717C216.678 523.881 217.334 523.998 217.99 524.068C218.67 524.162 219.326 524.209 219.959 524.209C220.006 524.209 220.088 524.197 220.205 524.174C220.346 524.174 220.486 524.174 220.627 524.174C220.768 524.174 220.896 524.162 221.014 524.139C221.154 524.139 221.248 524.139 221.295 524.139C221.646 523.975 221.916 523.752 222.103 523.471C222.314 523.213 222.455 522.92 222.525 522.592C222.619 522.287 222.678 521.959 222.701 521.607C222.725 521.256 222.736 520.904 222.736 520.553C222.736 520.295 222.713 519.85 222.666 519.217C222.643 518.607 222.596 517.881 222.525 517.037C222.455 516.217 222.361 515.35 222.244 514.436C222.15 513.521 222.01 512.654 221.822 511.834C221.658 511.014 221.447 510.299 221.189 509.689C220.932 509.08 220.639 508.658 220.31 508.424C220.076 508.682 219.842 508.939 219.607 509.197C219.373 509.432 219.103 509.643 218.799 509.83C218.518 510.018 218.225 510.17 217.92 510.287C217.615 510.404 217.275 510.463 216.9 510.463C216.15 510.463 215.353 510.381 214.51 510.217C213.666 510.053 212.881 509.771 212.154 509.373C211.428 508.975 210.83 508.471 210.361 507.861C209.893 507.229 209.658 506.443 209.658 505.506C209.658 504.639 209.893 503.912 210.361 503.326C210.83 502.717 211.404 502.236 212.084 501.885C212.787 501.51 213.549 501.24 214.369 501.076C215.189 500.912 215.963 500.83 216.689 500.83C216.924 500.83 217.205 500.842 217.533 500.865C217.885 500.865 218.236 500.889 218.588 500.936C218.939 500.982 219.268 501.053 219.572 501.146C219.877 501.24 220.123 501.381 220.31 501.568C220.334 501.615 220.357 501.744 220.381 501.955C220.428 502.143 220.463 502.354 220.486 502.588C220.533 502.822 220.568 503.045 220.592 503.256C220.615 503.467 220.627 503.584 220.627 503.607C220.721 504.029 220.85 504.439 221.014 504.838C221.201 505.213 221.4 505.611 221.611 506.033C221.822 506.432 222.021 506.83 222.209 507.229C222.396 507.627 222.549 508.025 222.666 508.424C223.299 510.439 223.814 512.443 224.213 514.436C224.611 516.428 224.81 518.479 224.81 520.588C224.81 520.682 224.799 520.846 224.775 521.08C224.775 521.338 224.775 521.596 224.775 521.854C224.775 522.135 224.764 522.393 224.74 522.627C224.74 522.885 224.74 523.061 224.74 523.154C224.717 523.764 224.529 524.268 224.178 524.666C223.826 525.088 223.393 525.404 222.877 525.615C222.385 525.85 221.846 526.014 221.26 526.107C220.697 526.225 220.193 526.283 219.748 526.283C218.998 526.283 218.213 526.213 217.393 526.072C216.596 525.955 215.822 525.768 215.072 525.51C214.322 525.252 213.607 524.924 212.928 524.525C212.271 524.15 211.697 523.693 211.205 523.154C210.713 522.615 210.314 522.006 210.01 521.326C209.728 520.646 209.588 519.861 209.588 518.971ZM211.697 505.717C211.697 506.186 211.838 506.596 212.119 506.947C212.4 507.299 212.752 507.592 213.174 507.826C213.596 508.037 214.041 508.201 214.51 508.318C214.978 508.412 215.389 508.459 215.74 508.459C217.076 508.459 218.002 508.131 218.518 507.475C219.033 506.795 219.291 505.811 219.291 504.521C219.291 504.146 219.221 503.854 219.08 503.643C218.939 503.408 218.752 503.244 218.518 503.15C218.283 503.057 218.014 502.998 217.709 502.975C217.404 502.928 217.1 502.904 216.795 502.904C216.373 502.904 215.869 502.951 215.283 503.045C214.697 503.115 214.135 503.256 213.596 503.467C213.08 503.678 212.635 503.971 212.26 504.346C211.885 504.697 211.697 505.154 211.697 505.717ZM235.814 505.049C235.814 504.041 236.084 503.221 236.623 502.588C237.162 501.932 237.818 501.428 238.592 501.076C239.389 500.725 240.244 500.49 241.158 500.373C242.096 500.232 242.963 500.162 243.76 500.162H244.182C244.346 500.162 244.533 500.174 244.744 500.197C244.978 500.197 245.189 500.197 245.377 500.197H245.799C246.268 500.268 246.572 500.408 246.713 500.619C246.853 500.807 246.924 501.053 246.924 501.357C246.924 501.732 246.795 502.037 246.537 502.271C246.303 502.506 245.998 502.623 245.623 502.623C245.389 502.623 245.225 502.588 245.131 502.518C245.06 502.424 244.99 502.33 244.92 502.236C244.873 502.143 244.803 502.061 244.709 501.99C244.615 501.896 244.439 501.85 244.182 501.85C243.83 501.85 243.432 501.873 242.986 501.92C242.541 501.967 242.084 502.037 241.615 502.131C241.146 502.225 240.689 502.354 240.244 502.518C239.799 502.682 239.4 502.893 239.049 503.15C238.697 503.408 238.416 503.725 238.205 504.1C237.994 504.451 237.889 504.885 237.889 505.4C237.889 505.822 238.006 506.209 238.24 506.561C238.498 506.889 238.826 507.182 239.225 507.439C239.623 507.697 240.068 507.92 240.56 508.107C241.076 508.271 241.58 508.4 242.072 508.494C242.564 508.588 243.033 508.658 243.478 508.705C243.947 508.752 244.322 508.775 244.603 508.775C245.26 508.775 245.869 508.682 246.432 508.494C246.994 508.283 247.545 508.061 248.084 507.826C248.646 507.592 249.197 507.381 249.736 507.193C250.275 507.006 250.826 506.912 251.389 506.912C251.389 507.756 251.143 508.424 250.65 508.916C250.182 509.408 249.584 509.771 248.857 510.006C248.131 510.24 247.357 510.381 246.537 510.428C245.717 510.475 244.967 510.498 244.287 510.498C243.725 510.498 243.115 510.475 242.459 510.428C241.826 510.357 241.193 510.252 240.56 510.111C239.928 509.947 239.33 509.736 238.768 509.479C238.205 509.221 237.701 508.893 237.256 508.494C236.834 508.072 236.482 507.58 236.201 507.018C235.943 506.455 235.814 505.799 235.814 505.049ZM262.639 502.904C261.935 502.904 261.326 503.033 260.81 503.291C260.318 503.549 259.873 503.865 259.475 504.24C259.076 504.615 258.736 505.037 258.455 505.506C258.174 505.951 257.893 506.373 257.611 506.771C257.33 507.146 257.037 507.463 256.732 507.721C256.428 507.979 256.076 508.107 255.678 508.107C255.396 508.107 255.174 507.99 255.01 507.756C254.869 507.521 254.764 507.275 254.693 507.018C254.389 506.01 254.072 504.932 253.744 503.783C253.439 502.611 253.146 501.428 252.865 500.232C252.584 499.037 252.35 497.842 252.162 496.646C251.975 495.428 251.881 494.268 251.881 493.166V492.955C251.881 492.838 251.881 492.721 251.881 492.604C251.904 492.463 251.916 492.346 251.916 492.252V491.971C251.963 491.76 252.08 491.654 252.268 491.654C252.455 491.631 252.631 491.619 252.795 491.619C252.818 491.619 252.9 491.619 253.041 491.619C253.205 491.619 253.299 491.619 253.322 491.619C253.369 491.971 253.451 492.51 253.568 493.236C253.685 493.963 253.826 494.771 253.99 495.662C254.178 496.553 254.365 497.479 254.553 498.439C254.764 499.377 254.975 500.232 255.185 501.006C255.42 501.779 255.654 502.412 255.889 502.904C256.123 503.396 256.346 503.643 256.557 503.643C256.908 503.643 257.318 503.502 257.787 503.221C258.256 502.939 258.748 502.623 259.264 502.271C259.803 501.92 260.365 501.592 260.951 501.287C261.56 500.982 262.193 500.83 262.85 500.83C262.99 500.83 263.178 500.842 263.412 500.865C263.646 500.865 263.881 500.877 264.115 500.9C264.373 500.924 264.607 500.959 264.818 501.006C265.053 501.053 265.205 501.123 265.275 501.217L268.404 504.311C268.592 504.498 268.756 504.838 268.896 505.33C269.037 505.822 269.154 506.35 269.248 506.912C269.342 507.475 269.4 508.014 269.424 508.529C269.447 509.021 269.459 509.408 269.459 509.689C269.459 510.018 269.353 510.24 269.143 510.357C268.932 510.451 268.685 510.498 268.404 510.498C268.029 510.498 267.76 510.311 267.596 509.936C267.432 509.561 267.279 509.092 267.139 508.529C267.021 507.943 266.881 507.334 266.717 506.701C266.553 506.045 266.318 505.436 266.014 504.873C265.709 504.287 265.287 503.818 264.748 503.467C264.232 503.092 263.529 502.904 262.639 502.904ZM280.182 508.74C279.807 508.74 279.408 508.799 278.986 508.916C278.588 509.01 278.189 509.127 277.791 509.268C277.393 509.408 276.971 509.537 276.525 509.654C276.103 509.748 275.67 509.795 275.225 509.795C274.545 509.795 273.889 509.689 273.256 509.479C272.623 509.268 272.06 508.951 271.568 508.529C271.1 508.107 270.725 507.604 270.443 507.018C270.162 506.408 270.021 505.729 270.021 504.979C270.021 504.322 270.221 503.713 270.619 503.15C271.041 502.588 271.557 502.119 272.166 501.744C272.775 501.369 273.432 501.076 274.135 500.865C274.838 500.654 275.471 500.549 276.033 500.549C276.291 500.549 276.607 500.572 276.982 500.619C277.381 500.643 277.803 500.701 278.248 500.795C278.717 500.865 279.185 500.971 279.654 501.111C280.123 501.229 280.545 501.393 280.92 501.604C281.318 501.814 281.646 502.061 281.904 502.342C282.185 502.6 282.35 502.904 282.396 503.256C282.396 503.373 282.373 503.584 282.326 503.889C282.279 504.17 282.244 504.475 282.221 504.803C282.197 505.131 282.162 505.447 282.115 505.752C282.092 506.033 282.068 506.244 282.045 506.385V506.596C282.045 507.111 282.162 507.498 282.396 507.756C282.631 508.014 282.912 508.201 283.24 508.318C283.592 508.412 283.955 508.459 284.33 508.459H285.455C285.807 508.459 286.029 508.459 286.123 508.459C286.217 508.436 286.275 508.424 286.299 508.424C286.346 508.424 286.404 508.424 286.475 508.424C286.568 508.4 286.803 508.389 287.178 508.389C287.482 508.389 287.717 508.447 287.881 508.564C288.045 508.682 288.127 508.928 288.127 509.303C288.127 509.701 287.998 509.982 287.74 510.146C287.482 510.311 287.178 510.416 286.826 510.463C286.475 510.533 286.123 510.557 285.771 510.533C285.42 510.51 285.15 510.498 284.963 510.498C284.424 510.498 283.908 510.404 283.416 510.217C282.947 510.029 282.514 509.83 282.115 509.619C281.717 509.385 281.353 509.186 281.025 509.021C280.697 508.834 280.416 508.74 280.182 508.74ZM272.096 505.33C272.096 505.893 272.213 506.35 272.447 506.701C272.705 507.029 273.01 507.275 273.361 507.439C273.736 507.58 274.146 507.674 274.592 507.721C275.037 507.744 275.471 507.756 275.893 507.756C276.057 507.756 276.326 507.744 276.701 507.721C277.1 507.697 277.51 507.65 277.932 507.58C278.353 507.486 278.728 507.369 279.057 507.229C279.408 507.088 279.607 506.912 279.654 506.701L280.357 503.959C280.404 503.771 280.357 503.607 280.217 503.467C280.076 503.326 279.877 503.209 279.619 503.115C279.385 503.021 279.115 502.939 278.81 502.869C278.529 502.799 278.248 502.74 277.967 502.693C277.685 502.646 277.428 502.611 277.193 502.588C276.982 502.564 276.853 502.553 276.807 502.553C276.385 502.553 275.893 502.6 275.33 502.693C274.791 502.764 274.275 502.904 273.783 503.115C273.314 503.303 272.916 503.572 272.588 503.924C272.26 504.275 272.096 504.744 272.096 505.33ZM296.81 502.904C295.99 502.904 295.264 503.057 294.631 503.361C294.021 503.643 293.471 504.018 292.978 504.486C292.486 504.955 292.076 505.459 291.748 505.998C291.42 506.514 291.127 507.006 290.869 507.475C290.635 507.943 290.447 508.33 290.307 508.635C290.189 508.939 290.107 509.092 290.06 509.092C289.428 509.092 288.982 508.928 288.725 508.6C288.467 508.271 288.303 507.873 288.232 507.404C288.162 506.912 288.15 506.408 288.197 505.893C288.268 505.354 288.303 504.885 288.303 504.486V503.889C288.303 503.607 288.303 503.314 288.303 503.01C288.326 502.705 288.338 502.424 288.338 502.166V501.568C288.408 501.381 288.502 501.275 288.619 501.252C288.736 501.229 288.865 501.217 289.006 501.217C289.217 501.217 289.393 501.346 289.533 501.604C289.674 501.838 289.803 502.131 289.92 502.482C290.037 502.834 290.131 503.186 290.201 503.537C290.271 503.865 290.33 504.123 290.377 504.311C290.658 504.264 290.916 504.146 291.15 503.959C291.385 503.771 291.619 503.549 291.853 503.291C292.111 503.033 292.381 502.764 292.662 502.482C292.943 502.201 293.271 501.943 293.646 501.709C294.021 501.451 294.455 501.24 294.947 501.076C295.463 500.912 296.049 500.83 296.705 500.83C298.018 500.83 299.096 501.123 299.939 501.709C300.783 502.271 301.428 503.021 301.873 503.959C302.342 504.873 302.658 505.916 302.822 507.088C302.986 508.236 303.068 509.408 303.068 510.604C302.365 510.604 301.814 510.498 301.416 510.287C301.041 510.053 300.771 509.76 300.607 509.408C300.443 509.033 300.35 508.623 300.326 508.178C300.303 507.709 300.291 507.24 300.291 506.771C300.291 506.279 300.256 505.799 300.185 505.33C300.139 504.861 299.998 504.451 299.764 504.1C299.553 503.748 299.213 503.467 298.744 503.256C298.299 503.021 297.654 502.904 296.81 502.904ZM303.982 518.971C304.264 518.971 304.521 519.1 304.756 519.357C305.014 519.639 305.26 519.955 305.494 520.307C305.728 520.658 305.951 521.01 306.162 521.361C306.373 521.736 306.596 521.994 306.83 522.135C307.322 522.533 307.873 522.861 308.482 523.119C309.115 523.377 309.76 523.576 310.416 523.717C311.072 523.881 311.728 523.998 312.385 524.068C313.064 524.162 313.721 524.209 314.353 524.209C314.4 524.209 314.482 524.197 314.6 524.174C314.74 524.174 314.881 524.174 315.021 524.174C315.162 524.174 315.291 524.162 315.408 524.139C315.549 524.139 315.643 524.139 315.689 524.139C316.041 523.975 316.31 523.752 316.498 523.471C316.709 523.213 316.85 522.92 316.92 522.592C317.014 522.287 317.072 521.959 317.096 521.607C317.119 521.256 317.131 520.904 317.131 520.553C317.131 520.295 317.107 519.85 317.06 519.217C317.037 518.607 316.99 517.881 316.92 517.037C316.85 516.217 316.756 515.35 316.639 514.436C316.545 513.521 316.404 512.654 316.217 511.834C316.053 511.014 315.842 510.299 315.584 509.689C315.326 509.08 315.033 508.658 314.705 508.424C314.471 508.682 314.236 508.939 314.002 509.197C313.768 509.432 313.498 509.643 313.193 509.83C312.912 510.018 312.619 510.17 312.314 510.287C312.01 510.404 311.67 510.463 311.295 510.463C310.545 510.463 309.748 510.381 308.904 510.217C308.06 510.053 307.275 509.771 306.549 509.373C305.822 508.975 305.225 508.471 304.756 507.861C304.287 507.229 304.053 506.443 304.053 505.506C304.053 504.639 304.287 503.912 304.756 503.326C305.225 502.717 305.799 502.236 306.478 501.885C307.182 501.51 307.943 501.24 308.764 501.076C309.584 500.912 310.357 500.83 311.084 500.83C311.318 500.83 311.6 500.842 311.928 500.865C312.279 500.865 312.631 500.889 312.982 500.936C313.334 500.982 313.662 501.053 313.967 501.146C314.271 501.24 314.518 501.381 314.705 501.568C314.728 501.615 314.752 501.744 314.775 501.955C314.822 502.143 314.857 502.354 314.881 502.588C314.928 502.822 314.963 503.045 314.986 503.256C315.01 503.467 315.021 503.584 315.021 503.607C315.115 504.029 315.244 504.439 315.408 504.838C315.596 505.213 315.795 505.611 316.006 506.033C316.217 506.432 316.416 506.83 316.603 507.229C316.791 507.627 316.943 508.025 317.06 508.424C317.693 510.439 318.209 512.443 318.607 514.436C319.006 516.428 319.205 518.479 319.205 520.588C319.205 520.682 319.193 520.846 319.17 521.08C319.17 521.338 319.17 521.596 319.17 521.854C319.17 522.135 319.158 522.393 319.135 522.627C319.135 522.885 319.135 523.061 319.135 523.154C319.111 523.764 318.924 524.268 318.572 524.666C318.221 525.088 317.787 525.404 317.271 525.615C316.779 525.85 316.24 526.014 315.654 526.107C315.092 526.225 314.588 526.283 314.143 526.283C313.393 526.283 312.607 526.213 311.787 526.072C310.99 525.955 310.217 525.768 309.467 525.51C308.717 525.252 308.002 524.924 307.322 524.525C306.666 524.15 306.092 523.693 305.6 523.154C305.107 522.615 304.709 522.006 304.404 521.326C304.123 520.646 303.982 519.861 303.982 518.971ZM306.092 505.717C306.092 506.186 306.232 506.596 306.514 506.947C306.795 507.299 307.146 507.592 307.568 507.826C307.99 508.037 308.435 508.201 308.904 508.318C309.373 508.412 309.783 508.459 310.135 508.459C311.471 508.459 312.396 508.131 312.912 507.475C313.428 506.795 313.685 505.811 313.685 504.521C313.685 504.146 313.615 503.854 313.475 503.643C313.334 503.408 313.146 503.244 312.912 503.15C312.678 503.057 312.408 502.998 312.103 502.975C311.799 502.928 311.494 502.904 311.189 502.904C310.768 502.904 310.264 502.951 309.678 503.045C309.092 503.115 308.529 503.256 307.99 503.467C307.475 503.678 307.029 503.971 306.654 504.346C306.279 504.697 306.092 505.154 306.092 505.717ZM319.135 504.275C319.135 503.479 319.357 502.705 319.803 501.955C320.248 501.205 320.81 500.549 321.49 499.986C322.193 499.424 322.955 498.979 323.775 498.65C324.619 498.322 325.416 498.158 326.166 498.158C326.775 498.158 327.373 498.24 327.959 498.404C328.568 498.545 329.107 498.779 329.576 499.107C330.045 499.436 330.42 499.846 330.701 500.338C331.006 500.807 331.158 501.369 331.158 502.025C331.158 502.33 331.135 502.576 331.088 502.764C331.064 502.928 330.994 503.08 330.877 503.221C330.76 503.338 330.607 503.455 330.42 503.572C330.256 503.666 330.045 503.795 329.787 503.959C329.646 503.982 329.435 504.041 329.154 504.135C328.873 504.205 328.545 504.287 328.17 504.381C327.818 504.475 327.443 504.568 327.045 504.662C326.646 504.756 326.26 504.85 325.885 504.943C325.533 505.037 325.217 505.119 324.935 505.189C324.654 505.26 324.443 505.307 324.303 505.33C324.232 505.354 324.08 505.377 323.846 505.4C323.611 505.424 323.353 505.459 323.072 505.506C322.814 505.529 322.568 505.564 322.334 505.611C322.1 505.635 321.959 505.658 321.912 505.682C321.842 505.705 321.76 505.764 321.666 505.857C321.596 505.928 321.56 505.975 321.56 505.998C321.56 506.467 321.689 506.865 321.947 507.193C322.205 507.498 322.533 507.756 322.932 507.967C323.33 508.178 323.775 508.342 324.268 508.459C324.783 508.553 325.287 508.635 325.779 508.705C326.271 508.752 326.728 508.775 327.15 508.775C327.572 508.775 327.912 508.775 328.17 508.775C329.342 508.775 330.49 508.717 331.615 508.6C332.74 508.459 333.889 508.389 335.06 508.389V508.67C335.06 508.811 335.037 508.963 334.99 509.127C334.967 509.268 334.92 509.408 334.85 509.549C334.779 509.666 334.685 509.736 334.568 509.76C333.678 509.947 332.881 510.1 332.178 510.217C331.498 510.311 330.853 510.381 330.244 510.428C329.635 510.451 329.002 510.463 328.346 510.463C327.689 510.486 326.963 510.498 326.166 510.498H325.568C325.31 510.498 325.029 510.486 324.725 510.463C324.42 510.463 324.127 510.463 323.846 510.463H323.248C322.521 510.275 321.889 509.982 321.35 509.584C320.834 509.162 320.412 508.67 320.084 508.107C319.756 507.545 319.51 506.936 319.346 506.279C319.205 505.623 319.135 504.955 319.135 504.275ZM327.01 500.127C326.705 500.127 326.353 500.162 325.955 500.232C325.58 500.279 325.182 500.373 324.76 500.514C324.361 500.631 323.963 500.795 323.564 501.006C323.166 501.193 322.814 501.428 322.51 501.709C322.205 501.967 321.947 502.26 321.736 502.588C321.549 502.916 321.455 503.279 321.455 503.678H322.896C323.412 503.678 323.939 503.654 324.478 503.607C325.018 503.561 325.545 503.49 326.06 503.396C326.576 503.279 327.021 503.115 327.396 502.904C327.795 502.67 328.111 502.377 328.346 502.025C328.603 501.674 328.732 501.24 328.732 500.725V500.549L328.381 500.197C328.334 500.197 328.24 500.197 328.1 500.197C327.982 500.174 327.853 500.162 327.713 500.162C327.572 500.139 327.432 500.127 327.291 500.127C327.174 500.127 327.08 500.127 327.01 500.127ZM339.314 508.318V507.58C339.314 507.275 339.338 506.982 339.385 506.701C339.432 506.42 339.525 506.174 339.666 505.963C339.807 505.752 340.006 505.646 340.264 505.646V505.682H340.369L341.072 508.389C341.072 508.482 341.119 508.553 341.213 508.6C341.307 508.646 341.4 508.693 341.494 508.74C341.611 508.764 341.717 508.775 341.81 508.775C341.928 508.775 342.021 508.775 342.092 508.775C342.139 508.775 342.197 508.775 342.268 508.775C342.361 508.752 342.42 508.74 342.443 508.74C342.584 508.717 342.853 508.658 343.252 508.564C343.65 508.447 344.06 508.342 344.482 508.248C344.928 508.154 345.338 508.061 345.713 507.967C346.111 507.85 346.393 507.779 346.557 507.756C346.674 507.568 346.85 507.404 347.084 507.264C347.318 507.1 347.553 506.947 347.787 506.807C348.021 506.666 348.221 506.514 348.385 506.35C348.549 506.186 348.631 505.975 348.631 505.717C348.631 505.131 348.478 504.662 348.174 504.311C347.893 503.959 347.518 503.701 347.049 503.537C346.603 503.35 346.123 503.221 345.607 503.15C345.092 503.08 344.6 503.01 344.131 502.939C343.943 502.916 343.639 502.881 343.217 502.834C342.818 502.764 342.361 502.693 341.846 502.623C341.33 502.553 340.791 502.482 340.228 502.412C339.666 502.318 339.115 502.248 338.576 502.201C338.06 502.131 337.592 502.072 337.17 502.025C336.771 501.979 336.478 501.943 336.291 501.92C336.15 501.826 335.998 501.662 335.834 501.428C335.67 501.193 335.588 501.006 335.588 500.865C335.588 500.467 335.799 500.104 336.221 499.775C336.666 499.424 337.217 499.107 337.873 498.826C338.529 498.545 339.268 498.299 340.088 498.088C340.932 497.877 341.752 497.689 342.549 497.525C343.369 497.361 344.119 497.244 344.799 497.174C345.502 497.104 346.041 497.068 346.416 497.068C346.697 497.068 346.955 497.162 347.189 497.35C347.447 497.537 347.576 497.807 347.576 498.158C347.576 498.439 347.494 498.65 347.33 498.791C347.189 498.908 347.002 498.99 346.768 499.037C346.557 499.061 346.334 499.084 346.1 499.107C345.889 499.107 345.689 499.119 345.502 499.143C345.127 499.213 344.646 499.307 344.06 499.424C343.498 499.541 342.935 499.658 342.373 499.775C341.81 499.893 341.342 499.986 340.967 500.057L340.369 500.197V500.584C340.814 500.584 341.377 500.596 342.057 500.619C342.736 500.643 343.463 500.701 344.236 500.795C345.01 500.889 345.771 501.041 346.521 501.252C347.295 501.439 347.986 501.709 348.596 502.061C349.205 502.389 349.697 502.811 350.072 503.326C350.471 503.818 350.67 504.428 350.67 505.154C350.67 506.139 350.4 506.971 349.861 507.65C349.322 508.33 348.643 508.881 347.822 509.303C347.002 509.725 346.111 510.029 345.15 510.217C344.189 510.404 343.299 510.498 342.478 510.498C342.15 510.498 341.799 510.475 341.424 510.428C341.049 510.357 340.697 510.24 340.369 510.076C340.064 509.912 339.807 509.689 339.596 509.408C339.408 509.127 339.314 508.764 339.314 508.318ZM364.838 510.146C364.674 509.678 364.521 509.174 364.381 508.635C364.264 508.072 364.158 507.498 364.064 506.912C363.994 506.326 363.935 505.752 363.889 505.189C363.842 504.627 363.818 504.1 363.818 503.607C363.818 503.537 363.83 503.408 363.853 503.221C363.877 503.01 363.9 502.799 363.924 502.588C363.971 502.377 364.018 502.178 364.064 501.99C364.111 501.779 364.146 501.639 364.17 501.568C364.193 501.545 364.299 501.521 364.486 501.498C364.674 501.475 364.791 501.463 364.838 501.463C365.143 501.463 365.389 501.627 365.576 501.955C365.764 502.283 365.928 502.705 366.068 503.221C366.209 503.736 366.303 504.311 366.35 504.943C366.42 505.553 366.478 506.15 366.525 506.736C366.572 507.299 366.596 507.803 366.596 508.248C366.596 508.693 366.596 508.998 366.596 509.162C366.596 509.232 366.596 509.35 366.596 509.514C366.619 509.654 366.619 509.807 366.596 509.971C366.572 510.111 366.514 510.229 366.42 510.322C366.35 510.416 366.221 510.463 366.033 510.463H365.893C365.846 510.463 365.775 510.451 365.682 510.428C365.588 510.381 365.482 510.346 365.365 510.322C365.248 510.275 365.143 510.24 365.049 510.217C364.955 510.193 364.885 510.17 364.838 510.146ZM364.451 494.643C364.451 494.057 364.826 493.623 365.576 493.342C365.74 493.271 365.881 493.295 365.998 493.412C366.139 493.529 366.244 493.682 366.314 493.869C366.408 494.057 366.467 494.256 366.49 494.467C366.537 494.654 366.56 494.795 366.56 494.889C366.56 495.029 366.525 495.146 366.455 495.24C366.385 495.311 366.291 495.357 366.174 495.381C366.08 495.404 365.975 495.416 365.857 495.416H365.576C365.248 495.416 364.978 495.381 364.768 495.311C364.557 495.24 364.451 495.018 364.451 494.643ZM367.896 499.494C367.896 498.627 367.92 497.76 367.967 496.893C368.014 496.002 368.119 495.146 368.283 494.326C368.447 493.506 368.67 492.744 368.951 492.041C369.256 491.338 369.654 490.729 370.146 490.213C370.662 489.674 371.295 489.252 372.045 488.947C372.795 488.643 373.685 488.49 374.717 488.49C375.373 488.49 375.982 488.572 376.545 488.736C377.131 488.877 377.646 489.111 378.092 489.439C378.537 489.744 378.9 490.154 379.182 490.67C379.463 491.162 379.603 491.76 379.603 492.463C379.603 492.65 379.58 492.873 379.533 493.131C379.486 493.365 379.416 493.611 379.322 493.869C379.228 494.104 379.1 494.314 378.935 494.502C378.795 494.666 378.607 494.748 378.373 494.748C378.326 494.748 378.291 494.748 378.268 494.748C378.244 494.748 378.221 494.736 378.197 494.713L378.021 494.537C377.928 494.443 377.869 494.385 377.846 494.361C377.869 494.268 377.893 494.127 377.916 493.939C377.963 493.752 377.998 493.553 378.021 493.342C378.068 493.131 378.103 492.932 378.127 492.744C378.15 492.533 378.174 492.393 378.197 492.322V491.936C378.197 491.561 378.057 491.268 377.775 491.057C377.518 490.822 377.201 490.646 376.826 490.529C376.475 490.389 376.1 490.295 375.701 490.248C375.326 490.201 375.021 490.178 374.787 490.178C373.92 490.178 373.193 490.33 372.607 490.635C372.045 490.939 371.576 491.35 371.201 491.865C370.85 492.381 370.568 492.979 370.357 493.658C370.146 494.314 369.994 495.006 369.9 495.732C369.807 496.436 369.748 497.15 369.725 497.877C369.701 498.58 369.678 499.236 369.654 499.846C369.725 500.033 369.807 500.221 369.9 500.408C369.994 500.596 370.135 500.748 370.322 500.865C371.564 500.818 372.865 500.818 374.225 500.865C375.607 500.889 376.932 501.006 378.197 501.217C378.314 501.24 378.396 501.311 378.443 501.428C378.514 501.521 378.56 501.639 378.584 501.779C378.631 501.92 378.654 502.061 378.654 502.201C378.678 502.318 378.689 502.4 378.689 502.447C378.549 502.447 378.303 502.459 377.951 502.482C377.623 502.482 377.248 502.494 376.826 502.518C376.404 502.518 375.959 502.529 375.49 502.553C375.045 502.553 374.611 502.553 374.189 502.553C373.768 502.553 373.393 502.564 373.064 502.588C372.736 502.588 372.502 502.588 372.361 502.588H371.904C371.717 502.588 371.494 502.611 371.236 502.658C370.978 502.705 370.721 502.775 370.463 502.869C370.228 502.963 370.064 503.092 369.971 503.256V503.607L371.693 513.557C371.717 513.721 371.693 513.861 371.623 513.979C371.553 514.119 371.447 514.236 371.307 514.33C371.166 514.424 371.025 514.482 370.885 514.506C370.744 514.553 370.615 514.576 370.498 514.576C370.076 514.576 369.725 514.271 369.443 513.662C369.162 513.053 368.928 512.268 368.74 511.307C368.553 510.369 368.4 509.314 368.283 508.143C368.166 506.971 368.072 505.834 368.002 504.732C367.955 503.607 367.92 502.576 367.896 501.639C367.896 500.701 367.896 499.986 367.896 499.494ZM400.521 502.904C399.701 502.904 398.975 503.057 398.342 503.361C397.732 503.643 397.182 504.018 396.689 504.486C396.197 504.955 395.787 505.459 395.459 505.998C395.131 506.514 394.838 507.006 394.58 507.475C394.346 507.943 394.158 508.33 394.018 508.635C393.9 508.939 393.818 509.092 393.771 509.092C393.139 509.092 392.693 508.928 392.435 508.6C392.178 508.271 392.014 507.873 391.943 507.404C391.873 506.912 391.861 506.408 391.908 505.893C391.978 505.354 392.014 504.885 392.014 504.486V503.889C392.014 503.607 392.014 503.314 392.014 503.01C392.037 502.705 392.049 502.424 392.049 502.166V501.568C392.119 501.381 392.213 501.275 392.33 501.252C392.447 501.229 392.576 501.217 392.717 501.217C392.928 501.217 393.103 501.346 393.244 501.604C393.385 501.838 393.514 502.131 393.631 502.482C393.748 502.834 393.842 503.186 393.912 503.537C393.982 503.865 394.041 504.123 394.088 504.311C394.369 504.264 394.627 504.146 394.861 503.959C395.096 503.771 395.33 503.549 395.564 503.291C395.822 503.033 396.092 502.764 396.373 502.482C396.654 502.201 396.982 501.943 397.357 501.709C397.732 501.451 398.166 501.24 398.658 501.076C399.174 500.912 399.76 500.83 400.416 500.83C401.728 500.83 402.807 501.123 403.65 501.709C404.494 502.271 405.139 503.021 405.584 503.959C406.053 504.873 406.369 505.916 406.533 507.088C406.697 508.236 406.779 509.408 406.779 510.604C406.076 510.604 405.525 510.498 405.127 510.287C404.752 510.053 404.482 509.76 404.318 509.408C404.154 509.033 404.06 508.623 404.037 508.178C404.014 507.709 404.002 507.24 404.002 506.771C404.002 506.279 403.967 505.799 403.896 505.33C403.85 504.861 403.709 504.451 403.475 504.1C403.264 503.748 402.924 503.467 402.455 503.256C402.01 503.021 401.365 502.904 400.521 502.904ZM407.764 506.314C407.764 505.518 407.904 504.697 408.185 503.854C408.467 503.01 408.865 502.236 409.381 501.533C409.92 500.83 410.553 500.256 411.279 499.811C412.006 499.365 412.838 499.143 413.775 499.143C415.088 499.143 416.189 499.271 417.08 499.529C417.971 499.787 418.697 500.186 419.26 500.725C419.822 501.24 420.221 501.92 420.455 502.764C420.713 503.584 420.842 504.557 420.842 505.682C420.842 505.752 420.83 505.893 420.807 506.104C420.807 506.291 420.807 506.49 420.807 506.701C420.807 506.912 420.795 507.123 420.771 507.334C420.771 507.521 420.771 507.662 420.771 507.756C420.607 508.342 420.291 508.822 419.822 509.197C419.377 509.549 418.85 509.818 418.24 510.006C417.654 510.193 417.033 510.322 416.377 510.393C415.744 510.463 415.17 510.498 414.654 510.498C413.928 510.498 413.166 510.451 412.369 510.357C411.572 510.264 410.822 510.076 410.119 509.795C409.439 509.49 408.877 509.068 408.432 508.529C407.986 507.967 407.764 507.229 407.764 506.314ZM409.521 505.857C409.521 506.467 409.697 506.971 410.049 507.369C410.424 507.744 410.869 508.037 411.385 508.248C411.9 508.459 412.451 508.6 413.037 508.67C413.646 508.74 414.162 508.775 414.584 508.775C415.006 508.775 415.369 508.775 415.674 508.775C416.002 508.775 416.318 508.74 416.623 508.67C416.928 508.6 417.244 508.494 417.572 508.354C417.9 508.213 418.287 508.014 418.732 507.756C418.967 507.381 419.096 507.018 419.119 506.666C419.143 506.291 419.154 505.904 419.154 505.506C419.154 504.709 419.002 504.006 418.697 503.396C418.393 502.787 417.982 502.295 417.467 501.92C416.951 501.545 416.33 501.299 415.603 501.182C414.9 501.041 414.115 501.053 413.248 501.217C412.896 501.287 412.498 501.498 412.053 501.85C411.607 502.201 411.197 502.611 410.822 503.08C410.447 503.549 410.131 504.041 409.873 504.557C409.639 505.049 409.521 505.482 409.521 505.857ZM426.748 501.287C426.092 501.287 425.482 501.346 424.92 501.463C424.381 501.557 423.783 501.604 423.127 501.604C422.869 501.604 422.705 501.51 422.635 501.322C422.564 501.111 422.529 500.912 422.529 500.725V500.549C422.576 500.455 422.646 500.338 422.74 500.197C422.857 500.057 422.975 499.928 423.092 499.811C423.209 499.67 423.303 499.553 423.373 499.459C423.467 499.365 423.525 499.318 423.549 499.318H426.783V494.045C426.783 493.951 426.818 493.881 426.889 493.834C426.959 493.787 427.041 493.752 427.135 493.729C427.252 493.682 427.357 493.658 427.451 493.658C427.545 493.635 427.615 493.623 427.662 493.623C428.037 493.623 428.307 493.764 428.471 494.045C428.658 494.303 428.775 494.631 428.822 495.029C428.893 495.428 428.916 495.861 428.893 496.33C428.893 496.799 428.893 497.232 428.893 497.631C428.893 498.029 428.916 498.381 428.963 498.686C429.033 498.967 429.174 499.119 429.385 499.143C429.572 499.166 429.924 499.213 430.439 499.283C430.978 499.33 431.529 499.4 432.092 499.494C432.678 499.564 433.228 499.635 433.744 499.705C434.26 499.775 434.635 499.822 434.869 499.846C434.916 499.846 434.998 499.869 435.115 499.916C435.256 499.939 435.396 499.963 435.537 499.986C435.701 500.01 435.842 500.045 435.959 500.092C436.076 500.139 436.158 500.174 436.205 500.197C436.252 500.197 436.322 500.244 436.416 500.338C436.51 500.432 436.557 500.502 436.557 500.549C436.557 500.713 436.51 500.865 436.416 501.006C436.322 501.146 436.205 501.264 436.064 501.357C435.924 501.428 435.771 501.486 435.607 501.533C435.467 501.557 435.326 501.568 435.185 501.568C435.139 501.568 435.01 501.557 434.799 501.533C434.588 501.486 434.365 501.439 434.131 501.393C433.92 501.346 433.709 501.311 433.498 501.287C433.31 501.24 433.193 501.217 433.146 501.217H432.795C432.584 501.217 432.361 501.217 432.127 501.217C431.893 501.217 431.658 501.217 431.424 501.217H430.475C430.31 501.217 430.146 501.217 429.982 501.217C429.818 501.217 429.678 501.217 429.56 501.217H429.385L429.033 501.568C429.033 501.592 429.033 501.674 429.033 501.814C429.033 501.955 429.021 502.119 428.998 502.307C428.975 502.494 428.951 502.693 428.928 502.904C428.928 503.092 428.928 503.244 428.928 503.361C428.928 504.627 429.057 505.623 429.314 506.35C429.572 507.076 429.971 507.627 430.51 508.002C431.072 508.354 431.775 508.576 432.619 508.67C433.486 508.74 434.541 508.775 435.783 508.775C435.924 508.775 436.111 508.775 436.346 508.775C436.58 508.775 436.814 508.775 437.049 508.775C437.283 508.775 437.482 508.775 437.646 508.775C437.81 508.752 437.904 508.74 437.928 508.74C437.951 508.74 438.01 508.729 438.103 508.705C438.197 508.658 438.303 508.623 438.42 508.6C438.56 508.553 438.666 508.506 438.736 508.459C438.83 508.412 438.9 508.389 438.947 508.389C439.041 508.389 439.111 508.436 439.158 508.529C439.228 508.6 439.275 508.693 439.299 508.811C439.322 508.928 439.334 509.033 439.334 509.127V509.373C439.334 509.748 439.252 510.018 439.088 510.182C438.924 510.346 438.537 510.439 437.928 510.463H437.33C437.049 510.463 436.756 510.463 436.451 510.463C436.17 510.486 435.877 510.498 435.572 510.498H435.045C433.709 510.498 432.572 510.451 431.635 510.357C430.697 510.24 429.924 510.064 429.314 509.83C428.705 509.572 428.225 509.232 427.873 508.811C427.521 508.389 427.264 507.838 427.1 507.158C426.959 506.479 426.865 505.658 426.818 504.697C426.771 503.736 426.748 502.6 426.748 501.287ZM451.006 502.904C450.303 502.904 449.693 503.033 449.178 503.291C448.685 503.549 448.24 503.865 447.842 504.24C447.443 504.615 447.103 505.037 446.822 505.506C446.541 505.951 446.26 506.373 445.978 506.771C445.697 507.146 445.404 507.463 445.1 507.721C444.795 507.979 444.443 508.107 444.045 508.107C443.764 508.107 443.541 507.99 443.377 507.756C443.236 507.521 443.131 507.275 443.06 507.018C442.756 506.01 442.439 504.932 442.111 503.783C441.807 502.611 441.514 501.428 441.232 500.232C440.951 499.037 440.717 497.842 440.529 496.646C440.342 495.428 440.248 494.268 440.248 493.166V492.955C440.248 492.838 440.248 492.721 440.248 492.604C440.271 492.463 440.283 492.346 440.283 492.252V491.971C440.33 491.76 440.447 491.654 440.635 491.654C440.822 491.631 440.998 491.619 441.162 491.619C441.185 491.619 441.268 491.619 441.408 491.619C441.572 491.619 441.666 491.619 441.689 491.619C441.736 491.971 441.818 492.51 441.935 493.236C442.053 493.963 442.193 494.771 442.357 495.662C442.545 496.553 442.732 497.479 442.92 498.439C443.131 499.377 443.342 500.232 443.553 501.006C443.787 501.779 444.021 502.412 444.256 502.904C444.49 503.396 444.713 503.643 444.924 503.643C445.275 503.643 445.685 503.502 446.154 503.221C446.623 502.939 447.115 502.623 447.631 502.271C448.17 501.92 448.732 501.592 449.318 501.287C449.928 500.982 450.56 500.83 451.217 500.83C451.357 500.83 451.545 500.842 451.779 500.865C452.014 500.865 452.248 500.877 452.482 500.9C452.74 500.924 452.975 500.959 453.185 501.006C453.42 501.053 453.572 501.123 453.643 501.217L456.771 504.311C456.959 504.498 457.123 504.838 457.264 505.33C457.404 505.822 457.521 506.35 457.615 506.912C457.709 507.475 457.768 508.014 457.791 508.529C457.814 509.021 457.826 509.408 457.826 509.689C457.826 510.018 457.721 510.24 457.51 510.357C457.299 510.451 457.053 510.498 456.771 510.498C456.396 510.498 456.127 510.311 455.963 509.936C455.799 509.561 455.646 509.092 455.506 508.529C455.389 507.943 455.248 507.334 455.084 506.701C454.92 506.045 454.685 505.436 454.381 504.873C454.076 504.287 453.654 503.818 453.115 503.467C452.6 503.092 451.896 502.904 451.006 502.904ZM459.83 510.146C459.666 509.678 459.514 509.174 459.373 508.635C459.256 508.072 459.15 507.498 459.057 506.912C458.986 506.326 458.928 505.752 458.881 505.189C458.834 504.627 458.81 504.1 458.81 503.607C458.81 503.537 458.822 503.408 458.846 503.221C458.869 503.01 458.893 502.799 458.916 502.588C458.963 502.377 459.01 502.178 459.057 501.99C459.103 501.779 459.139 501.639 459.162 501.568C459.185 501.545 459.291 501.521 459.478 501.498C459.666 501.475 459.783 501.463 459.83 501.463C460.135 501.463 460.381 501.627 460.568 501.955C460.756 502.283 460.92 502.705 461.06 503.221C461.201 503.736 461.295 504.311 461.342 504.943C461.412 505.553 461.471 506.15 461.518 506.736C461.564 507.299 461.588 507.803 461.588 508.248C461.588 508.693 461.588 508.998 461.588 509.162C461.588 509.232 461.588 509.35 461.588 509.514C461.611 509.654 461.611 509.807 461.588 509.971C461.564 510.111 461.506 510.229 461.412 510.322C461.342 510.416 461.213 510.463 461.025 510.463H460.885C460.838 510.463 460.768 510.451 460.674 510.428C460.58 510.381 460.475 510.346 460.357 510.322C460.24 510.275 460.135 510.24 460.041 510.217C459.947 510.193 459.877 510.17 459.83 510.146ZM459.443 494.643C459.443 494.057 459.818 493.623 460.568 493.342C460.732 493.271 460.873 493.295 460.99 493.412C461.131 493.529 461.236 493.682 461.307 493.869C461.4 494.057 461.459 494.256 461.482 494.467C461.529 494.654 461.553 494.795 461.553 494.889C461.553 495.029 461.518 495.146 461.447 495.24C461.377 495.311 461.283 495.357 461.166 495.381C461.072 495.404 460.967 495.416 460.85 495.416H460.568C460.24 495.416 459.971 495.381 459.76 495.311C459.549 495.24 459.443 495.018 459.443 494.643ZM471.396 502.904C470.576 502.904 469.85 503.057 469.217 503.361C468.607 503.643 468.057 504.018 467.564 504.486C467.072 504.955 466.662 505.459 466.334 505.998C466.006 506.514 465.713 507.006 465.455 507.475C465.221 507.943 465.033 508.33 464.893 508.635C464.775 508.939 464.693 509.092 464.646 509.092C464.014 509.092 463.568 508.928 463.31 508.6C463.053 508.271 462.889 507.873 462.818 507.404C462.748 506.912 462.736 506.408 462.783 505.893C462.853 505.354 462.889 504.885 462.889 504.486V503.889C462.889 503.607 462.889 503.314 462.889 503.01C462.912 502.705 462.924 502.424 462.924 502.166V501.568C462.994 501.381 463.088 501.275 463.205 501.252C463.322 501.229 463.451 501.217 463.592 501.217C463.803 501.217 463.978 501.346 464.119 501.604C464.26 501.838 464.389 502.131 464.506 502.482C464.623 502.834 464.717 503.186 464.787 503.537C464.857 503.865 464.916 504.123 464.963 504.311C465.244 504.264 465.502 504.146 465.736 503.959C465.971 503.771 466.205 503.549 466.439 503.291C466.697 503.033 466.967 502.764 467.248 502.482C467.529 502.201 467.857 501.943 468.232 501.709C468.607 501.451 469.041 501.24 469.533 501.076C470.049 500.912 470.635 500.83 471.291 500.83C472.603 500.83 473.682 501.123 474.525 501.709C475.369 502.271 476.014 503.021 476.459 503.959C476.928 504.873 477.244 505.916 477.408 507.088C477.572 508.236 477.654 509.408 477.654 510.604C476.951 510.604 476.4 510.498 476.002 510.287C475.627 510.053 475.357 509.76 475.193 509.408C475.029 509.033 474.935 508.623 474.912 508.178C474.889 507.709 474.877 507.24 474.877 506.771C474.877 506.279 474.842 505.799 474.771 505.33C474.725 504.861 474.584 504.451 474.35 504.1C474.139 503.748 473.799 503.467 473.33 503.256C472.885 503.021 472.24 502.904 471.396 502.904ZM478.568 518.971C478.85 518.971 479.107 519.1 479.342 519.357C479.6 519.639 479.846 519.955 480.08 520.307C480.314 520.658 480.537 521.01 480.748 521.361C480.959 521.736 481.182 521.994 481.416 522.135C481.908 522.533 482.459 522.861 483.068 523.119C483.701 523.377 484.346 523.576 485.002 523.717C485.658 523.881 486.314 523.998 486.971 524.068C487.65 524.162 488.307 524.209 488.939 524.209C488.986 524.209 489.068 524.197 489.185 524.174C489.326 524.174 489.467 524.174 489.607 524.174C489.748 524.174 489.877 524.162 489.994 524.139C490.135 524.139 490.228 524.139 490.275 524.139C490.627 523.975 490.896 523.752 491.084 523.471C491.295 523.213 491.435 522.92 491.506 522.592C491.6 522.287 491.658 521.959 491.682 521.607C491.705 521.256 491.717 520.904 491.717 520.553C491.717 520.295 491.693 519.85 491.646 519.217C491.623 518.607 491.576 517.881 491.506 517.037C491.435 516.217 491.342 515.35 491.225 514.436C491.131 513.521 490.99 512.654 490.803 511.834C490.639 511.014 490.428 510.299 490.17 509.689C489.912 509.08 489.619 508.658 489.291 508.424C489.057 508.682 488.822 508.939 488.588 509.197C488.353 509.432 488.084 509.643 487.779 509.83C487.498 510.018 487.205 510.17 486.9 510.287C486.596 510.404 486.256 510.463 485.881 510.463C485.131 510.463 484.334 510.381 483.49 510.217C482.646 510.053 481.861 509.771 481.135 509.373C480.408 508.975 479.81 508.471 479.342 507.861C478.873 507.229 478.639 506.443 478.639 505.506C478.639 504.639 478.873 503.912 479.342 503.326C479.81 502.717 480.385 502.236 481.064 501.885C481.768 501.51 482.529 501.24 483.35 501.076C484.17 500.912 484.943 500.83 485.67 500.83C485.904 500.83 486.185 500.842 486.514 500.865C486.865 500.865 487.217 500.889 487.568 500.936C487.92 500.982 488.248 501.053 488.553 501.146C488.857 501.24 489.103 501.381 489.291 501.568C489.314 501.615 489.338 501.744 489.361 501.955C489.408 502.143 489.443 502.354 489.467 502.588C489.514 502.822 489.549 503.045 489.572 503.256C489.596 503.467 489.607 503.584 489.607 503.607C489.701 504.029 489.83 504.439 489.994 504.838C490.182 505.213 490.381 505.611 490.592 506.033C490.803 506.432 491.002 506.83 491.189 507.229C491.377 507.627 491.529 508.025 491.646 508.424C492.279 510.439 492.795 512.443 493.193 514.436C493.592 516.428 493.791 518.479 493.791 520.588C493.791 520.682 493.779 520.846 493.756 521.08C493.756 521.338 493.756 521.596 493.756 521.854C493.756 522.135 493.744 522.393 493.721 522.627C493.721 522.885 493.721 523.061 493.721 523.154C493.697 523.764 493.51 524.268 493.158 524.666C492.807 525.088 492.373 525.404 491.857 525.615C491.365 525.85 490.826 526.014 490.24 526.107C489.678 526.225 489.174 526.283 488.728 526.283C487.978 526.283 487.193 526.213 486.373 526.072C485.576 525.955 484.803 525.768 484.053 525.51C483.303 525.252 482.588 524.924 481.908 524.525C481.252 524.15 480.678 523.693 480.185 523.154C479.693 522.615 479.295 522.006 478.99 521.326C478.709 520.646 478.568 519.861 478.568 518.971ZM480.678 505.717C480.678 506.186 480.818 506.596 481.1 506.947C481.381 507.299 481.732 507.592 482.154 507.826C482.576 508.037 483.021 508.201 483.49 508.318C483.959 508.412 484.369 508.459 484.721 508.459C486.057 508.459 486.982 508.131 487.498 507.475C488.014 506.795 488.271 505.811 488.271 504.521C488.271 504.146 488.201 503.854 488.06 503.643C487.92 503.408 487.732 503.244 487.498 503.15C487.264 503.057 486.994 502.998 486.689 502.975C486.385 502.928 486.08 502.904 485.775 502.904C485.353 502.904 484.85 502.951 484.264 503.045C483.678 503.115 483.115 503.256 482.576 503.467C482.06 503.678 481.615 503.971 481.24 504.346C480.865 504.697 480.678 505.154 480.678 505.717ZM504.795 505.049C504.795 504.041 505.064 503.221 505.603 502.588C506.143 501.932 506.799 501.428 507.572 501.076C508.369 500.725 509.225 500.49 510.139 500.373C511.076 500.232 511.943 500.162 512.74 500.162H513.162C513.326 500.162 513.514 500.174 513.725 500.197C513.959 500.197 514.17 500.197 514.357 500.197H514.779C515.248 500.268 515.553 500.408 515.693 500.619C515.834 500.807 515.904 501.053 515.904 501.357C515.904 501.732 515.775 502.037 515.518 502.271C515.283 502.506 514.978 502.623 514.603 502.623C514.369 502.623 514.205 502.588 514.111 502.518C514.041 502.424 513.971 502.33 513.9 502.236C513.853 502.143 513.783 502.061 513.689 501.99C513.596 501.896 513.42 501.85 513.162 501.85C512.81 501.85 512.412 501.873 511.967 501.92C511.521 501.967 511.064 502.037 510.596 502.131C510.127 502.225 509.67 502.354 509.225 502.518C508.779 502.682 508.381 502.893 508.029 503.15C507.678 503.408 507.396 503.725 507.185 504.1C506.975 504.451 506.869 504.885 506.869 505.4C506.869 505.822 506.986 506.209 507.221 506.561C507.478 506.889 507.807 507.182 508.205 507.439C508.603 507.697 509.049 507.92 509.541 508.107C510.057 508.271 510.56 508.4 511.053 508.494C511.545 508.588 512.014 508.658 512.459 508.705C512.928 508.752 513.303 508.775 513.584 508.775C514.24 508.775 514.85 508.682 515.412 508.494C515.975 508.283 516.525 508.061 517.064 507.826C517.627 507.592 518.178 507.381 518.717 507.193C519.256 507.006 519.807 506.912 520.369 506.912C520.369 507.756 520.123 508.424 519.631 508.916C519.162 509.408 518.564 509.771 517.838 510.006C517.111 510.24 516.338 510.381 515.518 510.428C514.697 510.475 513.947 510.498 513.268 510.498C512.705 510.498 512.096 510.475 511.439 510.428C510.807 510.357 510.174 510.252 509.541 510.111C508.908 509.947 508.31 509.736 507.748 509.479C507.185 509.221 506.682 508.893 506.236 508.494C505.814 508.072 505.463 507.58 505.182 507.018C504.924 506.455 504.795 505.799 504.795 505.049ZM531.619 502.904C530.916 502.904 530.307 503.033 529.791 503.291C529.299 503.549 528.853 503.865 528.455 504.24C528.057 504.615 527.717 505.037 527.435 505.506C527.154 505.951 526.873 506.373 526.592 506.771C526.31 507.146 526.018 507.463 525.713 507.721C525.408 507.979 525.057 508.107 524.658 508.107C524.377 508.107 524.154 507.99 523.99 507.756C523.85 507.521 523.744 507.275 523.674 507.018C523.369 506.01 523.053 504.932 522.725 503.783C522.42 502.611 522.127 501.428 521.846 500.232C521.564 499.037 521.33 497.842 521.143 496.646C520.955 495.428 520.861 494.268 520.861 493.166V492.955C520.861 492.838 520.861 492.721 520.861 492.604C520.885 492.463 520.896 492.346 520.896 492.252V491.971C520.943 491.76 521.06 491.654 521.248 491.654C521.435 491.631 521.611 491.619 521.775 491.619C521.799 491.619 521.881 491.619 522.021 491.619C522.185 491.619 522.279 491.619 522.303 491.619C522.35 491.971 522.432 492.51 522.549 493.236C522.666 493.963 522.807 494.771 522.971 495.662C523.158 496.553 523.346 497.479 523.533 498.439C523.744 499.377 523.955 500.232 524.166 501.006C524.4 501.779 524.635 502.412 524.869 502.904C525.103 503.396 525.326 503.643 525.537 503.643C525.889 503.643 526.299 503.502 526.768 503.221C527.236 502.939 527.728 502.623 528.244 502.271C528.783 501.92 529.346 501.592 529.932 501.287C530.541 500.982 531.174 500.83 531.83 500.83C531.971 500.83 532.158 500.842 532.393 500.865C532.627 500.865 532.861 500.877 533.096 500.9C533.353 500.924 533.588 500.959 533.799 501.006C534.033 501.053 534.185 501.123 534.256 501.217L537.385 504.311C537.572 504.498 537.736 504.838 537.877 505.33C538.018 505.822 538.135 506.35 538.228 506.912C538.322 507.475 538.381 508.014 538.404 508.529C538.428 509.021 538.439 509.408 538.439 509.689C538.439 510.018 538.334 510.24 538.123 510.357C537.912 510.451 537.666 510.498 537.385 510.498C537.01 510.498 536.74 510.311 536.576 509.936C536.412 509.561 536.26 509.092 536.119 508.529C536.002 507.943 535.861 507.334 535.697 506.701C535.533 506.045 535.299 505.436 534.994 504.873C534.689 504.287 534.268 503.818 533.728 503.467C533.213 503.092 532.51 502.904 531.619 502.904ZM549.162 508.74C548.787 508.74 548.389 508.799 547.967 508.916C547.568 509.01 547.17 509.127 546.771 509.268C546.373 509.408 545.951 509.537 545.506 509.654C545.084 509.748 544.65 509.795 544.205 509.795C543.525 509.795 542.869 509.689 542.236 509.479C541.603 509.268 541.041 508.951 540.549 508.529C540.08 508.107 539.705 507.604 539.424 507.018C539.143 506.408 539.002 505.729 539.002 504.979C539.002 504.322 539.201 503.713 539.6 503.15C540.021 502.588 540.537 502.119 541.146 501.744C541.756 501.369 542.412 501.076 543.115 500.865C543.818 500.654 544.451 500.549 545.014 500.549C545.271 500.549 545.588 500.572 545.963 500.619C546.361 500.643 546.783 500.701 547.228 500.795C547.697 500.865 548.166 500.971 548.635 501.111C549.103 501.229 549.525 501.393 549.9 501.604C550.299 501.814 550.627 502.061 550.885 502.342C551.166 502.6 551.33 502.904 551.377 503.256C551.377 503.373 551.353 503.584 551.307 503.889C551.26 504.17 551.225 504.475 551.201 504.803C551.178 505.131 551.143 505.447 551.096 505.752C551.072 506.033 551.049 506.244 551.025 506.385V506.596C551.025 507.111 551.143 507.498 551.377 507.756C551.611 508.014 551.893 508.201 552.221 508.318C552.572 508.412 552.935 508.459 553.31 508.459H554.435C554.787 508.459 555.01 508.459 555.103 508.459C555.197 508.436 555.256 508.424 555.279 508.424C555.326 508.424 555.385 508.424 555.455 508.424C555.549 508.4 555.783 508.389 556.158 508.389C556.463 508.389 556.697 508.447 556.861 508.564C557.025 508.682 557.107 508.928 557.107 509.303C557.107 509.701 556.978 509.982 556.721 510.146C556.463 510.311 556.158 510.416 555.807 510.463C555.455 510.533 555.103 510.557 554.752 510.533C554.4 510.51 554.131 510.498 553.943 510.498C553.404 510.498 552.889 510.404 552.396 510.217C551.928 510.029 551.494 509.83 551.096 509.619C550.697 509.385 550.334 509.186 550.006 509.021C549.678 508.834 549.396 508.74 549.162 508.74ZM541.076 505.33C541.076 505.893 541.193 506.35 541.428 506.701C541.685 507.029 541.99 507.275 542.342 507.439C542.717 507.58 543.127 507.674 543.572 507.721C544.018 507.744 544.451 507.756 544.873 507.756C545.037 507.756 545.307 507.744 545.682 507.721C546.08 507.697 546.49 507.65 546.912 507.58C547.334 507.486 547.709 507.369 548.037 507.229C548.389 507.088 548.588 506.912 548.635 506.701L549.338 503.959C549.385 503.771 549.338 503.607 549.197 503.467C549.057 503.326 548.857 503.209 548.6 503.115C548.365 503.021 548.096 502.939 547.791 502.869C547.51 502.799 547.228 502.74 546.947 502.693C546.666 502.646 546.408 502.611 546.174 502.588C545.963 502.564 545.834 502.553 545.787 502.553C545.365 502.553 544.873 502.6 544.31 502.693C543.771 502.764 543.256 502.904 542.764 503.115C542.295 503.303 541.896 503.572 541.568 503.924C541.24 504.275 541.076 504.744 541.076 505.33ZM565.791 502.904C564.971 502.904 564.244 503.057 563.611 503.361C563.002 503.643 562.451 504.018 561.959 504.486C561.467 504.955 561.057 505.459 560.728 505.998C560.4 506.514 560.107 507.006 559.85 507.475C559.615 507.943 559.428 508.33 559.287 508.635C559.17 508.939 559.088 509.092 559.041 509.092C558.408 509.092 557.963 508.928 557.705 508.6C557.447 508.271 557.283 507.873 557.213 507.404C557.143 506.912 557.131 506.408 557.178 505.893C557.248 505.354 557.283 504.885 557.283 504.486V503.889C557.283 503.607 557.283 503.314 557.283 503.01C557.307 502.705 557.318 502.424 557.318 502.166V501.568C557.389 501.381 557.482 501.275 557.6 501.252C557.717 501.229 557.846 501.217 557.986 501.217C558.197 501.217 558.373 501.346 558.514 501.604C558.654 501.838 558.783 502.131 558.9 502.482C559.018 502.834 559.111 503.186 559.182 503.537C559.252 503.865 559.31 504.123 559.357 504.311C559.639 504.264 559.896 504.146 560.131 503.959C560.365 503.771 560.6 503.549 560.834 503.291C561.092 503.033 561.361 502.764 561.643 502.482C561.924 502.201 562.252 501.943 562.627 501.709C563.002 501.451 563.435 501.24 563.928 501.076C564.443 500.912 565.029 500.83 565.685 500.83C566.998 500.83 568.076 501.123 568.92 501.709C569.764 502.271 570.408 503.021 570.853 503.959C571.322 504.873 571.639 505.916 571.803 507.088C571.967 508.236 572.049 509.408 572.049 510.604C571.346 510.604 570.795 510.498 570.396 510.287C570.021 510.053 569.752 509.76 569.588 509.408C569.424 509.033 569.33 508.623 569.307 508.178C569.283 507.709 569.271 507.24 569.271 506.771C569.271 506.279 569.236 505.799 569.166 505.33C569.119 504.861 568.978 504.451 568.744 504.1C568.533 503.748 568.193 503.467 567.725 503.256C567.279 503.021 566.635 502.904 565.791 502.904ZM572.963 518.971C573.244 518.971 573.502 519.1 573.736 519.357C573.994 519.639 574.24 519.955 574.475 520.307C574.709 520.658 574.932 521.01 575.143 521.361C575.353 521.736 575.576 521.994 575.81 522.135C576.303 522.533 576.853 522.861 577.463 523.119C578.096 523.377 578.74 523.576 579.396 523.717C580.053 523.881 580.709 523.998 581.365 524.068C582.045 524.162 582.701 524.209 583.334 524.209C583.381 524.209 583.463 524.197 583.58 524.174C583.721 524.174 583.861 524.174 584.002 524.174C584.143 524.174 584.271 524.162 584.389 524.139C584.529 524.139 584.623 524.139 584.67 524.139C585.021 523.975 585.291 523.752 585.478 523.471C585.689 523.213 585.83 522.92 585.9 522.592C585.994 522.287 586.053 521.959 586.076 521.607C586.1 521.256 586.111 520.904 586.111 520.553C586.111 520.295 586.088 519.85 586.041 519.217C586.018 518.607 585.971 517.881 585.9 517.037C585.83 516.217 585.736 515.35 585.619 514.436C585.525 513.521 585.385 512.654 585.197 511.834C585.033 511.014 584.822 510.299 584.564 509.689C584.307 509.08 584.014 508.658 583.685 508.424C583.451 508.682 583.217 508.939 582.982 509.197C582.748 509.432 582.478 509.643 582.174 509.83C581.893 510.018 581.6 510.17 581.295 510.287C580.99 510.404 580.65 510.463 580.275 510.463C579.525 510.463 578.728 510.381 577.885 510.217C577.041 510.053 576.256 509.771 575.529 509.373C574.803 508.975 574.205 508.471 573.736 507.861C573.268 507.229 573.033 506.443 573.033 505.506C573.033 504.639 573.268 503.912 573.736 503.326C574.205 502.717 574.779 502.236 575.459 501.885C576.162 501.51 576.924 501.24 577.744 501.076C578.564 500.912 579.338 500.83 580.064 500.83C580.299 500.83 580.58 500.842 580.908 500.865C581.26 500.865 581.611 500.889 581.963 500.936C582.314 500.982 582.643 501.053 582.947 501.146C583.252 501.24 583.498 501.381 583.685 501.568C583.709 501.615 583.732 501.744 583.756 501.955C583.803 502.143 583.838 502.354 583.861 502.588C583.908 502.822 583.943 503.045 583.967 503.256C583.99 503.467 584.002 503.584 584.002 503.607C584.096 504.029 584.225 504.439 584.389 504.838C584.576 505.213 584.775 505.611 584.986 506.033C585.197 506.432 585.396 506.83 585.584 507.229C585.771 507.627 585.924 508.025 586.041 508.424C586.674 510.439 587.189 512.443 587.588 514.436C587.986 516.428 588.185 518.479 588.185 520.588C588.185 520.682 588.174 520.846 588.15 521.08C588.15 521.338 588.15 521.596 588.15 521.854C588.15 522.135 588.139 522.393 588.115 522.627C588.115 522.885 588.115 523.061 588.115 523.154C588.092 523.764 587.904 524.268 587.553 524.666C587.201 525.088 586.768 525.404 586.252 525.615C585.76 525.85 585.221 526.014 584.635 526.107C584.072 526.225 583.568 526.283 583.123 526.283C582.373 526.283 581.588 526.213 580.768 526.072C579.971 525.955 579.197 525.768 578.447 525.51C577.697 525.252 576.982 524.924 576.303 524.525C575.646 524.15 575.072 523.693 574.58 523.154C574.088 522.615 573.689 522.006 573.385 521.326C573.103 520.646 572.963 519.861 572.963 518.971ZM575.072 505.717C575.072 506.186 575.213 506.596 575.494 506.947C575.775 507.299 576.127 507.592 576.549 507.826C576.971 508.037 577.416 508.201 577.885 508.318C578.353 508.412 578.764 508.459 579.115 508.459C580.451 508.459 581.377 508.131 581.893 507.475C582.408 506.795 582.666 505.811 582.666 504.521C582.666 504.146 582.596 503.854 582.455 503.643C582.314 503.408 582.127 503.244 581.893 503.15C581.658 503.057 581.389 502.998 581.084 502.975C580.779 502.928 580.475 502.904 580.17 502.904C579.748 502.904 579.244 502.951 578.658 503.045C578.072 503.115 577.51 503.256 576.971 503.467C576.455 503.678 576.01 503.971 575.635 504.346C575.26 504.697 575.072 505.154 575.072 505.717ZM588.115 504.275C588.115 503.479 588.338 502.705 588.783 501.955C589.228 501.205 589.791 500.549 590.471 499.986C591.174 499.424 591.935 498.979 592.756 498.65C593.6 498.322 594.396 498.158 595.146 498.158C595.756 498.158 596.353 498.24 596.939 498.404C597.549 498.545 598.088 498.779 598.557 499.107C599.025 499.436 599.4 499.846 599.682 500.338C599.986 500.807 600.139 501.369 600.139 502.025C600.139 502.33 600.115 502.576 600.068 502.764C600.045 502.928 599.975 503.08 599.857 503.221C599.74 503.338 599.588 503.455 599.4 503.572C599.236 503.666 599.025 503.795 598.768 503.959C598.627 503.982 598.416 504.041 598.135 504.135C597.853 504.205 597.525 504.287 597.15 504.381C596.799 504.475 596.424 504.568 596.025 504.662C595.627 504.756 595.24 504.85 594.865 504.943C594.514 505.037 594.197 505.119 593.916 505.189C593.635 505.26 593.424 505.307 593.283 505.33C593.213 505.354 593.06 505.377 592.826 505.4C592.592 505.424 592.334 505.459 592.053 505.506C591.795 505.529 591.549 505.564 591.314 505.611C591.08 505.635 590.939 505.658 590.893 505.682C590.822 505.705 590.74 505.764 590.646 505.857C590.576 505.928 590.541 505.975 590.541 505.998C590.541 506.467 590.67 506.865 590.928 507.193C591.185 507.498 591.514 507.756 591.912 507.967C592.31 508.178 592.756 508.342 593.248 508.459C593.764 508.553 594.268 508.635 594.76 508.705C595.252 508.752 595.709 508.775 596.131 508.775C596.553 508.775 596.893 508.775 597.15 508.775C598.322 508.775 599.471 508.717 600.596 508.6C601.721 508.459 602.869 508.389 604.041 508.389V508.67C604.041 508.811 604.018 508.963 603.971 509.127C603.947 509.268 603.9 509.408 603.83 509.549C603.76 509.666 603.666 509.736 603.549 509.76C602.658 509.947 601.861 510.1 601.158 510.217C600.478 510.311 599.834 510.381 599.225 510.428C598.615 510.451 597.982 510.463 597.326 510.463C596.67 510.486 595.943 510.498 595.146 510.498H594.549C594.291 510.498 594.01 510.486 593.705 510.463C593.4 510.463 593.107 510.463 592.826 510.463H592.228C591.502 510.275 590.869 509.982 590.33 509.584C589.814 509.162 589.393 508.67 589.064 508.107C588.736 507.545 588.49 506.936 588.326 506.279C588.185 505.623 588.115 504.955 588.115 504.275ZM595.99 500.127C595.685 500.127 595.334 500.162 594.935 500.232C594.56 500.279 594.162 500.373 593.74 500.514C593.342 500.631 592.943 500.795 592.545 501.006C592.146 501.193 591.795 501.428 591.49 501.709C591.185 501.967 590.928 502.26 590.717 502.588C590.529 502.916 590.435 503.279 590.435 503.678H591.877C592.393 503.678 592.92 503.654 593.459 503.607C593.998 503.561 594.525 503.49 595.041 503.396C595.557 503.279 596.002 503.115 596.377 502.904C596.775 502.67 597.092 502.377 597.326 502.025C597.584 501.674 597.713 501.24 597.713 500.725V500.549L597.361 500.197C597.314 500.197 597.221 500.197 597.08 500.197C596.963 500.174 596.834 500.162 596.693 500.162C596.553 500.139 596.412 500.127 596.271 500.127C596.154 500.127 596.06 500.127 595.99 500.127ZM608.295 508.318V507.58C608.295 507.275 608.318 506.982 608.365 506.701C608.412 506.42 608.506 506.174 608.646 505.963C608.787 505.752 608.986 505.646 609.244 505.646V505.682H609.35L610.053 508.389C610.053 508.482 610.1 508.553 610.193 508.6C610.287 508.646 610.381 508.693 610.475 508.74C610.592 508.764 610.697 508.775 610.791 508.775C610.908 508.775 611.002 508.775 611.072 508.775C611.119 508.775 611.178 508.775 611.248 508.775C611.342 508.752 611.4 508.74 611.424 508.74C611.564 508.717 611.834 508.658 612.232 508.564C612.631 508.447 613.041 508.342 613.463 508.248C613.908 508.154 614.318 508.061 614.693 507.967C615.092 507.85 615.373 507.779 615.537 507.756C615.654 507.568 615.83 507.404 616.064 507.264C616.299 507.1 616.533 506.947 616.768 506.807C617.002 506.666 617.201 506.514 617.365 506.35C617.529 506.186 617.611 505.975 617.611 505.717C617.611 505.131 617.459 504.662 617.154 504.311C616.873 503.959 616.498 503.701 616.029 503.537C615.584 503.35 615.103 503.221 614.588 503.15C614.072 503.08 613.58 503.01 613.111 502.939C612.924 502.916 612.619 502.881 612.197 502.834C611.799 502.764 611.342 502.693 610.826 502.623C610.31 502.553 609.771 502.482 609.209 502.412C608.646 502.318 608.096 502.248 607.557 502.201C607.041 502.131 606.572 502.072 606.15 502.025C605.752 501.979 605.459 501.943 605.271 501.92C605.131 501.826 604.978 501.662 604.814 501.428C604.65 501.193 604.568 501.006 604.568 500.865C604.568 500.467 604.779 500.104 605.201 499.775C605.646 499.424 606.197 499.107 606.853 498.826C607.51 498.545 608.248 498.299 609.068 498.088C609.912 497.877 610.732 497.689 611.529 497.525C612.35 497.361 613.1 497.244 613.779 497.174C614.482 497.104 615.021 497.068 615.396 497.068C615.678 497.068 615.935 497.162 616.17 497.35C616.428 497.537 616.557 497.807 616.557 498.158C616.557 498.439 616.475 498.65 616.31 498.791C616.17 498.908 615.982 498.99 615.748 499.037C615.537 499.061 615.314 499.084 615.08 499.107C614.869 499.107 614.67 499.119 614.482 499.143C614.107 499.213 613.627 499.307 613.041 499.424C612.478 499.541 611.916 499.658 611.353 499.775C610.791 499.893 610.322 499.986 609.947 500.057L609.35 500.197V500.584C609.795 500.584 610.357 500.596 611.037 500.619C611.717 500.643 612.443 500.701 613.217 500.795C613.99 500.889 614.752 501.041 615.502 501.252C616.275 501.439 616.967 501.709 617.576 502.061C618.185 502.389 618.678 502.811 619.053 503.326C619.451 503.818 619.65 504.428 619.65 505.154C619.65 506.139 619.381 506.971 618.842 507.65C618.303 508.33 617.623 508.881 616.803 509.303C615.982 509.725 615.092 510.029 614.131 510.217C613.17 510.404 612.279 510.498 611.459 510.498C611.131 510.498 610.779 510.475 610.404 510.428C610.029 510.357 609.678 510.24 609.35 510.076C609.045 509.912 608.787 509.689 608.576 509.408C608.389 509.127 608.295 508.764 608.295 508.318Z" fill="white"/>
</svg>
