<svg width="74" height="110" viewBox="0 0 74 110" fill="none" xmlns="http://www.w3.org/2000/svg">
<path d="M44.344 106.04C37.7733 106.04 31.928 104.376 26.808 101.048C21.688 97.8053 17.336 93.4533 13.752 87.992C10.2533 82.5307 7.56533 76.472 5.688 69.816C3.896 63.0747 3 56.2907 3 49.464C3 43.4907 3.72533 37.7307 5.176 32.184C6.62667 26.6373 8.888 21.688 11.96 17.336C15.032 12.8987 18.872 9.4 23.48 6.84C28.1733 4.28 33.72 3 40.12 3C46.264 3 51.256 4.10933 55.096 6.328C59.0213 8.54667 61.9227 11.4053 63.8 14.904C65.6773 18.4027 66.616 22.072 66.616 25.912C66.616 29.752 65.72 33.5067 63.928 37.176C62.136 40.76 59.5333 43.7467 56.12 46.136C52.792 48.44 48.696 49.6773 43.832 49.848C43.064 49.848 42.68 49.6773 42.68 49.336C42.68 48.6533 43.4907 48.2267 45.112 48.056C48.6107 47.9707 51.5973 46.9467 54.072 44.984C56.5467 42.936 58.424 40.376 59.704 37.304C60.984 34.1467 61.624 30.8613 61.624 27.448C61.624 23.7787 60.8133 20.2373 59.192 16.824C57.656 13.4107 55.224 10.5947 51.896 8.376C48.568 6.15734 44.3013 5.048 39.096 5.048C33.8907 5.048 29.4107 6.2 25.656 8.50401C21.9013 10.808 18.7867 13.9653 16.312 17.976C13.9227 21.9013 12.1307 26.3813 10.936 31.416C9.74133 36.4507 9.144 41.7413 9.144 47.288C9.144 54.0293 9.95467 60.728 11.576 67.384C13.2827 74.04 15.7147 80.1413 18.872 85.688C22.0293 91.1493 25.8693 95.5013 30.392 98.744C34.9147 102.072 40.0773 103.736 45.88 103.736C49.8053 103.736 53.432 102.84 56.76 101.048C60.088 99.3413 62.776 96.696 64.824 93.112C66.9573 89.6133 68.024 85.2187 68.024 79.928C68.024 78.0507 67.896 76.088 67.64 74.04C67.384 71.992 66.9147 69.816 66.232 67.512C66.1467 67.256 66.104 66.9573 66.104 66.616C66.104 66.0187 66.2747 65.72 66.616 65.72C67.0427 65.72 67.4267 66.1467 67.768 67C69.3893 71.864 70.2 76.4293 70.2 80.696C70.2 85.7307 69.1333 90.1253 67 93.88C64.8667 97.72 61.88 100.707 58.04 102.84C54.2 104.973 49.6347 106.04 44.344 106.04Z" fill="#B58D8D"/>
<path fill-rule="evenodd" clip-rule="evenodd" d="M52.1837 42.6526C54.2539 40.9328 55.8341 38.7863 56.9293 36.1634C58.0602 33.369 58.624 30.4709 58.624 27.448C58.624 24.2374 57.9183 21.1347 56.4822 18.1112L56.4689 18.0833L56.4562 18.0551C55.1675 15.1913 53.1245 12.8005 50.2319 10.8722C47.5255 9.06787 43.8855 8.048 39.096 8.048C34.3428 8.048 30.4278 9.09562 27.2251 11.061C23.9007 13.1009 21.1147 15.9079 18.8699 19.5436C16.6655 23.1671 14.9852 27.3453 13.8549 32.1086C12.7178 36.9007 12.144 41.9579 12.144 47.288C12.144 53.7803 12.9237 60.2348 14.4865 66.6564C16.1308 73.0631 18.4637 78.9045 21.4741 84.195C24.4457 89.3326 28.0095 93.3444 32.1401 96.3059L32.1551 96.3167L32.17 96.3277C36.1593 99.2632 40.6942 100.736 45.88 100.736C49.3287 100.736 52.464 99.954 55.3377 98.4066L55.3642 98.3923L55.3911 98.3786C58.1483 96.9646 60.4289 94.7568 62.2193 91.6236L62.2404 91.5866L62.2626 91.5502C64.0369 88.6404 65.024 84.8252 65.024 79.928C65.024 78.1866 64.9052 76.3487 64.6632 74.4121C64.4318 72.5611 64.004 70.559 63.3666 68.4013C63.1713 67.7905 63.104 67.1801 63.104 66.616C63.104 66.13 63.1562 65.28 63.6273 64.4556C64.2416 63.3806 65.3584 62.72 66.616 62.72C67.9453 62.72 68.8988 63.4163 69.4539 64.0331C69.981 64.6188 70.3208 65.3042 70.5534 65.8858L70.5862 65.9677L70.614 66.0513C72.3174 71.1615 73.2 76.0494 73.2 80.696C73.2 86.1577 72.0406 91.0754 69.6159 95.3488C67.2109 99.6729 63.8227 103.059 59.4969 105.462C55.1285 107.889 50.0406 109.04 44.344 109.04C37.2453 109.04 30.8282 107.235 25.188 103.573C19.6862 100.085 15.0402 95.4229 11.2439 89.638L11.2348 89.6242L11.2259 89.6103C7.55768 83.8843 4.75286 77.5518 2.80065 70.6304L2.7945 70.6086L2.78869 70.5867C0.931314 63.5994 0 56.5565 0 49.464C0 43.2453 0.755477 37.2296 2.27362 31.4249C3.80714 25.5615 6.21044 20.282 9.50124 15.6171C12.8275 10.816 17.007 7.00426 22.0231 4.21753L22.0332 4.21189L22.0434 4.20632C27.2566 1.36277 33.3167 0 40.12 0C46.5912 0 52.1476 1.16353 56.5844 3.72325C60.9292 6.18151 64.2648 9.4252 66.4435 13.4855C68.5466 17.405 69.616 21.5598 69.616 25.912C69.616 30.237 68.6029 34.4398 66.6237 38.4925L66.6176 38.5051L66.6113 38.5176C64.5871 42.566 61.6456 45.93 57.8404 48.5937L57.834 48.5982L57.8276 48.6026C53.9393 51.2945 49.2578 52.6595 43.9372 52.8462L43.8846 52.848H43.832C43.3188 52.848 42.5229 52.8052 41.7496 52.4614C41.3278 52.274 40.7885 51.942 40.352 51.36C39.8878 50.741 39.68 50.0244 39.68 49.336C39.68 47.5005 40.8893 46.3763 41.8908 45.8493C42.7998 45.3708 43.8571 45.1715 44.7979 45.0725L44.9181 45.0598L45.0389 45.0569C47.9478 44.9859 50.2794 44.1544 52.1837 42.6526ZM69.104 66.616C69.104 66.5862 69.1064 66.5932 69.1041 66.6295C69.104 66.6253 69.104 66.6208 69.104 66.616ZM12.5181 79.5827C10.978 75.9494 9.69603 72.1306 8.67001 68.1291L8.66551 68.1116L8.66123 68.094C6.9842 61.2094 6.144 54.2724 6.144 47.288C6.144 46.2144 6.16554 45.1491 6.2087 44.0921C6.06964 45.8605 6 47.6511 6 49.464C6 56.0174 6.85875 62.5352 8.58148 69.0233C9.6332 72.7478 10.9461 76.2664 12.5181 79.5827ZM43.7226 46.8435C43.7231 46.8431 43.7336 46.8437 43.7527 46.8462C43.7317 46.8451 43.7221 46.8438 43.7226 46.8435Z" fill="#B58D8D"/>
</svg>
